<svg width="197" height="69" viewBox="0 0 197 69" fill="none" xmlns="http://www.w3.org/2000/svg">
<path fill-rule="evenodd" clip-rule="evenodd" d="M86.0511 49.325L85.5581 53.608C85.3051 53.65 85.3461 53.646 85.0811 53.646C82.7911 53.646 80.8621 52.024 80.2911 49.822H78.7471V53.244L74.2811 53.309L74.2661 37.99H74.2811V37.976L81.7701 37.925C81.8901 37.915 82.0101 37.91 82.1321 37.91C84.8711 37.91 87.0941 40.433 87.0941 43.54C87.0941 45.243 86.4261 46.77 85.3721 47.803C85.2261 47.887 85.1081 47.992 85.0291 48.111C84.9841 48.147 84.9381 48.183 84.8921 48.218H84.9691C84.9351 48.296 84.9171 48.378 84.9171 48.463C84.9171 48.856 85.5051 49.213 86.0511 49.325ZM78.7601 42.256C78.7601 42.256 80.7411 42.241 80.8191 42.241C81.7131 42.241 82.4401 42.921 82.4401 43.76C82.4401 44.598 81.7131 45.278 80.8191 45.278C80.7161 45.278 78.7601 45.252 78.7601 45.252V42.256Z" fill="currentColor"/>
<path fill-rule="evenodd" clip-rule="evenodd" d="M99.8111 37.965L88.8621 37.91V53.338H93.3621V53.325H99.7631V48.984H93.3621V47.46L96.9961 47.48L97.3991 43.619H93.3621V42.305H99.8111V37.965Z" fill="currentColor"/>
<path fill-rule="evenodd" clip-rule="evenodd" d="M166.836 49.4L166.343 53.683C166.089 53.725 166.13 53.721 165.866 53.721C163.576 53.721 161.647 52.099 161.076 49.897H159.532V53.319L154.889 53.358L154.874 38.04H154.889V38.025L162.555 38C162.675 37.99 162.795 37.985 162.917 37.985C165.655 37.985 167.879 40.508 167.879 43.615C167.879 45.318 167.211 46.845 166.157 47.878C166.011 47.962 165.893 48.067 165.814 48.185C165.768 48.222 165.723 48.258 165.677 48.293H165.754C165.72 48.371 165.701 48.453 165.701 48.537C165.701 48.931 166.29 49.288 166.836 49.4ZM159.545 42.331C159.545 42.331 161.525 42.316 161.604 42.316C162.498 42.316 163.225 42.996 163.225 43.835C163.225 44.673 162.498 45.353 161.604 45.353C161.5 45.353 159.545 45.327 159.545 45.327V42.331Z" fill="currentColor"/>
<path fill-rule="evenodd" clip-rule="evenodd" d="M152.442 38.023L141.493 37.969V53.397H145.993V53.384H152.394V49.043H145.993V47.519L149.627 47.539L150.03 43.677H145.993V42.364H152.442V38.023Z" fill="currentColor"/>
<path fill-rule="evenodd" clip-rule="evenodd" d="M119.813 47.9689L122.875 51.1949C121.373 52.7809 119.245 53.7709 116.887 53.7709C112.339 53.7709 108.648 50.0889 108.648 45.5529C108.648 41.0179 112.339 37.3359 116.887 37.3359C119.298 37.3359 121.469 38.3709 122.977 40.0209L119.679 43.1339C119.007 42.4109 118.046 41.9579 116.981 41.9579C114.951 41.9579 113.302 43.6029 113.302 45.6279C113.302 47.6529 114.951 49.2969 116.981 49.2969C118.12 49.2969 119.138 48.7799 119.813 47.9689Z" fill="currentColor"/>
<path d="M106.816 37.869H102.4V53.248H106.816V37.869Z" fill="currentColor"/>
<path fill-rule="evenodd" clip-rule="evenodd" d="M173.303 42.298V53.302H177.719V42.298L181.667 42.282L182 37.894H169.022V42.298H173.303Z" fill="currentColor"/>
<path fill-rule="evenodd" clip-rule="evenodd" d="M129.95 43.625V37.913H125.534V53.292H129.95V47.45H133.996V53.292H138.412V37.913H133.996V43.625H129.95Z" fill="currentColor"/>
<path fill-rule="evenodd" clip-rule="evenodd" d="M162.331 20.619H160.199C160.123 20.604 160.045 20.597 159.964 20.597C159.34 20.597 158.834 21.053 158.834 21.617C158.834 22.179 159.34 22.637 159.964 22.637C160.028 22.637 160.091 22.632 160.152 22.622H167.673L167.249 26.522L166.51 26.511C166.727 27.038 166.846 27.605 166.846 28.193C166.846 31.044 164.08 33.358 160.673 33.358C157.267 33.358 154.501 31.044 154.501 28.193C154.501 26.898 155.072 25.713 156.015 24.806C155.324 23.998 154.916 23.007 154.916 21.938C154.916 19.213 157.561 17 160.817 17C162.182 17 163.44 17.389 164.44 18.041L162.331 20.619ZM160.479 26.671C161.637 26.671 162.578 27.262 162.578 27.99C162.578 28.717 161.637 29.308 160.479 29.308C159.32 29.308 158.38 28.717 158.38 27.99C158.38 27.262 159.32 26.671 160.479 26.671Z" fill="currentColor"/>
<path fill-rule="evenodd" clip-rule="evenodd" d="M143.44 23.496H147.03C147.03 23.496 147.016 30.256 147.011 32.312C147.01 32.636 146.747 32.898 146.422 32.898H140.047V32.893C135.586 32.849 131.979 29.307 131.979 24.95C131.979 20.566 135.631 17.007 140.131 17.007C142.461 17.007 144.565 17.962 146.051 19.492L142.659 22.45C142.008 21.85 141.128 21.481 140.161 21.481C138.157 21.481 136.53 23.064 136.53 25.014C136.53 26.964 138.157 28.547 140.161 28.547C140.307 28.547 141.372 28.522 141.372 28.522C141.808 28.522 142.161 28.17 142.161 27.735C142.161 27.301 141.808 26.949 141.372 26.949L140.473 26.954L140.17 23.504H143.444L143.44 23.496Z" fill="currentColor"/>
<path d="M114.452 17.502H110.036V32.881H114.452V17.502Z" fill="currentColor"/>
<path fill-rule="evenodd" clip-rule="evenodd" d="M96.0149 32.831H106.81L107.168 28.522H100.431V17.452H96.0149V32.831Z" fill="currentColor"/>
<path fill-rule="evenodd" clip-rule="evenodd" d="M69.482 31.349L68.828 32.8H64L70.919 17.379H72.985L79.927 32.8H75.099L74.444 31.349H69.482ZM71.243 27.445H72.684L71.964 25.847L71.243 27.445Z" fill="currentColor"/>
<path fill-rule="evenodd" clip-rule="evenodd" d="M121.558 17.462V17.459H117.142V32.838H121.558V25.365L126.002 32.855V32.881H130.419V17.502H126.002V24.949L121.56 17.461L121.558 17.462Z" fill="currentColor"/>
<path fill-rule="evenodd" clip-rule="evenodd" d="M88.9041 17.426H93.3381V23.159H93.3361V23.192C92.9941 25.511 91.2861 27.426 88.9941 28.204V32.799H84.5781V28.252C82.2121 27.508 80.4361 25.563 80.0861 23.195H80.0941V23.159H80.0691V17.426H84.5041V21.978C84.5041 23.189 85.4891 24.172 86.7041 24.172C87.9181 24.172 88.9041 23.189 88.9041 21.978V17.426Z" fill="currentColor"/>
<path d="M25.915 0.956055H25V15.3641H25.915V0.956055Z" fill="currentColor"/>
<path d="M25.915 62.61H25V67.392H25.915V62.61Z" fill="currentColor"/>
<path fill-rule="evenodd" clip-rule="evenodd" d="M4.61912 46.9909L1.34912 46.9759V23.0129H4.67212L4.68312 17.7689H46.0081L46.0001 22.1779H46.0131L46.0091 23.0309L51.1711 23.0279V35.1199H51.1731L51.1711 38.8509L46.1751 38.8489L52.3251 50.2259L52.3381 50.2189L53.0271 51.5089H47.2881L45.9061 48.9239L25.2851 59.9999L4.61512 48.8969L4.61912 46.9909ZM2.00512 46.2219L5.11112 46.1999V38.3239H19.3991L19.4681 45.4999H22.5V23.6989L2.00512 23.6829V46.2219ZM19.4681 26.9469V34.4219H5.17912V26.9469H19.4681ZM41.0191 37.8799L47.9361 50.7999L51.5681 50.7889L44.8181 37.9189L45.9741 37.9159V37.9209L50.4171 37.9229V35.1219V23.6989H50.3961V23.6229L28.3731 23.6369L28.4051 46.2429H32.3541L32.3681 37.8819L41.0191 37.8799ZM46.5431 26.9199V34.4029H32.2761V26.9199H46.5431Z" fill="currentColor"/>
</svg>
