<svg version="1.1" xmlns="http://www.w3.org/2000/svg" x="0" y="0" width="133" height="93.25" viewBox="0 0 133 93.25" xml:space="preserve"><g id="Layer_2"><path fill="currentColor" d="M3.33 87.48l-1.227 2.473h-1.04l4.053-7.83h1.13l1.11 7.83H6.352l-.324-2.478H3.33v.005zm2.626-.767l-.306-2.27c-.044-.4-.105-.988-.14-1.443-.21.463-.402.955-.64 1.427l-1.173 2.275h2.276l-.017.01zM13.136 82.966H10.86l.166-.878h5.55l-.165.878H14.1l-1.323 7.006h-.963l1.322-7.006zM15.352 89.953l.683-3.625c.13-.737.218-1.48.28-1.997h.875c-.042.394-.095.79-.148 1.22a2.027 2.027 0 0 1 1.752-1.35h.28l-.22.99c-.09-.01-.182-.01-.272 0-.875 0-1.575 1.007-1.82 2.32l-.465 2.478h-.945v-.035zM24.52 84.312l-.753 3.983c-.13.63-.2 1.176-.254 1.64h-.875l.14-1.06a2.488 2.488 0 0 1-1.98 1.182 1.41 1.41 0 0 1-1.486-1.628c.005-.32.04-.644.104-.955l.614-3.17h.954l-.596 3.135c-.056.27-.088.546-.095.82a.88.88 0 0 0 .874.973 2.327 2.327 0 0 0 1.822-2.056l.567-2.865h.963zM29.205 89.638a4.03 4.03 0 0 1-1.856.438 2.033 2.033 0 0 1-2.145-2.26c0-1.698 1.25-3.615 3.064-3.615a1.46 1.46 0 0 1 1.644 1.456c0 1.48-1.662 1.855-3.74 1.82-.044.36-.005.726.115 1.067.214.49.717.795 1.252.754.53 0 1.05-.132 1.515-.385l.148.726zm-1.07-4.686c-.926.13-1.668.833-1.848 1.75 1.524 0 2.706-.182 2.706-1.065a.734.734 0 0 0-.784-.685c-.026.004-.05.004-.074.01v-.01zM33.714 89.953l-.387-7.83h.973l.2 4.695v2.04a27.16 27.16 0 0 1 .815-1.988l2.172-4.755h1.024l.168 4.51v2.206a29.91 29.91 0 0 1 .77-2.012l2.103-4.703h1.008l-3.625 7.828h-.99l-.2-4.446a15.954 15.954 0 0 1 0-2.25c-.227.698-.49 1.385-.79 2.057l-2.196 4.65h-1.043zM47.216 86.54c0 1.75-1.235 3.5-3.125 3.5a2.146 2.146 0 0 1-2.2-2.312 3.36 3.36 0 0 1 3.12-3.52 2.156 2.156 0 0 1 2.206 2.33zm-4.326 1.196a1.39 1.39 0 0 0 1.195 1.564c.042.006.085.008.128.012 1.138 0 1.996-1.463 1.996-2.773a1.395 1.395 0 0 0-1.205-1.562c-.037-.005-.073-.006-.11-.01-1.2 0-2.005 1.482-2.005 2.77v-.002zM47.89 89.953l.684-3.625c.13-.737.22-1.48.28-1.997h.875c-.045.394-.098.79-.15 1.22a2.027 2.027 0 0 1 1.75-1.35h.28l-.21.99a1.363 1.363 0 0 0-.27 0c-.876 0-1.577 1.007-1.82 2.32l-.465 2.478h-.954v-.035zM51.586 89.953l1.575-8.266h.964l-1.566 8.247h-.964l-.008.02zM60.21 81.688l-1.19 6.48c-.11.577-.19 1.162-.237 1.75h-.875l.148-1.112a2.396 2.396 0 0 1-2.022 1.24c-1.095 0-1.682-.872-1.682-2.046a3.698 3.698 0 0 1 3.503-3.837c.343 0 .684.07.998.202l.403-2.678h.954zm-1.61 3.5a1.544 1.544 0 0 0-.877-.242c-1.348 0-2.39 1.443-2.39 2.94a1.15 1.15 0 0 0 .883 1.362c.06.01.117.02.176.02a2.38 2.38 0 0 0 1.883-2.11l.324-1.97zM67.906 89.7a5.17 5.17 0 0 1-2.03.365 2.967 2.967 0 0 1-3.17-3.24 4.9 4.9 0 0 1 1.663-3.77 4.475 4.475 0 0 1 2.96-1.044c.588-.03 1.173.097 1.696.367l-.314.78a3.18 3.18 0 0 0-1.54-.314 3.348 3.348 0 0 0-2.242.874 4.117 4.117 0 0 0-1.2 2.98c0 1.41.64 2.555 2.382 2.555.575.015 1.147-.1 1.673-.33l.12.777zM68.904 89.953l1.568-8.25h.964l-.7 3.617a2.403 2.403 0 0 1 2.013-1.11 1.356 1.356 0 0 1 1.39 1.503c0 .32-.034.636-.096.947l-.63 3.302h-.964l.63-3.25a4.97 4.97 0 0 0 .07-.778.816.816 0 0 0-.876-.876 2.424 2.424 0 0 0-1.917 2.128l-.524 2.82h-.966l.037-.053zM78.843 89.953a14.1 14.1 0 0 1 .132-1.454 2.436 2.436 0 0 1-2.18 1.576 1.668 1.668 0 0 1-1.612-1.858 3.922 3.922 0 0 1 3.824-4.017h.072c.514 0 1.027.07 1.523.21l-.58 2.942a12.7 12.7 0 0 0-.235 2.628h-.875l-.07-.027zm.63-4.905a2.058 2.058 0 0 0-.666-.08c-1.46 0-2.626 1.507-2.626 3.084a1.037 1.037 0 0 0 .964 1.245c.808 0 1.75-1.042 2.032-2.547l.298-1.702zM81.19 89.953l.743-3.985c.113-.63.2-1.175.255-1.637h.876l-.142 1.06a2.378 2.378 0 0 1 1.98-1.18 1.226 1.226 0 0 1 1.31 1.133c.004.04.005.08.004.12a2.412 2.412 0 0 1 2.057-1.254 1.34 1.34 0 0 1 1.374 1.48 5.57 5.57 0 0 1-.095.954l-.63 3.318h-.94l.605-3.24c.054-.243.078-.49.08-.736a.807.807 0 0 0-.876-.97c-.698 0-1.53.815-1.75 2.066l-.533 2.88h-.92l.63-3.302c.046-.227.068-.452.072-.685a.802.802 0 0 0-.608-.95.87.87 0 0 0-.27-.01c-.7 0-1.577.927-1.804 2.125l-.508 2.822h-.943l.033-.01zM90.077 92.255l1.13-5.927c.132-.685.245-1.446.314-2.016h.877l-.15 1.07a2.484 2.484 0 0 1 2.025-1.183 1.747 1.747 0 0 1 1.75 2.03c0 1.987-1.42 3.846-3.293 3.846a2.493 2.493 0 0 1-1.21-.254l-.454 2.423h-.964l-.025.01zm1.577-3.24c.313.224.69.33 1.076.316 1.245 0 2.274-1.542 2.274-3.02a1.124 1.124 0 0 0-1.076-1.305c-.753 0-1.7.876-1.988 2.443l-.286 1.568zM96.673 89.953l1.075-5.622h.953l-1.067 5.623h-.96zm1.25-7.18c0-.35.28-.64.632-.65a.574.574 0 0 1 .578.56v.045a.637.637 0 0 1-.632.648h-.033a.55.55 0 0 1-.537-.565c0-.014 0-.024.004-.036h-.01zM104.735 86.54c0 1.75-1.234 3.5-3.127 3.5a2.143 2.143 0 0 1-2.202-2.087c-.004-.076 0-.15.003-.225a3.365 3.365 0 0 1 3.118-3.565 2.155 2.155 0 0 1 2.207 2.376zm-4.325 1.196a1.388 1.388 0 0 0 1.192 1.564c.043.006.086.008.13.012 1.138 0 1.995-1.463 1.995-2.773a1.395 1.395 0 0 0-1.204-1.562c-.037-.005-.072-.006-.11-.01-1.2 0-1.996 1.482-1.996 2.77l-.007-.002zM105.428 89.953l.743-3.985c.133-.63.213-1.175.272-1.637h.878l-.143 1.105a2.474 2.474 0 0 1 2.084-1.234 1.382 1.382 0 0 1 1.43 1.56c-.012.292-.047.585-.107.873l-.63 3.285H109l.61-3.25a4.42 4.42 0 0 0 .07-.718.877.877 0 0 0-.875-.972 2.475 2.475 0 0 0-1.916 2.216l-.507 2.732h-.955v.027zM111.67 88.98c.366.218.782.336 1.21.35a.97.97 0 0 0 1.065-.865v-.01a1.116 1.116 0 0 0-.785-1.033 1.688 1.688 0 0 1-1.02-1.437 1.848 1.848 0 0 1 1.936-1.758l.097.008a2.33 2.33 0 0 1 1.175.28l-.29.674a2.016 2.016 0 0 0-.97-.255.88.88 0 0 0-.992.742.758.758 0 0 0-.005.134c.053.44.358.804.78.94.592.26.996.83 1.04 1.477a1.9 1.9 0 0 1-1.936 1.862c-.067-.002-.134-.008-.202-.014a2.634 2.634 0 0 1-1.41-.387l.308-.71zM115.937 89.953l1.574-8.266h.963l-.7 3.616a2.403 2.403 0 0 1 2.005-1.114 1.357 1.357 0 0 1 1.412 1.522c-.004.32-.036.636-.1.947l-.628 3.3h-.964l.63-3.248c.048-.257.07-.52.07-.78a.814.814 0 0 0-.876-.875 2.426 2.426 0 0 0-1.916 2.128l-.527 2.82h-.943v-.052zM122.15 89.953l1.078-5.622h.954l-1.067 5.623h-.965zm1.252-7.18c0-.35.28-.64.633-.65a.573.573 0 0 1 .577.605.636.636 0 0 1-.63.648h-.037a.542.542 0 0 1-.547-.54c0-.022 0-.04.004-.063zM124.314 92.255l1.128-5.927c.134-.685.246-1.446.315-2.016h.877l-.15 1.07a2.484 2.484 0 0 1 2.024-1.183 1.75 1.75 0 0 1 1.752 2.03c0 1.987-1.42 3.846-3.286 3.846a2.48 2.48 0 0 1-1.207-.254l-.455 2.423h-.965l-.033.01zm1.575-3.24c.314.224.694.33 1.076.316 1.246 0 2.277-1.542 2.277-3.02a1.126 1.126 0 0 0-1.078-1.305c-.75 0-1.7.876-1.985 2.443l-.29 1.568z"/><path fill="currentColor" d="M130.495 31.514L104.98 0H85.585l44.91 56.758zM104.92 31.514L79.402 0H60.01l44.91 56.758zM79.333 31.514L53.818 0H34.432l44.9 56.758z"/><path fill="currentColor" d="M6.48 64.665H2.175v3.318h4.132v1.443H2.174v3.417h4.378v1.42H.686V63.245h5.796v1.42zM19.125 74.235h-1.48l-1.35-3.24h-4.298l-1.278 3.24H9.25l4.376-11.053h1.025l4.475 11.053zm-6.566-4.658h3.143l-1.63-3.976-1.514 3.977zM27.27 65.663a3.258 3.258 0 0 0-2.4-1.147 1.413 1.413 0 0 0-1.592 1.2c-.004.035-.008.07-.01.105 0 2.112 4.377 2.078 4.377 5.58a2.818 2.818 0 0 1-2.657 2.97c-.057.006-.114.006-.17.006a4.223 4.223 0 0 1-2.83-1.015v-1.996a3.347 3.347 0 0 0 2.627 1.595 1.49 1.49 0 0 0 1.64-1.32c.003-.022.005-.042.006-.066 0-2.267-4.377-2.53-4.377-5.543a2.81 2.81 0 0 1 3.065-2.932c.813.012 1.602.28 2.25.773v1.75l.07.043zM39.064 64.665h-3.502v9.57h-1.445v-9.57h-3.503v-1.42h8.45v1.42zM57.346 74.33h-.28l-3.3-8.992-3.363 8.992h-.29l-4.088-11.084h1.453l2.785 7.573 2.802-7.574h1.376l2.83 7.573 2.757-7.574h1.437L57.346 74.33zM70.535 64.665H66.26v3.318h4.142v1.443H66.26v3.417h4.378v1.42H64.77V63.245h5.738v1.42h.027zM79.236 65.663a3.256 3.256 0 0 0-2.37-1.147 1.414 1.414 0 0 0-1.605 1.305c0 2.112 4.38 2.078 4.38 5.58a2.818 2.818 0 0 1-2.66 2.97c-.054.006-.11.006-.17.006a4.23 4.23 0 0 1-2.827-1.015v-1.996a3.348 3.348 0 0 0 2.626 1.595 1.493 1.493 0 0 0 1.64-1.32c.002-.022.006-.042.006-.066 0-2.267-4.377-2.53-4.377-5.543a2.818 2.818 0 0 1 3.063-2.932c.812.012 1.6.28 2.25.773v1.75l.043.043zM91.03 64.665h-3.5v9.57h-1.456v-9.57h-3.502v-1.42h8.44v1.42h.02zM109.57 65.688a6.265 6.265 0 0 0-3.503-1.146 4.01 4.01 0 0 0-4.035 3.988c0 .07.003.142.006.215a3.935 3.935 0 0 0 3.702 4.16c.13.01.26.012.387.007a6.26 6.26 0 0 0 3.504-1.242v1.75a6.956 6.956 0 0 1-3.66.964 5.396 5.396 0 0 1-5.456-5.332v-.15a5.49 5.49 0 0 1 5.544-5.795 8.19 8.19 0 0 1 3.5.874v1.693l.01.015zM122.17 69.91c0 2.688-1.48 4.465-4.494 4.465a4 4 0 0 1-4.203-4.3v-6.83h1.455v6.49c0 1.242.146 1.75.604 2.258.547.61 1.334.95 2.154.938a3.16 3.16 0 0 0 2.373-.876c.505-.69.732-1.547.636-2.4v-6.39h1.454v6.67l.02-.024zM129.48 63.246a2.942 2.942 0 0 1 3.214 3.16c0 1.753-1.068 3.07-3.405 3.07h-1.518v4.76h-1.453v-10.99h3.16zm-1.708 4.815h1.646a1.617 1.617 0 0 0 1.75-1.75 1.55 1.55 0 0 0-1.406-1.682 1.527 1.527 0 0 0-.344.01h-1.708v3.396l.062.027z"/><path fill="currentColor" d="M.94 21.268V36.6h56.04L45.13 21.27H.94zm0 20.9v15.325h72.246L61.322 42.188H.905l.034-.02zm0-26.564h39.796L28.714.104H.94v15.517-.016z"/><circle fill="currentColor" cx="117.903" cy="69.341" r="2.182"/><path fill="currentColor" d="M116.84 13.66h2.07v30.9h-2.07z"/><path fill="currentColor" d="M131.057 5.55L118.175.124v-.01h-.535v67.88h.535V10.99z"/></g></svg>