<svg width="60" height="53" viewBox="0 0 60 53" fill="none" xmlns="http://www.w3.org/2000/svg">
<path fill-rule="evenodd" clip-rule="evenodd" d="M23.1301 0.23116C23.7787 0.200734 24.4238 0.188058 25.0675 0.193089C31.4042 0.242619 37.463 2.00817 43.2127 5.45709C44.7915 6.40406 46.2283 7.56426 48.0692 9.34798L48.6035 9.87455L49.423 10.7174L49.8385 11.1611L50.2173 11.1227L50.7762 11.1034C51.6485 11.1102 52.5217 11.2816 53.3848 11.6086C54.6455 12.0859 55.6397 12.9339 56.4963 14.1835C57.7157 15.9622 58.3139 18.0043 58.2531 20.1791C58.2252 21.1768 58.0085 22.137 57.6062 23.0614L57.3967 23.4999L57.6454 24.3074C57.7513 24.6754 57.8509 25.0445 57.9442 25.4156L58.2059 26.5353L58.4224 27.6295C58.9345 30.4729 58.883 33.337 58.2721 36.2118C57.1531 41.477 54.2441 45.526 49.6949 48.1407C47.7746 49.2444 45.6181 49.9052 43.1143 50.1878C42.3295 50.2764 41.5246 50.3164 40.6865 50.3099C39.2354 50.2985 37.7634 50.1575 35.7984 49.8525C32.0211 49.2661 28.2533 48.3026 24.4792 46.9622C20.793 45.6531 18.6472 44.7244 15.8798 43.0354L15.586 43.0878L14.972 43.1721L14.3705 43.2362C14.2448 43.2479 14.1236 43.2585 14.0039 43.2681L13.2804 43.3158L12.4504 43.35L10.9524 43.4352L10.3609 43.4457C9.11431 43.4359 8.4713 43.2699 7.66037 42.6284C6.85167 41.9885 6.48139 41.2667 6.31226 40.2347C6.26202 39.9281 6.23777 39.6102 6.23115 39.2196L6.2295 38.9871L6.23741 38.508L6.31728 36.6811L6.32571 35.962L6.34998 35.0647L5.55061 34.0378C4.91105 33.2056 4.41891 32.5256 3.98586 31.8681L3.73241 31.4754L3.44093 31.0011C1.92188 28.4601 0.997115 26.173 0.561943 23.7801C0.325572 22.4801 0.211434 21.2069 0.220331 19.9385L0.240185 19.2145C0.4606 14.5288 2.43132 10.3423 6.03508 6.81373C8.21223 4.68192 10.8516 3.09999 13.9293 2.05902C17.1321 0.975732 20.1493 0.370731 23.1301 0.23116ZM43.471 45.5829C43.5031 45.6868 43.6736 45.8132 43.7793 45.814C43.7829 45.814 43.7865 45.8139 43.7899 45.8136C43.899 45.805 44.0475 45.6597 44.0873 45.5416C44.1354 45.3988 44.139 45.2388 44.1425 45.0807C44.1435 45.0379 44.1444 44.9952 44.1463 44.9531C44.1525 44.8114 44.1523 44.6695 44.1521 44.5188C44.1521 44.451 44.152 44.3815 44.1525 44.3094C44.2014 44.3098 44.2479 44.3112 44.2927 44.3126C44.3344 44.314 44.3746 44.3152 44.414 44.3155C44.4628 44.3159 44.5103 44.3148 44.5575 44.3104C44.6489 44.302 44.7417 44.2972 44.8347 44.2923C45.0754 44.2798 45.3169 44.2672 45.5379 44.1923C46.2655 43.9457 46.4547 42.9913 45.8779 42.5096C45.5175 42.2086 45.1146 42.0547 44.6822 42.0513C44.4967 42.0498 44.3059 42.0761 44.1106 42.1303C43.7944 42.2181 43.602 42.4244 43.5678 42.7681C43.5491 42.9549 43.5294 43.1417 43.5098 43.3284C43.457 43.8288 43.4043 44.3292 43.371 44.8309C43.3544 45.0798 43.3971 45.3445 43.471 45.5829ZM44.3622 42.7373C44.4451 42.735 44.5283 42.7334 44.6116 42.734C44.7497 42.7351 44.8877 42.7424 45.0235 42.762C45.2013 42.7877 45.4094 42.8871 45.3701 43.0927C45.3382 43.26 45.195 43.4845 45.0525 43.5328C44.8654 43.5963 44.6614 43.6075 44.4367 43.6199C44.338 43.6253 44.2352 43.631 44.1281 43.6414C44.1361 43.5589 44.1431 43.4808 44.1499 43.4061C44.1676 43.2083 44.1833 43.0338 44.2109 42.8612C44.219 42.8107 44.3086 42.7388 44.3622 42.7373ZM32.6853 44.2296C32.867 44.3517 33.108 44.4124 33.3545 44.4143C33.6938 44.4169 34.0435 44.3083 34.2629 44.0955C34.3187 44.0414 34.345 43.904 34.3219 43.8244C34.2704 43.6473 34.1858 43.5617 34.0613 43.5608C33.9814 43.5601 33.885 43.5944 33.7705 43.6617C33.6477 43.7339 33.518 43.7683 33.3921 43.7673C33.1695 43.7655 32.959 43.6531 32.8205 43.4435C32.6227 43.1442 32.6602 42.7928 32.9637 42.6013C33.139 42.4907 33.2896 42.472 33.4574 42.4512L33.4676 42.4499C33.4741 42.4491 33.4967 42.4466 33.5059 42.4467L33.5082 42.4468C33.5221 42.4481 33.5375 42.4492 33.5524 42.4503C33.5788 42.4521 33.6039 42.4539 33.6176 42.4568C33.6329 42.4579 33.6483 42.459 33.6636 42.4601C33.6942 42.4624 33.7248 42.4646 33.7556 42.4667C33.7816 42.4685 33.8086 42.4721 33.8358 42.4757C33.8741 42.4807 33.9128 42.4858 33.9494 42.4861C34.0454 42.4869 34.1272 42.4544 34.1519 42.3004C34.1905 42.061 34.0562 41.9212 33.8387 41.8784C33.7032 41.8516 33.563 41.8334 33.4246 41.8323C33.4101 41.8322 33.3958 41.8323 33.3814 41.8325C33.3701 41.8327 33.3589 41.8331 33.3476 41.8335C32.7922 41.8559 32.2359 42.2382 32.1023 42.6735C31.9325 43.2273 32.181 43.8905 32.6853 44.2296ZM36.1813 44.4135L36.2162 44.4141C36.4697 44.4161 36.5594 44.3632 36.6879 44.2801C37.0994 44.0139 37.2913 43.6125 37.2273 43.1202C37.1525 42.545 36.8721 42.0939 36.303 41.9281C36.2028 41.899 36.1042 41.8847 36.0091 41.884C35.3568 41.8789 34.8608 42.5033 35.0201 43.2218C35.1055 43.607 35.2902 43.9314 35.596 44.1617C35.6075 44.1704 35.6188 44.179 35.6299 44.1874C35.7913 44.31 35.9189 44.4069 36.1813 44.4135ZM35.6451 43.1022C35.6439 42.7681 35.8152 42.5793 36.1165 42.5817L36.1235 42.5818C36.3985 42.5866 36.6251 42.8638 36.6188 43.1876C36.6128 43.4918 36.3835 43.7522 36.113 43.7614C36.1084 43.7616 36.1036 43.7617 36.0989 43.7616C35.8462 43.7596 35.6464 43.4714 35.6451 43.1022ZM41.4387 44.4052H41.447C42.0714 44.4101 42.5631 43.9394 42.5667 43.3314C42.571 42.6065 41.9708 41.9079 41.3304 41.8924C41.3244 41.8922 41.3183 41.8922 41.3123 41.8921C40.7156 41.8875 40.2571 42.3689 40.2523 43.0099C40.2467 43.7504 40.7953 44.3957 41.4387 44.4052ZM40.9369 43.1055C40.9516 42.7738 41.1313 42.5699 41.4044 42.572C41.4104 42.5721 41.4165 42.5722 41.4225 42.5725C41.7033 42.5839 41.9084 42.852 41.897 43.1927C41.8865 43.5094 41.6612 43.755 41.3838 43.7543C41.1316 43.7524 40.9217 43.448 40.9369 43.1055ZM38.1966 43.4495C38.3795 43.5298 38.5649 43.5676 38.7507 43.569C38.9595 43.5706 39.1685 43.5264 39.3744 43.4453C39.4931 43.4158 39.575 43.2588 39.5773 43.1486C39.58 43.0205 39.4987 42.9022 39.4143 42.861C39.2429 42.7775 38.9757 42.741 38.8155 42.7397C38.8017 42.7396 38.7886 42.7398 38.7765 42.7402C38.6243 42.7454 38.3615 42.7675 38.1719 42.8691C37.8871 43.0221 37.9016 43.3197 38.1966 43.4495ZM20.9571 39.3666C21.2341 39.4944 21.522 39.5572 21.8146 39.5595C22.0145 39.561 22.2165 39.5344 22.419 39.481C22.6383 39.4232 22.7517 39.2917 22.7579 39.035C22.7859 37.864 22.8217 36.6931 22.8574 35.5221C22.8694 35.1285 22.8814 34.7349 22.8932 34.3413C22.9058 34.3414 22.9351 33.4126 22.9411 32.9481C22.946 32.5604 22.9522 32.1727 22.9585 31.7849C22.9721 30.9408 22.9857 30.0966 22.9855 29.2525C22.9855 28.8126 22.7917 28.5676 22.3696 28.5068C22.2822 28.4942 22.1926 28.488 22.1023 28.4873C21.8741 28.4855 21.6406 28.5189 21.4226 28.574C21.0621 28.6652 20.8619 28.957 20.8172 29.3415C20.8087 29.415 20.7996 29.4884 20.7905 29.562C20.7588 29.818 20.727 30.0744 20.7205 30.3313C20.6554 32.8631 20.5946 35.3952 20.5458 37.9274C20.5391 38.2745 20.5795 38.6292 20.6514 38.9685C20.6836 39.1202 20.821 39.3039 20.9571 39.3666ZM47.9901 39.6667C47.9992 39.6671 48.0083 39.6673 48.0172 39.6674C48.4689 39.6709 48.8024 39.2801 48.8171 38.7235C48.8304 38.2168 48.4794 37.8543 47.9654 37.8442L47.9563 37.844C47.5088 37.8405 47.1669 38.2341 47.1498 38.7747C47.1338 39.2825 47.4753 39.645 47.9901 39.6667ZM26.2297 39.398C26.3074 39.4079 26.3791 39.4133 26.4451 39.4138C26.8745 39.4172 27.0584 39.2139 27.0771 38.6919C27.0956 38.1717 27.1017 37.6509 27.1053 37.1301C27.1063 36.9929 27.1071 36.8557 27.1079 36.7185C27.1085 36.6042 27.1092 36.49 27.11 36.3758C27.1111 36.2284 27.1123 36.0812 27.114 35.9339L27.115 35.8175V35.8128C27.1153 35.7766 27.1155 35.7417 27.1156 35.7107C27.1157 35.6904 27.1159 35.6719 27.116 35.6556C27.3127 35.9075 27.5092 36.1597 27.7058 36.412C28.2691 37.135 28.8329 37.8584 29.4022 38.5773C29.5454 38.7581 29.7213 38.9142 29.8941 39.0676L29.8981 39.0711C30.0088 39.1694 30.1216 39.2072 30.2344 39.2081C30.3904 39.2093 30.5466 39.14 30.6976 39.0624C30.8947 38.961 30.9922 38.7938 30.9937 38.5939C30.994 38.5448 30.9886 38.4937 30.9775 38.4411C30.9392 38.2602 30.885 38.0638 30.7789 37.9202C30.3078 37.2821 29.8232 36.6544 29.3387 36.0268C29.2725 35.9411 29.2063 35.8554 29.1402 35.7696C28.84 35.3805 28.5373 34.9934 28.2346 34.6063C28.0996 34.4335 27.9645 34.2608 27.8296 34.0878C27.86 34.0517 27.8873 34.0197 27.9123 33.9904C27.9603 33.9341 28.0002 33.8874 28.0385 33.8393C28.2262 33.6029 28.4141 33.3666 28.6019 33.1303C29.348 32.1916 30.0942 31.2529 30.8357 30.3105C30.956 30.1574 31.0559 29.9812 31.1358 29.8019C31.2003 29.6569 31.233 29.5261 31.2338 29.4076C31.2356 29.1493 31.0862 28.9502 30.7859 28.7936C30.6562 28.7259 30.5404 28.6897 30.4309 28.6889C30.2438 28.6874 30.0751 28.7891 29.8868 29.0132C29.5696 29.3909 29.2612 29.7764 28.9528 30.1619C28.8274 30.3187 28.7019 30.4755 28.5759 30.6318C28.2569 31.0272 27.9381 31.4228 27.6194 31.8184C27.4803 31.9909 27.3412 32.1635 27.2022 32.336L27.1221 32.3022C27.1225 32.2345 27.1231 32.1668 27.1236 32.0991C27.1242 32.0315 27.1247 31.9639 27.1252 31.8964C27.1258 31.8152 27.1263 31.7341 27.1265 31.6529C27.1266 31.607 27.1268 31.5611 27.127 31.5152C27.1272 31.4852 27.1274 31.4552 27.1276 31.4252C27.1282 31.3366 27.129 31.248 27.1298 31.1593C27.1308 31.0582 27.1317 30.957 27.1324 30.8558C27.1348 30.5142 27.1348 30.1726 27.1236 29.8315C27.1146 29.5615 27.0658 29.2822 26.9775 29.0283C26.8754 28.735 26.6588 28.6067 26.3278 28.6042C26.2656 28.6037 26.1994 28.6076 26.1292 28.6157C25.7491 28.6597 25.4676 28.8857 25.4205 29.2162C25.413 29.2684 25.4054 29.3207 25.3977 29.373C25.3491 29.7054 25.3003 30.0398 25.2972 30.3735C25.2929 30.8445 25.289 31.3156 25.2857 31.7867C25.2738 33.4692 25.2687 35.1517 25.2703 36.8341C25.2709 37.3834 25.3115 37.9339 25.3595 38.4814C25.4174 39.1427 25.5976 39.3181 26.2297 39.398ZM10.352 37.8007C10.3388 38.2573 10.3235 38.7899 10.3415 39.2618C10.7778 39.24 11.2106 39.2212 11.6407 39.2026C12.6512 39.1588 13.6471 39.1157 14.6401 39.0343C15.5194 38.9622 16.3506 38.6455 17.1223 38.1992C18.0804 37.645 18.2701 36.6924 17.5937 35.804C17.3851 35.5302 17.1353 35.2822 16.8745 35.0591C16.616 34.8381 16.3511 34.625 16.0861 34.4119C15.7551 34.1457 15.4242 33.8796 15.1062 33.5981C14.7712 33.3015 14.7849 33.1671 15.1504 32.9111C15.441 32.7076 15.7432 32.5216 16.0454 32.3355C16.2499 32.2096 16.4544 32.0838 16.6554 31.9524C17.5912 31.3408 18.5182 30.7181 19.2494 29.8385C19.6554 29.3501 19.6969 28.8105 19.4819 28.2416C19.216 27.5379 18.6715 27.1045 18.0403 26.7729C17.3071 26.3877 16.5178 26.2029 15.706 26.1048C15.2381 26.0483 14.7728 26.0169 14.3099 26.0133C13.1079 26.0039 11.9235 26.1824 10.7604 26.5972C10.5571 26.6698 10.5051 26.7779 10.5046 26.9891C10.5024 28.0046 10.4901 29.0203 10.4666 30.0355C10.4361 31.3497 10.4236 32.6097 10.4111 33.8721C10.3995 35.0341 10.388 36.1981 10.3624 37.4079C10.3598 37.5292 10.356 37.6614 10.352 37.8007ZM12.4244 34.2877C12.4305 34.1128 12.4849 34.0444 12.6497 34.0457C12.6565 34.0457 12.6635 34.0458 12.6707 34.0461C13.2661 34.0702 13.8277 34.1856 14.2676 34.6395C14.9395 35.3326 14.7662 36.6364 13.9437 37.1306C13.4539 37.4248 12.9186 37.5274 12.3205 37.5692C12.3213 37.4458 12.3213 37.327 12.3212 37.2113C12.3211 36.9661 12.321 36.735 12.3297 36.5043C12.3425 36.159 12.3585 35.8139 12.3744 35.4688C12.3926 35.0751 12.4108 34.6815 12.4244 34.2877ZM12.7467 27.6709C12.9234 27.6581 13.0985 27.6507 13.2718 27.652C13.7118 27.6555 14.1401 27.7153 14.5541 27.8852C15.5041 28.2749 15.9072 29.6125 15.3672 30.5563C14.9351 31.3115 14.2522 31.7506 13.5019 32.0964C13.3052 32.1871 13.101 32.2607 12.8824 32.3395C12.7779 32.3772 12.67 32.4161 12.5582 32.4586C12.5378 30.8274 12.5313 29.2516 12.7467 27.6709ZM41.8315 39.4519C41.8469 39.4524 41.8629 39.4527 41.8797 39.4528C42.1933 39.4553 42.7201 39.3904 43.127 39.3301C44.7619 39.0878 45.5235 37.266 44.5509 35.8851C44.2687 35.4844 43.9018 35.1384 43.5387 34.8078C43.2479 34.543 42.9466 34.2905 42.6452 34.0379C42.3455 33.7867 42.0457 33.5354 41.7564 33.2722C41.3193 32.8743 40.9464 32.4113 40.7308 31.8404C40.4551 31.1108 40.8098 30.4166 41.5551 30.2505C41.8052 30.1948 42.0674 30.1847 42.3249 30.178C42.4069 30.1758 42.489 30.1756 42.5711 30.1762C42.6597 30.1769 42.7484 30.1786 42.8371 30.1805C42.9259 30.1823 43.0148 30.1841 43.1036 30.1848C43.2134 30.1856 43.3232 30.1848 43.4328 30.1801C43.846 30.1624 44.011 30.0151 44.1093 29.6369C44.2001 29.2872 44.1237 29.0641 43.7939 28.8386C43.6354 28.7302 43.4542 28.6414 43.2711 28.5887C42.9369 28.4926 42.6049 28.4486 42.2751 28.4461C41.6928 28.4415 41.1176 28.5661 40.5497 28.7609C39.0637 29.2707 38.3719 31.1962 39.1923 32.5649C39.7712 33.531 40.4383 34.4248 41.3484 35.0998C41.6626 35.3328 41.9691 35.5806 42.2564 35.8473C42.5018 36.075 42.7338 36.3246 42.9332 36.5945C43.0213 36.7138 43.0674 36.9181 43.0396 37.0652C42.9664 37.4523 42.5722 37.7725 42.1818 37.7999C42.0683 37.8079 41.9539 37.8123 41.8396 37.8114C41.7418 37.8107 41.644 37.8059 41.5471 37.7963C41.3038 37.772 41.0611 37.7413 40.8185 37.7106C40.5848 37.681 40.351 37.6514 40.1168 37.6275C40.0738 37.6232 40.0307 37.6201 39.9881 37.6198C39.8193 37.6184 39.6591 37.6603 39.5513 37.8367C39.2593 38.3142 39.4134 38.9342 39.9332 39.0967C40.5451 39.2878 41.526 39.4414 41.8315 39.4519ZM33.4815 39.2857C33.8128 39.2896 34.144 39.2933 34.4753 39.2959C34.9198 39.2994 35.3645 39.3009 35.809 39.2984C36.1346 39.2966 36.4602 39.2838 36.8047 39.2701C36.9656 39.2638 37.1308 39.2572 37.302 39.2516C37.2892 39.1161 37.2771 38.9856 37.2654 38.8588C37.2358 38.5399 37.2083 38.2439 37.1781 37.9482C37.1599 37.7707 37.0642 37.6991 36.8846 37.6977H36.8797C36.7578 37.6977 36.6358 37.6971 36.5139 37.6961C36.0539 37.6925 35.5938 37.6828 35.1341 37.667C34.9341 37.6601 34.7346 37.6395 34.5279 37.6183C34.4323 37.6084 34.3351 37.5984 34.2357 37.5895L34.258 34.4171C34.375 34.4088 34.4903 34.4011 34.6041 34.3936C34.9281 34.372 35.2408 34.3511 35.5524 34.319C35.6406 34.3101 35.7907 34.2308 35.7945 34.1752C35.8128 33.9094 35.8128 33.6421 35.8128 33.3585C35.8128 33.2626 35.8128 33.1648 35.8135 33.0645L34.2906 33.0526C34.2923 32.8006 34.2942 32.5519 34.2961 32.3053C34.301 31.6773 34.3057 31.0641 34.3072 30.4509C34.3078 30.2121 34.4186 30.1037 34.6446 30.1054C34.7162 30.1062 34.7878 30.1071 34.8594 30.108C34.9787 30.1096 35.0979 30.1111 35.2172 30.112C35.3312 30.1128 35.4452 30.1132 35.5591 30.1125C35.6421 30.1119 35.7253 30.1124 35.8085 30.1131L35.8808 30.1137C35.897 30.1138 35.9132 30.1139 35.9294 30.1141C35.9375 30.1142 35.9456 30.1142 35.9537 30.1143C36.2287 30.1164 36.5037 30.1162 36.7756 30.0868C37.1556 30.0456 37.3444 29.6796 37.3222 29.1417C37.3085 28.8095 37.1645 28.6685 36.746 28.637C36.0926 28.5877 35.438 28.5388 34.7833 28.5272L34.7291 28.5264C34.3777 28.5237 34.0255 28.5538 33.6741 28.5839C33.5933 28.5908 33.5127 28.5977 33.4321 28.6042C33.1262 28.6288 32.9477 28.8076 32.9116 29.1258C32.8859 29.3516 32.8555 29.5771 32.8251 29.8027C32.758 30.3009 32.6908 30.799 32.6753 31.2989C32.6325 32.6724 32.6196 34.047 32.6066 35.4216C32.6031 35.793 32.5997 36.1645 32.5956 36.5359C32.5949 36.5984 32.5942 36.6609 32.5934 36.7234C32.5868 37.2964 32.5801 37.8702 32.6099 38.4417C32.6432 39.0851 32.8639 39.2785 33.4815 39.2857ZM47.596 36.4868C47.6563 36.7493 47.8263 36.9469 48.1163 36.9492H48.1222C48.4189 36.9488 48.5298 36.7143 48.5995 36.4729C48.6779 36.2012 48.7535 35.9232 48.782 35.6428C48.7966 35.4988 48.8117 35.3515 48.8269 35.2022C48.9843 33.6611 49.164 31.9014 49.1649 31.2473C49.165 31.159 49.1654 31.0647 49.1659 30.966C49.1691 30.2629 49.1733 29.3377 49.0795 28.7681C49.019 28.4013 48.8202 28.2285 48.5039 28.226C48.4421 28.2256 48.3758 28.2316 48.3052 28.2439C48.0305 28.2919 47.7625 28.3853 47.4958 28.4781C47.4404 28.4974 47.3851 28.5167 47.3298 28.5355C47.0003 28.6476 46.8096 28.9081 46.7624 29.2458C46.7116 29.6089 46.6714 29.9829 46.6993 30.3463C46.7058 30.4316 46.7123 30.5168 46.7188 30.6021C46.8007 31.6792 46.8829 32.7582 47.0331 33.8262C47.1319 34.5281 47.2965 35.2208 47.461 35.9126C47.5064 36.104 47.5519 36.2954 47.596 36.4868ZM27.4345 23.3362C27.973 23.436 28.5127 23.4838 29.0532 23.488C29.4698 23.4913 29.887 23.4686 30.3042 23.424C30.5559 23.3971 30.8124 23.318 31.0434 23.2102C31.4179 23.0356 31.4774 22.6565 31.194 22.3502C31.0949 22.2431 30.9692 22.1329 30.8362 22.0937C30.7694 22.074 30.7026 22.0539 30.6356 22.0338C30.2524 21.9184 29.8661 21.8022 29.4736 21.7572C28.4675 21.6421 28.2653 21.4201 28.4187 20.3885C28.4932 19.8875 28.5745 19.3874 28.6558 18.8873C28.7889 18.0688 28.922 17.2503 29.0253 16.4278C29.1108 15.7467 29.1074 15.0474 29.0766 14.3595C29.0577 13.9359 28.7684 13.6832 28.3901 13.6698C28.3737 13.6692 28.3573 13.6688 28.3409 13.6687C27.7898 13.6644 27.3253 13.9187 26.9056 14.2739C26.5796 14.5499 26.581 14.9313 26.5824 15.3131L26.5824 15.3148C26.5826 15.3698 26.5854 15.4248 26.5883 15.4797C26.5913 15.5385 26.5944 15.5973 26.5942 15.6561C26.5936 15.7891 26.5945 15.9221 26.5953 16.0552C26.5975 16.3867 26.5996 16.7182 26.5796 17.0483C26.5348 17.787 26.4889 18.3963 26.4274 19.2114C26.4046 19.5143 26.3796 19.8455 26.3518 20.2224C26.3683 20.3837 26.3657 20.6269 26.3627 20.9097C26.358 21.3464 26.3524 21.8778 26.4145 22.3487C26.4828 22.8661 26.9276 23.2422 27.4345 23.3362ZM47.5596 21.9532C48.2644 23.0243 49.1866 23.6293 50.302 23.6388C51.1878 23.6331 52.2149 23.4338 52.7236 23.0869C53.9014 22.2834 54.4901 21.1211 54.4591 19.6724C54.4371 18.6416 54.0785 17.6794 53.6259 16.7777C53.238 16.005 52.6576 15.3647 51.7901 15.1572C51.433 15.0718 51.0839 15.0271 50.7447 15.0245C49.5147 15.0149 48.4164 15.5581 47.5556 16.7169C46.4396 18.2192 46.6027 20.499 47.5596 21.9532ZM49.6443 17.5058C50.0432 17.1877 50.4716 17.0351 50.8791 17.0383C51.5216 17.0433 52.1118 17.4362 52.4501 18.1799C52.6109 18.5143 52.7278 19.0222 52.7688 19.2019C52.8053 19.3627 52.8082 19.5183 52.8116 19.7044C52.812 19.7262 52.8124 19.7484 52.8129 19.7711C52.8779 21.0656 51.6874 21.8381 50.6044 21.8296C50.5435 21.8291 50.4829 21.8261 50.4229 21.8207C49.499 21.7366 48.7252 20.8553 48.6748 19.8926C48.625 18.9392 48.8879 18.1088 49.6443 17.5058ZM40.122 23.5381C40.2241 23.545 40.3255 23.5488 40.4265 23.5496C41.2961 23.5564 42.124 23.34 42.9135 22.9588C43.7015 22.5783 44.3705 22.0597 44.6652 21.1634C45.0519 19.9873 45.1113 18.7897 44.8917 17.5731C44.7598 16.8421 44.5453 16.1484 43.9564 15.6588C42.9028 14.783 41.6431 14.5466 40.3068 14.4313L39.9647 23.5144C39.9976 23.5194 40.0231 23.5237 40.044 23.5272C40.0783 23.533 40.1001 23.5366 40.122 23.5381ZM41.575 16.4697C41.6549 16.4578 41.7354 16.4525 41.8157 16.4531C42.4336 16.4579 43.0409 16.8218 43.282 17.4124C43.4635 17.8568 43.5664 18.3498 43.618 18.8308C43.6485 19.1149 43.6193 19.4056 43.5901 19.6964C43.5773 19.8234 43.5646 19.9504 43.5568 20.0768C43.5265 20.5694 43.2518 20.9217 42.9065 21.22C42.5135 21.5595 42.0294 21.6769 41.5377 21.7839L41.575 16.4697ZM13.4914 23.3188C13.5382 23.3289 13.5866 23.3339 13.6358 23.3343C14.0497 23.3375 14.5199 23.0111 14.6087 22.6019C14.6786 22.2806 14.7119 21.9479 14.7314 21.6184C14.8448 19.6951 14.9001 17.887 14.9612 15.8901C14.9705 15.5873 14.9799 15.2802 14.9897 14.9677C15.0491 14.5132 15.083 14.0552 15.1175 13.5906C15.1334 13.3762 15.1494 13.1604 15.1681 12.9428C15.4478 12.9261 15.7243 12.9095 15.9987 12.893C16.6338 12.8548 17.257 12.8173 17.8802 12.7816C18.2112 12.7627 18.5424 12.7455 18.8736 12.7284C19.4916 12.6964 20.1095 12.6645 20.7267 12.6207C21.429 12.5709 22.0915 12.3717 22.6441 11.8995C23.0761 11.5304 23.0362 10.9513 22.566 10.6287C22.4532 10.5512 22.3219 10.4747 22.1913 10.4568C22.0569 10.4383 21.9222 10.4173 21.7875 10.3962C21.4075 10.3368 21.0265 10.2773 20.6475 10.2743C20.605 10.274 20.5628 10.2744 20.5205 10.2755C20.0442 10.2886 19.5679 10.2924 19.0924 10.2887C17.3515 10.2751 15.6157 10.1608 13.8783 10.0328C12.9328 9.96303 11.9832 9.9285 11.0347 9.92108C10.848 9.91962 10.6615 9.91923 10.475 9.91982C9.72541 9.92217 8.68786 10.2229 8.3214 10.4717C7.95501 10.7204 7.76941 10.966 7.80911 11.3983C7.83985 11.7325 7.91902 11.9995 8.00056 12.2746C8.02453 12.3554 8.0487 12.437 8.07191 12.5211C8.14992 12.8039 8.35246 12.9263 8.62504 12.9284C8.63768 12.9285 8.65047 12.9283 8.66334 12.9279C8.88772 12.9207 9.1121 12.9139 9.33648 12.9071C9.8317 12.892 10.3269 12.8769 10.8221 12.8582C10.9331 12.8541 11.0631 12.853 11.203 12.8541C11.9534 12.8599 12.9946 12.9291 12.9946 12.9291C12.9946 12.9291 12.9963 13.9658 12.9822 14.4765C12.9607 15.255 12.9375 16.0334 12.9143 16.8119C12.8688 18.3378 12.8233 19.8638 12.7908 21.39C12.7815 21.8292 12.857 22.2757 12.9389 22.7097C12.9948 23.0061 13.1698 23.2495 13.4914 23.3188ZM36.4716 23.4785C36.4806 23.4788 36.4896 23.4791 36.4987 23.4791C36.7135 23.4808 36.9367 23.4078 37.1453 23.3381C37.4813 23.2257 37.4484 22.9617 37.4134 22.6804C37.4033 22.5988 37.3929 22.5157 37.3914 22.4344C37.4596 22.238 37.1871 22.1588 36.9693 22.0955C36.9161 22.0801 36.8662 22.0656 36.8253 22.0505C36.542 21.9463 36.236 21.8916 35.9353 21.8571C35.6449 21.8239 35.3525 21.8093 35.0533 21.7943C34.922 21.7877 34.7894 21.7811 34.6551 21.7728C34.6563 21.6038 34.6582 21.4363 34.6601 21.2699C34.6649 20.8593 34.6695 20.4556 34.6626 20.052C34.6588 19.8269 34.7449 19.7572 34.9495 19.7465C35.022 19.7429 35.1022 19.7426 35.1853 19.7433L35.2689 19.7441C35.2782 19.7442 35.2876 19.7443 35.297 19.7444C35.3157 19.7447 35.3346 19.7449 35.3534 19.745C35.6058 19.747 35.8523 19.7411 35.9563 19.6577C36.1181 19.5275 36.0722 18.7454 35.9644 18.504C35.9284 18.4235 35.8119 18.3959 35.6547 18.3947C35.4978 18.3935 35.3006 18.4185 35.103 18.4436C34.9044 18.4689 34.7054 18.4942 34.5464 18.4929L34.5622 16.2345C34.6459 16.2352 34.7276 16.2349 34.8079 16.2346C34.8873 16.2343 34.9654 16.2341 35.0427 16.2347C35.1373 16.2354 35.2306 16.2374 35.3238 16.2424C35.5059 16.2521 35.6878 16.2665 35.8697 16.2808C36.1206 16.3006 36.3713 16.3204 36.6225 16.328C36.6443 16.3287 36.6654 16.3291 36.6859 16.3293C37.1786 16.3331 37.3008 16.1875 37.344 15.6467C37.3467 15.6119 37.347 15.5769 37.3473 15.5419C37.3474 15.5294 37.3475 15.517 37.3477 15.5045C37.3554 15.0275 37.2721 14.8992 36.8184 14.8464C36.1494 14.7683 35.4771 14.7175 34.8052 14.6676C34.6569 14.6565 34.5078 14.6508 34.3586 14.6497C34.222 14.6486 34.0854 14.6513 33.9491 14.6573C33.7 14.6683 33.371 14.891 33.297 15.1362C33.1723 15.5486 33.1368 15.8775 33.1174 16.3013C33.0671 17.4068 33.0502 18.5139 33.0333 19.6209C33.0292 19.8891 33.0251 20.1573 33.0206 20.4255C33.0089 21.1265 32.9983 21.8281 33.0151 22.5288C33.0265 23.0096 33.2016 23.2614 33.6605 23.3086C34.5938 23.4047 35.5336 23.443 36.4716 23.4785ZM18.4765 22.0468C19.1077 22.7433 19.8208 23.2476 20.7363 23.2548C20.8801 23.2559 21.029 23.2447 21.1832 23.2201C22.3599 23.0325 23.3084 22.4829 23.8969 21.3821C24.3365 20.5598 24.5411 19.6725 24.5598 18.5209C24.5521 18.4394 24.5474 18.3404 24.5422 18.2296C24.5286 17.9383 24.511 17.565 24.4243 17.2095C24.0801 15.7987 23.2476 14.8692 21.8156 14.549C21.4539 14.4681 21.0987 14.4123 20.7527 14.4096C20.1736 14.4051 19.6201 14.5493 19.1041 14.9735C18.597 15.3903 18.2323 15.922 17.9355 16.5081C17.0498 18.2577 17.1618 20.5958 18.4765 22.0468ZM20.2136 16.4816C20.5432 16.2839 20.8902 16.1872 21.2379 16.1899C21.5948 16.1927 21.9524 16.3004 22.2921 16.5113C22.5062 16.6442 22.6804 16.9244 22.7696 17.1757C23.0617 17.9994 23.1208 18.8592 22.9808 19.7238C22.828 20.667 21.8874 21.3493 20.9307 21.3419C20.865 21.3413 20.7992 21.3376 20.7336 21.3304C19.6117 21.2079 19.2601 20.4903 19.0248 19.3217C19.0078 19.2379 19.0066 19.1507 19.0051 19.0418C19.0043 18.984 19.0034 18.9202 19.0001 18.8474C19.0512 17.9233 19.3256 17.0141 20.2136 16.4816Z" fill="currentColor"/>
</svg>