<svg width="106" height="23" viewBox="0 0 106 23" fill="none" xmlns="http://www.w3.org/2000/svg">
<g clip-path="url(#clip0_208_130)">
<path d="M0.672345 0.0341797C0.56516 0.0341797 0.478638 0.120961 0.478638 0.227887V2.57149C0.478638 2.67867 0.56516 2.7652 0.672345 2.7652H4.19395V14.3086C4.19395 14.4155 4.28047 14.5023 4.38765 14.5023H7.29688C7.40381 14.5023 7.49059 14.4155 7.49059 14.3086V2.7652H11.0321C11.139 2.7652 11.2258 2.67867 11.2258 2.57149V0.227887C11.2258 0.120961 11.139 0.0341797 11.0321 0.0341797H0.672345Z" fill="currentColor"/>
<path d="M18.5084 13.386L18.6042 14.3282C18.6143 14.4271 18.6974 14.5023 18.7969 14.5023H21.3326C21.3856 14.5023 21.4362 14.4806 21.4729 14.4423C21.5093 14.4041 21.5287 14.3525 21.5264 14.2998C21.4871 13.4415 21.4282 12.4009 21.4282 11.1958V4.10972C21.4282 4.00254 21.3414 3.91602 21.2345 3.91602H18.325C18.2181 3.91602 18.1313 4.00254 18.1313 4.10972V10.39C18.1313 11.4228 17.3808 12.1008 16.5362 12.1008C15.4437 12.1008 15.0588 11.187 15.0588 9.78587V4.10972C15.0588 4.00254 14.9723 3.91602 14.8651 3.91602H11.9559C11.849 3.91602 11.7622 4.00254 11.7622 4.10972V10.1888C11.7622 11.7782 12.1401 12.8984 12.7785 13.6239C13.4289 14.3628 14.3522 14.7037 15.455 14.7037C16.9675 14.7037 17.9546 14.0177 18.5084 13.386ZM18.5402 13.0378L18.5394 13.0391L18.5417 13.0412L18.5402 13.0378Z" fill="currentColor"/>
<path d="M23.1019 3.91602C22.995 3.91602 22.9082 4.00254 22.9082 4.10972V6.10543C22.9082 6.21235 22.995 6.29913 23.1019 6.29913H24.3434V10.8112C24.3434 11.5241 24.3765 12.7653 25.1054 13.6466C25.5982 14.2424 26.4055 14.6854 27.7413 14.6854C28.6161 14.6854 29.3481 14.5867 29.7551 14.4351C29.8321 14.4064 29.8827 14.332 29.8812 14.2499L29.8419 12.1809C29.8406 12.124 29.8145 12.0703 29.7706 12.0344C29.7264 11.9985 29.6686 11.9835 29.6125 11.9941C29.329 12.0471 29.1019 12.0825 28.7044 12.0825C28.4048 12.0825 28.1667 12.02 27.9916 11.8699C27.7137 11.632 27.6008 11.1966 27.6008 10.5367V6.29913H29.8251C29.932 6.29913 30.0188 6.21235 30.0188 6.10543V4.10972C30.0188 4.00254 29.932 3.91602 29.8251 3.91602H27.6008V1.45464C27.6008 1.39421 27.5727 1.33713 27.5246 1.30045C27.4766 1.26403 27.4141 1.2519 27.356 1.26791L24.4858 2.05513C24.4016 2.07812 24.3434 2.15483 24.3434 2.24187V3.91602H23.1019Z" fill="currentColor"/>
<path d="M36.4525 3.69629C34.9134 3.69629 33.5693 4.20329 32.6086 5.15039C31.6496 6.09594 31.069 7.48237 31.069 9.25492C31.069 10.9714 31.6243 12.3305 32.5559 13.2623C33.4895 14.196 34.8042 14.7038 36.3345 14.7038C37.8531 14.7038 39.4581 14.1384 40.5005 12.8186C41.1926 11.9425 41.6395 10.7323 41.6395 9.12681C41.6395 7.52446 41.1361 6.17058 40.2404 5.21547C39.3416 4.25701 38.0458 3.69629 36.4525 3.69629ZM38.3033 9.18157C38.3033 10.0496 38.1282 10.8482 37.7847 11.4291C37.4629 11.973 36.991 12.3204 36.374 12.3204C35.7376 12.3204 35.2546 11.9779 34.9276 11.4366C34.5797 10.8609 34.4051 10.0672 34.4051 9.1999C34.4051 8.454 34.5387 7.65928 34.8682 7.05156C35.1784 6.48025 35.6671 6.07941 36.3936 6.07941C37.0636 6.07941 37.5311 6.46811 37.8353 7.02883C38.1602 7.62777 38.3033 8.4181 38.3033 9.18157Z" fill="currentColor"/>
<path d="M46.3741 5.28676L46.2951 4.09688C46.2884 3.99512 46.2037 3.91608 46.1019 3.91608H43.6051C43.5524 3.91608 43.5018 3.93752 43.4654 3.97574C43.4287 4.01371 43.4094 4.06511 43.4117 4.11805C43.4509 5.03106 43.4902 6.0355 43.4902 7.29563V14.3086C43.4902 14.4155 43.577 14.5023 43.6839 14.5023H46.5931C46.7003 14.5023 46.7868 14.4155 46.7868 14.3086V9.03512C46.7868 8.22775 47.0118 7.62984 47.3974 7.23674C47.7776 6.84933 48.3102 6.66544 48.913 6.66544C49.195 6.66544 49.4208 6.68274 49.6276 6.71761C49.6837 6.72716 49.7413 6.71141 49.7849 6.67473C49.8286 6.6378 49.8536 6.58382 49.8536 6.52674V3.94501C49.8536 3.85151 49.787 3.77145 49.6953 3.7544C49.4879 3.71592 49.3014 3.69629 49.0111 3.69629C48.0689 3.69629 46.9981 4.23221 46.3741 5.28676Z" fill="currentColor"/>
<path d="M51.017 13.3995C50.9947 13.485 51.0335 13.5748 51.1107 13.6174C51.8365 14.0183 53.3877 14.4057 54.9198 14.4057C58.5775 14.4057 60.6176 12.5647 60.6176 10.0902C60.6176 8.2236 59.513 6.89451 56.9984 5.87794C56.0967 5.50524 55.4622 5.21313 55.0543 4.89235C54.6902 4.60592 54.5238 4.29806 54.5238 3.87216C54.5238 3.18437 55.1713 2.55572 56.5513 2.55572C57.752 2.55572 58.6477 2.88244 59.1622 3.12367C59.2139 3.14769 59.2733 3.14795 59.3249 3.12445C59.3766 3.10094 59.4153 3.05575 59.4308 3.00099L60.0404 0.851358C60.0665 0.759153 60.0213 0.661524 59.9337 0.622008C59.2085 0.294255 58.0808 -0.0169678 56.6105 -0.0169678C53.2118 -0.0169678 51.2073 1.80724 51.2073 4.13844C51.2073 5.98615 52.6547 7.339 55.0259 8.26286C55.6763 8.51881 56.1807 8.76236 56.5508 9.02477C57.0601 9.3861 57.3013 9.77972 57.3013 10.3032C57.3013 11.2248 56.5046 11.8152 55.0378 11.8152C53.8536 11.8152 52.6309 11.489 51.8669 11.0747C51.8145 11.0463 51.752 11.0435 51.6973 11.0672C51.6425 11.091 51.602 11.1388 51.587 11.1964L51.017 13.3995Z" fill="currentColor"/>
<path d="M71.4273 5.2643C70.9125 4.33244 69.891 3.74951 68.5821 3.74951C67.1027 3.74951 66.1471 4.39055 65.5675 5.04632L65.4722 4.13615C65.4619 4.03749 65.3787 3.96259 65.2795 3.96259H62.8026C62.7497 3.96259 62.6991 3.98428 62.6627 4.02251C62.626 4.06073 62.6069 4.11213 62.6092 4.16508C62.6485 5.03314 62.6875 5.97198 62.6875 7.12337V14.0343C62.6875 14.1413 62.7742 14.228 62.8812 14.228H65.7318C65.8387 14.228 65.9255 14.1413 65.9255 14.0343V8.08261C65.9255 6.88679 66.7579 6.26874 67.4813 6.26874C68.5038 6.26874 68.8406 7.13758 68.8406 8.18928V14.0343C68.8406 14.1413 68.9272 14.228 69.0343 14.228H71.8847C71.9916 14.228 72.0784 14.1413 72.0784 14.0343V8.02941C72.0784 6.78943 72.8736 6.26874 73.595 6.26874C74.6454 6.26874 74.9936 7.1505 74.9936 8.438V14.0343C74.9936 14.1413 75.0801 14.228 75.1873 14.228H78.0376C78.1445 14.228 78.2313 14.1413 78.2313 14.0343V8.02941C78.2313 6.53786 77.838 5.47531 77.2049 4.78287C76.5616 4.07881 75.6671 3.74951 74.6565 3.74951C73.4547 3.74951 72.3436 4.16069 71.4273 5.2643Z" fill="currentColor"/>
<path d="M86.4166 13.3744L86.5354 14.0671C86.5515 14.1601 86.632 14.228 86.7263 14.228H89.3408C89.3987 14.228 89.4537 14.202 89.4904 14.1573C89.5273 14.1126 89.542 14.054 89.5309 13.9971C89.415 13.4026 89.3773 12.5459 89.3773 11.6892V8.06479C89.3773 6.93251 89.1288 5.85808 88.4431 5.06465C87.7584 4.27175 86.6341 3.74951 84.859 3.74951C83.1071 3.74951 81.7183 4.20718 80.9732 4.6075C80.8908 4.65167 80.8518 4.74852 80.8805 4.83763L81.4311 6.54329C81.4487 6.5983 81.4903 6.64247 81.544 6.6639C81.5977 6.68508 81.6584 6.68121 81.709 6.65331C82.3919 6.27597 83.3408 6.0022 84.3086 6.0022C85.0315 6.0022 85.4825 6.15665 85.748 6.43713C85.9688 6.6701 86.0545 6.98391 86.0752 7.33955C84.3809 7.36176 82.9268 7.67144 81.8841 8.2771C80.7627 8.92847 80.1046 9.91767 80.1046 11.2628C80.1046 12.9607 81.4311 14.4233 83.581 14.4233C84.7288 14.4233 85.7415 14.0434 86.4166 13.3744ZM86.3676 13.1464L86.3758 13.1373L86.3802 13.1629C86.3745 13.159 86.3691 13.1549 86.364 13.1503L86.3676 13.1464ZM86.5685 13.1603L86.5757 13.1567L86.5742 13.1479L86.5685 13.1603ZM86.4267 13.0803C86.4303 13.0883 86.4342 13.096 86.4378 13.1035L86.4197 13.0883L86.4267 13.0803ZM86.1591 10.6408C86.1591 11.7641 85.1374 12.1528 84.5248 12.1528C84.1495 12.1528 83.7956 12.0335 83.5748 11.7574C83.4276 11.573 83.3424 11.3206 83.3424 10.9962C83.3424 10.364 83.7073 9.97811 84.2386 9.74592C84.7719 9.51269 85.4644 9.42772 86.1591 9.41506V10.6408Z" fill="currentColor"/>
<path d="M94.6651 5.27799L94.5861 4.1253C94.5791 4.0238 94.4947 3.94477 94.3929 3.94477H91.8964C91.8434 3.94477 91.7928 3.96646 91.7564 4.00469C91.7197 4.04291 91.7006 4.09431 91.7029 4.147C91.7419 5.03289 91.7812 6.00736 91.7812 7.22978V14.0343C91.7812 14.1413 91.868 14.228 91.9749 14.228H94.8844C94.9913 14.228 95.0781 14.1413 95.0781 14.0343V8.91762C95.0781 8.13685 95.3023 7.55883 95.6866 7.17891C96.067 6.80234 96.6004 6.62413 97.204 6.62413C97.4865 6.62413 97.7125 6.64065 97.9197 6.67475C97.9757 6.68405 98.033 6.66803 98.0764 6.63136C98.1198 6.59442 98.1446 6.54045 98.1446 6.48363V3.9786C98.1446 3.88485 98.0777 3.80478 97.9855 3.78799C97.7784 3.75054 97.5922 3.73169 97.3024 3.73169C96.3594 3.73169 95.2889 4.25341 94.6651 5.27799Z" fill="currentColor"/>
<path d="M99.3862 3.94474C99.279 3.94474 99.1925 4.03152 99.1925 4.13845V6.07501C99.1925 6.18193 99.279 6.26871 99.3862 6.26871H100.627V10.6408C100.627 11.334 100.661 12.541 101.391 13.3979C101.884 13.9757 102.691 14.4057 104.025 14.4057C104.899 14.4057 105.631 14.3102 106.037 14.1632C106.115 14.1348 106.167 14.0601 106.165 13.9772L106.126 11.9697C106.125 11.9128 106.099 11.8594 106.055 11.8235C106.011 11.7876 105.954 11.7726 105.898 11.7827C105.614 11.8341 105.386 11.8684 104.989 11.8684C104.688 11.8684 104.449 11.808 104.274 11.662C103.997 11.4322 103.885 11.0114 103.885 10.3745V6.26871H106.109C106.216 6.26871 106.303 6.18193 106.303 6.07501V4.13845C106.303 4.03152 106.216 3.94474 106.109 3.94474H103.885V1.5624C103.885 1.50222 103.857 1.44566 103.809 1.40898C103.762 1.37231 103.699 1.35991 103.641 1.37515L100.771 2.13913C100.686 2.16186 100.627 2.23857 100.627 2.32638V3.94474H99.3862Z" fill="currentColor"/>
<path d="M25.5024 19.6397V20.1658H26.4463V21.5644C26.1675 21.6264 25.8994 21.6574 25.6418 21.6574C24.5956 21.6574 24.0728 21.0287 24.0728 19.7712C24.0728 19.1789 24.2148 18.7164 24.4988 18.384C24.7828 18.0513 25.1799 17.885 25.6896 17.885C26.0455 17.885 26.417 17.9749 26.8048 18.1546L27.0914 17.635C26.6825 17.4511 26.2231 17.3591 25.7134 17.3591C24.9596 17.3591 24.3676 17.5722 23.9372 17.9989C23.5071 18.4256 23.2921 19.0142 23.2921 19.7647C23.2921 20.5217 23.488 21.1137 23.8795 21.5404C24.2711 21.9668 24.8147 22.1801 25.5105 22.1801C26.1078 22.1801 26.6654 22.1001 27.183 21.9397V19.6397H25.5024Z" fill="currentColor"/>
<path d="M29.4549 20.1785H30.2677L31.51 22.1161H32.2872L30.8783 20.015C31.5619 19.7905 31.9039 19.3713 31.9039 18.7577C31.9039 17.87 31.2887 17.4263 30.0582 17.4263H28.7911V22.1161H29.4549V20.1785ZM29.4549 19.6717V17.9364H30.0192C30.4405 17.9364 30.7458 18.0027 30.9348 18.1352C31.1242 18.2677 31.2189 18.4849 31.2189 18.7864C31.2189 19.0945 31.1231 19.3189 30.9315 19.4599C30.7398 19.6012 30.4415 19.6717 30.0371 19.6717H29.4549Z" fill="currentColor"/>
<path d="M36.1524 22.1161V21.5899H34.0714V19.922H36.0287V19.4023H34.0714V17.9524H36.1524V17.4263H33.4813V22.1161H36.1524Z" fill="currentColor"/>
<path d="M40.9275 22.116H41.6089L39.8874 17.4071H39.1955L37.4811 22.116H38.1554L38.6738 20.6629H40.4164L40.9275 22.116ZM40.2284 20.1337H38.8618L39.373 18.6357C39.4344 18.456 39.4889 18.2602 39.5362 18.0487C39.5907 18.2666 39.664 18.5084 39.7562 18.7736L40.2284 20.1337Z" fill="currentColor"/>
<path d="M44.0498 22.1161V17.9524H45.53V17.4263H41.9025V17.9524H43.386V22.1161H44.0498Z" fill="currentColor"/>
<path d="M49.4236 22.1161V21.5899H47.4249V19.922H49.3047V19.4023H47.4249V17.9524H49.4236V17.4263H46.8583V22.1161H49.4236Z" fill="currentColor"/>
<path d="M51.7741 20.1785H52.5869L53.8292 22.1161H54.6066L53.1975 20.015C53.8814 19.7905 54.2233 19.3713 54.2233 18.7577C54.2233 17.87 53.6081 17.4263 52.3777 17.4263H51.1106V22.1161H51.7741V20.1785ZM51.7741 19.6717V17.9364H52.3384C52.7597 17.9364 53.065 18.0027 53.2543 18.1352C53.4436 18.2677 53.5381 18.4849 53.5381 18.7864C53.5381 19.0945 53.4423 19.3189 53.2507 19.4599C53.059 19.6012 52.761 19.6717 52.3563 19.6717H51.7741Z" fill="currentColor"/>
<path d="M59.5759 22.1161V17.9524H61.0561V17.4263H57.4286V17.9524H58.9121V22.1161H59.5759Z" fill="currentColor"/>
<path d="M63.8068 22.1801C64.495 22.1801 65.0251 21.9706 65.3973 21.5515C65.7696 21.1323 65.956 20.5367 65.956 19.7647C65.956 18.9927 65.7716 18.3976 65.4035 17.9798C65.0351 17.5616 64.5056 17.3527 63.815 17.3527C62.3744 17.3527 61.6541 18.1546 61.6541 19.7582C61.6541 21.373 62.3714 22.1801 63.8068 22.1801ZM63.8068 21.6574C62.903 21.6574 62.4512 21.0264 62.4512 19.7647C62.4512 18.5074 62.9056 17.8788 63.815 17.8788C64.2709 17.8788 64.609 18.0309 64.8287 18.3357C65.0487 18.6404 65.1585 19.1169 65.1585 19.7647C65.1585 20.4063 65.0501 20.8823 64.8328 21.1922C64.6158 21.5024 64.2736 21.6574 63.8068 21.6574Z" fill="currentColor"/>
<path d="M67.6757 22.1161H70.3022V21.5835H68.2732V17.4263H67.6757V22.1161Z" fill="currentColor"/>
<path d="M74.5264 22.1161V21.5899H72.4866V19.922H74.4051V19.4023H72.4866V17.9524H74.5264V17.4263H71.9082V22.1161H74.5264Z" fill="currentColor"/>
<path d="M76.1976 22.1161H77.3842C78.2908 22.1161 78.9843 21.9107 79.4652 21.5001C79.9459 21.0897 80.1866 20.4982 80.1866 19.7262C80.1866 19.0012 79.9545 18.4369 79.4908 18.0327C79.027 17.6285 78.3788 17.4263 77.5456 17.4263H76.1976V22.1161ZM76.9347 17.9364H77.4668C78.7623 17.9364 79.4099 18.5394 79.4099 19.7456C79.4099 20.9838 78.7109 21.6029 77.3133 21.6029H76.9347V17.9364Z" fill="currentColor"/>
<path d="M83.7021 22.1801C84.39 22.1801 84.9201 21.9706 85.2924 21.5515C85.6649 21.1323 85.851 20.5367 85.851 19.7647C85.851 18.9927 85.667 18.3976 85.2985 17.9798C84.9304 17.5616 84.4009 17.3527 83.7101 17.3527C82.2694 17.3527 81.5491 18.1546 81.5491 19.7582C81.5491 21.373 82.2668 22.1801 83.7021 22.1801ZM83.7021 21.6574C82.7983 21.6574 82.3463 21.0264 82.3463 19.7647C82.3463 18.5074 82.801 17.8788 83.7101 17.8788C84.1662 17.8788 84.504 18.0309 84.724 18.3357C84.9437 18.6404 85.0538 19.1169 85.0538 19.7647C85.0538 20.4063 84.9452 20.8823 84.7278 21.1922C84.5108 21.5024 84.1689 21.6574 83.7021 21.6574Z" fill="currentColor"/>
</g>
</svg>
