<svg width="197" height="69" viewBox="0 0 197 69" fill="none" xmlns="http://www.w3.org/2000/svg">
<path fill-rule="evenodd" clip-rule="evenodd" d="M86.0513 49.3252L85.5583 53.6082C85.3045 53.6502 85.3455 53.6457 85.0807 53.6457C82.7913 53.6457 80.8617 52.0236 80.2911 49.8219H78.7474V53.2438L74.2806 53.3092L74.2661 37.9902H74.2806V37.9757L81.7702 37.9253C81.8898 37.9153 82.0104 37.9103 82.1321 37.9103C84.8705 37.9103 87.0939 40.433 87.0939 43.5403C87.0939 45.2428 86.4262 46.77 85.372 47.8029C85.2259 47.8873 85.1078 47.9922 85.0287 48.1105C84.9836 48.1474 84.9381 48.1829 84.892 48.2183H84.9691C84.9351 48.2957 84.9166 48.3776 84.9166 48.4625C84.9166 48.8559 85.5052 49.2128 86.0513 49.3252ZM78.7599 42.2558C78.7599 42.2558 80.7406 42.2408 80.8187 42.2408C81.7131 42.2408 82.4399 42.9213 82.4399 43.7595C82.4399 44.5978 81.7131 45.2782 80.8187 45.2782C80.7155 45.2782 78.7599 45.2518 78.7599 45.2518V42.2558Z" fill="black"/>
<path fill-rule="evenodd" clip-rule="evenodd" d="M99.8108 37.9645L88.8621 37.91V53.3384H93.3624V53.3254H99.7633V48.9844H93.3624V47.4602L96.9963 47.4802L97.3992 43.6185H93.3624V42.3049H99.8108V37.9645Z" fill="black"/>
<path fill-rule="evenodd" clip-rule="evenodd" d="M166.836 49.4001L166.343 53.6832C166.089 53.7251 166.13 53.7206 165.866 53.7206C163.576 53.7206 161.647 52.0986 161.076 49.8969H159.532V53.3187L154.889 53.3582L154.874 38.0396H154.889V38.0247L162.555 38.0002C162.675 37.9902 162.795 37.9852 162.917 37.9852C165.655 37.9852 167.879 40.5079 167.879 43.6153C167.879 45.3177 167.211 46.8449 166.157 47.8779C166.011 47.9623 165.893 48.0671 165.814 48.1854C165.768 48.2224 165.723 48.2578 165.677 48.2933H165.754C165.72 48.3707 165.701 48.4525 165.701 48.5374C165.701 48.9308 166.29 49.2878 166.836 49.4001ZM159.545 42.3307C159.545 42.3307 161.525 42.3157 161.604 42.3157C162.498 42.3157 163.225 42.9962 163.225 43.8345C163.225 44.6727 162.498 45.3532 161.604 45.3532C161.5 45.3532 159.545 45.3267 159.545 45.3267V42.3307Z" fill="black"/>
<path fill-rule="evenodd" clip-rule="evenodd" d="M152.442 38.0233L141.493 37.9689V53.3972H145.993V53.3843H152.394V49.0433H145.993V47.5191L149.627 47.539L150.03 43.6773H145.993V42.3638H152.442V38.0233Z" fill="black"/>
<path fill-rule="evenodd" clip-rule="evenodd" d="M119.813 47.9686L122.875 51.1953C121.373 52.7809 119.245 53.7714 116.887 53.7714C112.339 53.7714 108.648 50.0889 108.648 45.5532C108.648 41.0181 112.339 37.3356 116.887 37.3356C119.298 37.3356 121.469 38.371 122.977 40.0205L119.679 43.1339C119.007 42.411 118.046 41.9581 116.981 41.9581C114.951 41.9581 113.302 43.6027 113.302 45.6276C113.302 47.6531 114.951 49.2971 116.981 49.2971C118.12 49.2971 119.138 48.7799 119.813 47.9686Z" fill="black"/>
<path d="M106.816 37.8691H102.4V53.2479H106.816V37.8691Z" fill="black"/>
<path fill-rule="evenodd" clip-rule="evenodd" d="M173.303 42.2981V53.3016H177.719V42.2981L181.667 42.2816L182 37.8937H169.022V42.2981H173.303Z" fill="black"/>
<path fill-rule="evenodd" clip-rule="evenodd" d="M129.95 43.6252V37.9127H125.534V53.2917H129.95V47.4504H133.996V53.2917H138.412V37.9127H133.996V43.6252H129.95Z" fill="black"/>
<path fill-rule="evenodd" clip-rule="evenodd" d="M162.331 20.6186H160.199C160.123 20.6041 160.045 20.5966 159.964 20.5966C159.34 20.5966 158.834 21.0534 158.834 21.6166C158.834 22.1792 159.34 22.6365 159.964 22.6365C160.028 22.6365 160.091 22.6316 160.152 22.6221H167.673L167.249 26.5217L166.51 26.5112C166.727 27.0384 166.846 27.6046 166.846 28.1932C166.846 31.0439 164.08 33.358 160.673 33.358C157.267 33.358 154.501 31.0439 154.501 28.1932C154.501 26.8982 155.072 25.7134 156.015 24.8063C155.324 23.9975 154.916 23.007 154.916 21.9376C154.916 19.2127 157.561 17 160.817 17C162.182 17 163.44 17.3889 164.44 18.0414L162.331 20.6186ZM160.479 26.671C161.637 26.671 162.578 27.2621 162.578 27.9895C162.578 28.7174 161.637 29.3085 160.479 29.3085C159.32 29.3085 158.38 28.7174 158.38 27.9895C158.38 27.2621 159.32 26.671 160.479 26.671Z" fill="black"/>
<path fill-rule="evenodd" clip-rule="evenodd" d="M143.44 23.4962H147.03C147.03 23.4962 147.016 30.2556 147.011 32.312C147.01 32.636 146.747 32.8981 146.422 32.8981C144.743 32.8981 140.047 32.8981 140.047 32.8981V32.8931C135.586 32.8492 131.979 29.307 131.979 24.9501C131.979 20.5656 135.631 17.0065 140.131 17.0065C142.461 17.0065 144.565 17.9615 146.051 19.4917L142.659 22.4503C142.008 21.8497 141.128 21.4808 140.161 21.4808C138.157 21.4808 136.53 23.0639 136.53 25.014C136.53 26.964 138.157 28.5472 140.161 28.5472C140.307 28.5472 141.372 28.5222 141.372 28.5222C141.808 28.5222 142.161 28.1697 142.161 27.7354C142.161 27.301 141.808 26.9486 141.372 26.9486L140.473 26.9536L140.17 23.5037H143.444L143.44 23.4962Z" fill="black"/>
<path d="M114.452 17.502H110.036V32.8807H114.452V17.502Z" fill="black"/>
<path fill-rule="evenodd" clip-rule="evenodd" d="M96.0146 32.8312H106.81L107.168 28.5217H100.431V17.4523H96.0146V32.8312Z" fill="black"/>
<path fill-rule="evenodd" clip-rule="evenodd" d="M69.4824 31.3489L68.8282 32.8003H64L70.9194 17.3794H72.9847L79.9271 32.8003H75.0989L74.4442 31.3489H69.4824ZM71.2428 27.4453H72.6843L71.9636 25.8467L71.2428 27.4453Z" fill="black"/>
<path fill-rule="evenodd" clip-rule="evenodd" d="M121.558 17.4624V17.4589H117.142V32.8378H121.558V25.365L126.002 32.8553V32.8807H130.419V17.5018H126.002V24.9491L121.56 17.4614L121.558 17.4624Z" fill="black"/>
<path fill-rule="evenodd" clip-rule="evenodd" d="M88.9038 17.4258H93.3376V23.1592H93.3356V23.1921H93.3366C92.9952 25.5112 91.2859 27.4263 88.9939 28.2036V32.7992H84.5777V28.2521C82.2116 27.5082 80.4362 25.5626 80.0864 23.1946H80.0939V23.1592H80.0693V17.4258H84.5036V21.9775C84.5036 23.1886 85.4892 24.1717 86.7035 24.1717C87.9178 24.1717 88.9038 23.1886 88.9038 21.9775V17.4258Z" fill="black"/>
<path d="M25.9148 0.955566H25V15.3633H25.9148V0.955566Z" fill="black"/>
<path d="M25.9148 62.6099H25V67.3915H25.9148V62.6099Z" fill="black"/>
<path fill-rule="evenodd" clip-rule="evenodd" d="M45.992 26.3928L46.0076 17.2354H4.68347L4.61475 48.3633L25.2849 59.4659L45.9492 48.3665H45.9557L45.9797 33.8961H46.6015V26.3928H45.992Z" fill="black"/>
<path fill-rule="evenodd" clip-rule="evenodd" d="M23.3917 45.6661V22.4908H1.32568V45.6661H5.11065V37.7897H19.3993V45.6661H23.3917ZM19.468 26.4129H5.17938V33.8877H19.468V26.4129Z" fill="white"/>
<path fill-rule="evenodd" clip-rule="evenodd" d="M5.13474 45.6883H2.00523V23.1487H22.6624V45.6883H19.4234V46.4416H23.4158V22.4788H1.34912V46.4416H5.13474V45.6883Z" fill="black"/>
<path fill-rule="evenodd" clip-rule="evenodd" d="M28.4053 45.7087H32.3543L32.3575 38.305H40.557L47.3198 50.9551H53.0588L52.369 49.665L52.3567 49.6721L46.2059 38.2947L51.2026 38.2966L51.2104 22.5024H28.4053V45.7087ZM46.5813 26.4258H32.2927V33.8999H46.5813V26.4258Z" fill="white"/>
<path fill-rule="evenodd" clip-rule="evenodd" d="M51.1708 34.586V22.494L28.3015 22.507V46.4698H31.6294V46.4854H32.3225L32.3257 38.3251H40.5258L47.288 50.9752H53.027L52.3378 49.6851L52.3249 49.6922L46.1748 38.3147L51.1708 38.3167L51.1728 34.586H51.1708ZM32.2849 37.3868H41.0542L47.9363 50.2664L51.5676 50.2554L44.7426 37.3868L50.4168 37.3887V34.588L50.4175 23.1646L28.9576 23.1769V45.7165H30.2815V45.7682H32.2849V37.3868Z" fill="black"/>
</svg>
