<svg width="62" height="97" viewBox="0 0 62 97" fill="none" xmlns="http://www.w3.org/2000/svg">
<path d="M30.9727 6.0625H30.0371V20.8695H30.9727V6.0625Z" fill="black"/>
<path d="M30.8426 69.426H29.907V74.3402H30.8426V69.426Z" fill="black"/>
<path d="M30.8873 82.927H29.9517V90.9375H30.8873V82.927Z" fill="black"/>
<path d="M11.3431 79.7496H12.1965V79.7841C12.1965 80.147 12.3258 80.4062 12.5758 80.5444C12.8344 80.6913 13.1706 80.7604 13.593 80.7604C13.9637 80.7604 14.274 80.6481 14.5326 80.4321C14.7826 80.2161 14.9033 79.931 14.9033 79.5768C14.9033 79.2917 14.7998 79.0584 14.5843 78.877C14.3688 78.6955 14.0412 78.5141 13.593 78.3327L13.2568 78.1944C12.7913 78.0043 12.4465 77.8143 12.2224 77.6242C11.9896 77.4428 11.8172 77.2354 11.7052 77.0021C11.5931 76.7775 11.5414 76.5183 11.5414 76.2419C11.5414 75.7494 11.7138 75.3261 12.0586 74.9891C12.412 74.6435 12.9551 74.4794 13.7051 74.4794C14.386 74.4794 14.8602 74.6003 15.1446 74.8595C15.4205 75.1101 15.5584 75.4038 15.5584 75.7408V75.784H14.705V75.7408C14.705 75.6371 14.6619 75.5334 14.5757 75.4297C14.4981 75.3261 14.3688 75.2483 14.1964 75.1965C14.024 75.1533 13.8344 75.1273 13.6275 75.1273C13.2137 75.1273 12.9034 75.2397 12.7051 75.447C12.4982 75.6544 12.4034 75.8963 12.4034 76.1641C12.4034 76.3369 12.4465 76.5097 12.5413 76.6652C12.6362 76.8294 12.7741 76.959 12.9379 77.0626C13.1016 77.1663 13.3861 77.3045 13.7826 77.4773L14.1792 77.6501C14.8257 77.9352 15.2481 78.2203 15.4636 78.5314C15.6791 78.8338 15.7825 79.1707 15.7825 79.5249C15.7825 79.8532 15.6963 80.1729 15.5239 80.4753C15.3515 80.7863 15.1101 81.0196 14.7998 81.1751C14.4895 81.3393 14.0843 81.417 13.5671 81.417C13.0758 81.417 12.6706 81.3565 12.3431 81.2442C12.0155 81.1233 11.7655 80.9332 11.6017 80.6654C11.4293 80.3975 11.3431 80.1038 11.3431 79.7841V79.7496Z" fill="black"/>
<path d="M16.5576 76.51H17.342V81.2187H16.5576V76.51ZM16.5576 75.456V74.6698H17.342V75.456H16.5576Z" fill="black"/>
<path d="M19.1946 81.2187H18.4102V76.5101H19.1946V77.3222C19.3584 77.063 19.5135 76.8729 19.6773 76.752C19.8325 76.631 19.9876 76.536 20.16 76.4669C20.3324 76.4064 20.5221 76.3718 20.729 76.3718C21.0221 76.3718 21.2893 76.4323 21.522 76.5533C21.7548 76.6742 21.9358 76.8556 22.0651 77.0889C22.1944 77.3222 22.2634 77.7023 22.2634 78.2207V81.2187H21.4789V78.5577C21.4789 78.1343 21.4444 77.8319 21.3927 77.6591C21.3324 77.4863 21.2289 77.3481 21.0652 77.2444C20.9014 77.1494 20.7203 77.0976 20.5307 77.0976C20.3066 77.0976 20.0825 77.1667 19.8756 77.2963C19.6687 77.4345 19.5049 77.6246 19.3756 77.8665C19.2549 78.1084 19.1946 78.454 19.1946 78.9032V81.2187Z" fill="black"/>
<path d="M26.207 80.0091H26.9914V80.0523C26.9914 80.2597 26.9138 80.4757 26.7501 80.683C26.5949 80.899 26.388 81.0632 26.1294 81.1755C25.8708 81.2964 25.5605 81.3483 25.1984 81.3483C24.5088 81.3483 23.9744 81.1323 23.6037 80.6917C23.2244 80.251 23.0348 79.6376 23.0348 78.86C23.0348 78.0825 23.2244 77.4777 23.6037 77.0371C23.9744 76.5965 24.5088 76.3718 25.1984 76.3718C25.5605 76.3718 25.8708 76.4323 26.1294 76.5446C26.388 76.6569 26.5949 76.8124 26.7501 77.0112C26.9138 77.2099 26.9914 77.4345 26.9914 77.6764V77.7196H26.207V77.6764C26.2156 77.5036 26.138 77.3567 25.9743 77.2272C25.8191 77.0976 25.5777 77.0284 25.2415 77.0284C24.8536 77.0284 24.5175 77.1753 24.2588 77.4604C23.9916 77.7542 23.8537 78.2207 23.8537 78.86C23.8537 79.508 23.9916 79.9746 24.2588 80.2597C24.5175 80.5534 24.8536 80.6917 25.2415 80.6917C25.5777 80.6917 25.8191 80.6312 25.9743 80.5016C26.1294 80.372 26.207 80.2251 26.207 80.0523V80.0091Z" fill="black"/>
<path d="M30.8651 80.0091H31.6495V80.0523C31.6495 80.2597 31.5633 80.467 31.3996 80.683C31.2358 80.9076 31.0203 81.0718 30.7444 81.1841C30.4686 81.2964 30.1583 81.3483 29.8048 81.3483C29.0894 81.3483 28.5377 81.115 28.1498 80.6571C27.7619 80.1906 27.5636 79.6031 27.5636 78.8946C27.5636 78.1689 27.7705 77.5641 28.1842 77.0889C28.598 76.6137 29.1238 76.3718 29.7703 76.3718C30.1324 76.3718 30.4513 76.4496 30.7444 76.6051C31.0289 76.7606 31.2616 77.0025 31.4254 77.3308C31.5978 77.6591 31.6754 78.117 31.6754 78.6959V78.9637H28.3394C28.3394 79.4648 28.4773 79.8795 28.7446 80.2078C29.0204 80.5361 29.3911 80.6917 29.8738 80.6917C30.2186 80.6917 30.4686 80.6312 30.6324 80.4929C30.7875 80.3633 30.8651 80.2165 30.8651 80.0523V80.0091ZM28.3911 78.3676H30.9341V78.2812C30.9341 78.0566 30.8737 77.8492 30.7703 77.6419C30.6668 77.4345 30.5203 77.279 30.3393 77.1753C30.1496 77.0803 29.9341 77.0284 29.6928 77.0284C29.3997 77.0284 29.1238 77.1494 28.8825 77.3827C28.6325 77.6159 28.4687 77.9442 28.3911 78.3676Z" fill="black"/>
<path d="M35.9699 81.2187V75.4819L34.651 76.0089V75.2832L35.9699 74.6698H36.7543V81.2187H35.9699Z" fill="black"/>
<path d="M42.2845 77.7281C42.0949 77.9787 41.9052 78.1687 41.7156 78.2897C41.5259 78.4193 41.3449 78.5143 41.1553 78.5748C40.9742 78.6353 40.776 78.6698 40.5605 78.6698C40.0002 78.6698 39.5433 78.4625 39.2071 78.0651C38.8709 77.659 38.7072 77.1752 38.7072 76.605C38.7072 76.2075 38.7934 75.8447 38.9658 75.5164C39.1468 75.1881 39.3881 74.9375 39.6985 74.7561C40.0174 74.566 40.3536 74.4796 40.7243 74.4796C41.1553 74.4796 41.5604 74.6006 41.9397 74.8598C42.3104 75.1103 42.5948 75.4991 42.7931 76.0088C42.9827 76.5186 43.0862 77.1493 43.0862 77.9009C43.0862 78.9722 42.8621 79.8276 42.4224 80.4669C41.9914 81.0976 41.3622 81.4173 40.5432 81.4173C39.9916 81.4173 39.5692 81.2963 39.2933 81.0458C39.0089 80.8038 38.8709 80.5274 38.8709 80.2163V80.1731H39.6554V80.2163C39.6554 80.3459 39.7243 80.4669 39.8709 80.5879C40.0174 80.7088 40.2415 80.7606 40.5346 80.7606C40.8794 80.7606 41.1811 80.657 41.4397 80.4496C41.707 80.2423 41.9052 79.9053 42.0604 79.4301C42.2155 78.955 42.2845 78.4625 42.2845 77.9614V77.7281ZM40.7243 75.1276C40.3795 75.1276 40.095 75.2745 39.8709 75.5596C39.6381 75.8447 39.5261 76.1989 39.5261 76.6309C39.5261 77.0542 39.6467 77.3912 39.8881 77.6417C40.1295 77.8923 40.4226 78.0132 40.776 78.0132C41.1553 78.0132 41.4656 77.8664 41.707 77.5899C41.9483 77.3048 42.069 76.9678 42.069 76.5704C42.069 76.3199 42.0087 76.0693 41.888 75.836C41.7759 75.6028 41.6121 75.43 41.4053 75.309C41.1897 75.1881 40.9656 75.1276 40.7243 75.1276Z" fill="black"/>
<path d="M46.1847 81.4173C45.4778 81.4173 44.9003 81.1062 44.4607 80.4842C44.021 79.8621 43.8055 79.0154 43.8055 77.9441C43.8055 76.8728 44.021 76.0348 44.4607 75.4127C44.9003 74.7906 45.4778 74.4796 46.1847 74.4796C46.9002 74.4796 47.4777 74.7906 47.9087 75.4127C48.3483 76.0348 48.5725 76.8728 48.5725 77.9441C48.5725 79.0154 48.3483 79.8621 47.9087 80.4842C47.4777 81.1062 46.9002 81.4173 46.1847 81.4173ZM46.1847 80.7606C46.7364 80.7606 47.1415 80.4755 47.3829 79.9053C47.6329 79.3351 47.7536 78.6785 47.7536 77.9441C47.7536 77.2097 47.6329 76.5618 47.3829 75.9916C47.1415 75.4127 46.7364 75.1276 46.1847 75.1276C45.633 75.1276 45.2365 75.4127 44.9865 75.9916C44.7451 76.5618 44.6158 77.2097 44.6158 77.9441C44.6158 78.6785 44.7451 79.3351 44.9865 79.9053C45.2365 80.4755 45.633 80.7606 46.1847 80.7606Z" fill="black"/>
<path d="M50.2668 78.1601C50.4564 77.9182 50.646 77.7281 50.8271 77.5985C51.0167 77.4689 51.1977 77.3825 51.3874 77.3221C51.5684 77.2616 51.7667 77.227 51.9822 77.227C52.5425 77.227 52.9993 77.4257 53.3355 77.8318C53.6717 78.2292 53.8441 78.713 53.8441 79.2833C53.8441 79.6893 53.7579 80.0522 53.5769 80.3719C53.4045 80.7002 53.1631 80.9594 52.8442 81.1408C52.5339 81.3222 52.189 81.4173 51.8184 81.4173C51.396 81.4173 50.9908 81.2877 50.6116 81.0371C50.2323 80.7779 49.9478 80.3978 49.7582 79.888C49.5599 79.3697 49.4651 78.739 49.4651 77.9873C49.4651 76.916 49.6806 76.0693 50.1202 75.43C50.5512 74.7993 51.1805 74.4796 51.9994 74.4796C52.5511 74.4796 52.9735 74.6006 53.2579 74.8425C53.5338 75.093 53.6803 75.3695 53.6803 75.6805V75.7237H52.8959V75.6805C52.8959 75.5423 52.8183 75.4213 52.6718 75.3004C52.5252 75.1881 52.3097 75.1276 52.008 75.1276C51.6632 75.1276 51.3615 75.2313 51.1029 75.4473C50.8443 75.6546 50.6374 75.9916 50.4823 76.4667C50.3357 76.9419 50.2581 77.4257 50.2581 77.9355L50.2668 78.1601ZM51.8184 80.7606C52.1632 80.7606 52.4477 80.6138 52.6804 80.3287C52.9131 80.0436 53.0252 79.6893 53.0252 79.2573C53.0252 78.834 52.9045 78.4971 52.6632 78.2551C52.4218 78.0046 52.1201 77.8836 51.7753 77.8836C51.3874 77.8836 51.0771 78.0219 50.8357 78.307C50.5943 78.5921 50.4736 78.929 50.4736 79.3178C50.4736 79.577 50.534 79.8189 50.6547 80.0522C50.7753 80.2855 50.9391 80.4583 51.146 80.5792C51.3529 80.7002 51.577 80.7606 51.8184 80.7606Z" fill="black"/>
<path fill-rule="evenodd" clip-rule="evenodd" d="M51.7314 32.2048L51.7473 22.7936H9.48289L9.4126 54.7842L30.5531 66.1946L51.6876 54.7876H51.6942L51.7188 39.916H52.3547V32.2048H51.7314Z" fill="black"/>
<path fill-rule="evenodd" clip-rule="evenodd" d="M28.6169 52.0122V28.1947H6.04883V52.0122H9.91992V43.9176H24.5337V52.0122H28.6169ZM24.6039 32.2254H9.99021V39.9074H24.6039V32.2254Z" fill="white"/>
<path fill-rule="evenodd" clip-rule="evenodd" d="M9.94451 52.035H6.7438V28.8708H27.871V52.035H24.5582V52.8093H28.6415V28.1823H6.07275V52.8093H9.94451V52.035Z" fill="black"/>
<path fill-rule="evenodd" clip-rule="evenodd" d="M33.7445 52.0561H37.7834L37.7867 44.4472H46.1727L53.0894 57.4479H58.959L58.2535 56.1221L58.2409 56.1294L51.9502 44.4366L57.0606 44.4386L57.0685 28.2067H33.7445V52.0561ZM52.3341 32.2387H37.7204V39.92H52.3341V32.2387Z" fill="white"/>
<path fill-rule="evenodd" clip-rule="evenodd" d="M57.0282 40.6251V28.198L33.6385 28.2113V52.8383H37.0422V52.8543H37.751L37.7543 44.4678H46.141L53.057 57.4685H58.9266L58.2218 56.1426L58.2085 56.15L51.9185 44.4572L57.0282 44.4592L57.0302 40.6251H57.0282ZM37.7125 43.5035H46.6814L53.7201 56.7401L57.434 56.7288L50.4537 43.5035L56.2571 43.5055V40.6271L56.2577 28.8872L34.3096 28.8998V52.0641H35.6636V52.1172H37.7125V43.5035Z" fill="black"/>
</svg>
