<svg width="70" height="51" viewBox="0 0 70 51" fill="none" xmlns="http://www.w3.org/2000/svg">
<path d="M38.0584 1.74599C31.1129 1.01204 27.9155 5.65146 26.5428 8.80179V8.80255C24.0702 15.3596 27.7822 18.9144 30.03 19.6627C31.2743 20.2467 32.5194 18.6248 31.0126 17.5221C29.5061 16.4192 26.8179 13.5748 29.2753 8.80179H29.2743C30.9203 6.03019 33.5092 3.23458 38.3381 4.04846C45.1586 5.1974 43.5871 14.7978 39.9021 17.7788C37.1573 19.9737 32.8169 20.8619 30.3861 21.3505C27.956 21.8388 28.7803 22.9905 30.7236 23.4939L32.6669 23.9962C32.6669 23.9962 29.3261 23.9589 29.3748 25.3124C29.4244 26.6661 32.7996 27.2711 34.7512 27.6422C36.7022 28.0127 37.9932 26.7721 35.3937 26.2333C32.794 25.6947 33.0121 25.3819 35.0301 25.3006C37.0487 25.2197 38.4418 24.1721 35.6067 23.3715L32.7718 22.5712C32.7718 22.5712 40.6112 21.8508 43.6036 16.792C46.5962 11.7338 47.9803 2.79405 38.0584 1.74599Z" fill="black"/>
<path d="M8.08541 38.1188H18.5642C19.8281 38.1188 20.6705 37.832 20.6705 36.7367C20.6705 35.4591 19.8281 35.1723 18.5642 35.1723H8.08541V38.1188ZM8.08541 31.2604H18.4325C19.5115 31.2604 20.1437 30.8692 20.1437 29.7999C20.1437 28.7051 19.5115 28.3134 18.4325 28.3134H8.08541V31.2604ZM2.24036 23.7761H19.0642C23.7245 23.7761 25.989 25.0277 25.989 28.7309C25.989 31.9643 24.8038 32.5907 23.1717 33.0593V33.138C25.7258 33.4511 26.6731 34.8071 26.6731 37.6492C26.6731 41.796 24.1986 42.6564 20.8546 42.6564H2.24036V23.7761Z" fill="black"/>
<path d="M40.2054 30.3996C40.2054 24.8712 43.3384 23.5675 48.6043 23.5675H57.3977C64.033 23.5675 64.954 25.9407 64.954 29.6174V30.2173H59.2149C59.2149 28.3395 58.1354 28.1048 56.2656 28.1048H49.9208C46.972 28.1048 46.2083 28.8089 46.2083 32.0427V34.3896C46.2083 37.6232 46.972 38.3275 49.9208 38.3275H56.1606C57.687 38.3275 59.2149 38.0928 59.2149 36.2671V35.7196H51.9482V31.808H65.0595V37.1798C65.0595 42.6035 62.2158 42.865 55.6339 42.865H48.6043C43.3384 42.865 40.2054 41.5606 40.2054 36.0329V30.3996Z" fill="black"/>
<path d="M35.4702 28.8605C35.1267 28.8605 34.7763 28.8266 34.4265 28.7607L34.2885 28.7344C33.3351 28.5533 32.0286 28.3053 30.9081 27.919C30.7255 27.8556 30.5533 27.7885 30.3862 27.719V42.8651H36.231V28.8008C35.9884 28.8383 35.735 28.8605 35.4702 28.8605Z" fill="black"/>
<path d="M2.24036 44.932H6.61319V45.4343H2.86173V46.8844H6.467V47.3862H2.86173V49.4767H2.24036V44.932Z" fill="black"/>
<path d="M13.8638 45.4349L12.3235 48.0153H15.4036L13.8638 45.4349ZM13.4766 44.9326H14.2501L16.9748 49.4773H16.2715L15.7014 48.5166H12.0255L11.4552 49.4773H10.7523L13.4766 44.9326Z" fill="black"/>
<path d="M26.4253 48.0394C26.4253 47.4743 26.1087 47.3864 25.5445 47.3864H22.3575V48.9746H25.6397C26.2162 48.9746 26.4253 48.7678 26.4253 48.3658V48.0394ZM26.2481 45.9111C26.2481 45.4974 25.7856 45.4346 25.5953 45.4346H22.3575V46.8846H25.5636C25.8993 46.8846 26.2481 46.7779 26.2481 46.3261V45.9111ZM21.7361 44.9323H25.6523C26.6029 44.9323 26.8693 45.4218 26.8693 45.9425V46.3325C26.8693 46.6586 26.6852 46.9916 26.1277 47.0473V47.0728C26.6156 47.0976 27.0461 47.2799 27.0461 47.9702V48.5096C27.0461 49.1442 26.4761 49.4769 25.7157 49.4769H21.7361V44.9323Z" fill="black"/>
<path d="M39.3163 44.932H39.9377V48.9744H43.4988V49.4767H39.3163V44.932Z" fill="black"/>
<path d="M50.8193 45.4349L49.2792 48.0153H52.3595L50.8193 45.4349ZM50.4325 44.9326H51.206L53.9308 49.4773H53.2274L52.6573 48.5166H48.9817L48.4116 49.4773H47.7083L50.4325 44.9326Z" fill="black"/>
<path d="M63.3807 48.0394C63.3807 47.4743 63.0638 47.3864 62.4997 47.3864H59.3124V48.9746H62.5949C63.1716 48.9746 63.3807 48.7678 63.3807 48.3658V48.0394ZM63.2033 45.9111C63.2033 45.4974 62.7403 45.4346 62.5508 45.4346H59.3124V46.8846H62.5185C62.8547 46.8846 63.2033 46.7779 63.2033 46.3261V45.9111ZM58.6915 44.9323H62.6077C63.5579 44.9323 63.8245 45.4218 63.8245 45.9425V46.3325C63.8245 46.6586 63.6406 46.9916 63.0827 47.0473V47.0728C63.5705 47.0976 64.0016 47.2799 64.0016 47.9702V48.5096C64.0016 49.1442 63.431 49.4769 62.6709 49.4769H58.6915V44.9323Z" fill="black"/>
</svg>
