<svg width="180" height="42" viewBox="0 0 180 42" fill="none" xmlns="http://www.w3.org/2000/svg">
<g clip-path="url(#clip0_203_420)">
<path d="M86.5755 40.6591C86.1514 40.6591 85.7816 40.5616 85.4659 40.3669C85.1502 40.1721 84.8765 39.9141 84.6447 39.5927C84.4129 39.2713 84.2083 38.9305 84.0306 38.5702C83.8827 38.2001 83.7422 37.7473 83.609 37.2117C83.4758 36.6761 83.3526 36.0966 83.2391 35.4733C83.1257 34.8501 83.0296 34.2147 82.9506 33.567C82.8717 32.9195 82.8125 32.3035 82.773 31.7191C82.7335 31.1349 82.7139 30.6187 82.7139 30.1708C82.7139 29.119 82.8149 28.167 83.0172 27.315C83.2194 26.4628 83.5104 25.7081 83.8901 25.0509C84.2699 24.3935 84.7359 23.8359 85.2884 23.3782C86.0182 22.7647 86.8887 22.3168 87.8997 22.0343C88.9109 21.7519 90.028 21.6107 91.251 21.6107C92.0204 21.6107 92.7997 21.6789 93.5888 21.8152C94.3778 21.9515 95.1029 22.1438 95.7638 22.3922C96.4247 22.6406 96.9573 22.9424 97.3618 23.2979C97.7661 23.6534 97.9684 24.0502 97.9684 24.4885C97.9684 24.8682 97.8746 25.1628 97.6873 25.3722C97.4998 25.5815 97.2384 25.7301 96.9031 25.8177C96.4986 25.8957 95.9734 25.9224 95.3273 25.8981C94.6812 25.8737 93.9587 25.8615 93.1597 25.8615C92.3115 25.8615 91.6235 25.9589 91.0957 26.1537C90.568 26.3484 90.1611 26.6162 89.875 26.9571C89.6975 27.1324 89.557 27.3442 89.4534 27.5925C89.3498 27.8409 89.2734 28.1208 89.224 28.4325C89.1747 28.744 89.15 29.085 89.15 29.455C89.15 29.6692 89.1722 29.8591 89.2166 30.0248C89.2611 30.1903 89.3275 30.3315 89.4164 30.4484C89.5052 30.5651 89.6161 30.6552 89.7493 30.7185C89.8825 30.7818 90.0328 30.8135 90.2005 30.8135C90.5359 30.8135 90.9108 30.8063 91.3251 30.7916C91.7393 30.777 92.1511 30.7648 92.5604 30.7551C92.9698 30.7453 93.3471 30.7453 93.6923 30.7551C94.0376 30.7648 94.3137 30.7892 94.5209 30.8281C94.8563 30.9158 95.1103 31.0448 95.2829 31.2153C95.4555 31.3856 95.5419 31.6169 95.5419 31.9091C95.5419 32.0941 95.5097 32.2767 95.4456 32.4569C95.3815 32.6371 95.2804 32.8099 95.1424 32.9754C94.9353 33.2189 94.6171 33.4089 94.188 33.5452C93.7589 33.6814 93.1745 33.7983 92.4347 33.8958C91.6949 33.9931 90.7628 34.1246 89.6384 34.2902C89.2339 34.3388 88.9602 34.4849 88.8172 34.7284C88.6741 34.9719 88.6026 35.2883 88.6026 35.6779C88.6026 35.8336 88.6075 36.0406 88.6174 36.2987C88.6272 36.5568 88.6372 36.8392 88.647 37.1459C88.6568 37.4527 88.6618 37.757 88.6618 38.0589C88.6618 38.3608 88.6568 38.6384 88.647 38.8916C88.6372 39.1447 88.6125 39.3395 88.5731 39.4758C88.3856 39.9238 88.1168 40.233 87.7667 40.4034C87.4165 40.5739 87.0194 40.6591 86.5755 40.6591Z" fill="black"/>
<path d="M86.5755 40.6591C86.1514 40.6591 85.7816 40.5616 85.4659 40.3669C85.1502 40.1721 84.8765 39.9141 84.6447 39.5927C84.4129 39.2713 84.2083 38.9305 84.0306 38.5702C83.8827 38.2001 83.7422 37.7473 83.609 37.2117C83.4758 36.6761 83.3526 36.0966 83.2391 35.4733C83.1257 34.8501 83.0296 34.2147 82.9506 33.567C82.8717 32.9195 82.8125 32.3035 82.773 31.7191C82.7335 31.1349 82.7139 30.6187 82.7139 30.1708C82.7139 29.119 82.8149 28.167 83.0172 27.315C83.2194 26.4628 83.5104 25.7081 83.8901 25.0509C84.2699 24.3935 84.7359 23.8359 85.2884 23.3782C86.0182 22.7647 86.8887 22.3168 87.8997 22.0343C88.9109 21.7519 90.028 21.6107 91.251 21.6107C92.0204 21.6107 92.7997 21.6789 93.5888 21.8152C94.3778 21.9515 95.1029 22.1438 95.7638 22.3922C96.4247 22.6406 96.9573 22.9424 97.3618 23.2979C97.7661 23.6534 97.9684 24.0502 97.9684 24.4885C97.9684 24.8682 97.8746 25.1628 97.6873 25.3722C97.4998 25.5815 97.2384 25.7301 96.9031 25.8177C96.4986 25.8957 95.9734 25.9224 95.3273 25.8981C94.6812 25.8737 93.9587 25.8615 93.1597 25.8615C92.3115 25.8615 91.6235 25.9589 91.0957 26.1537C90.568 26.3484 90.1611 26.6162 89.875 26.9571C89.6975 27.1324 89.557 27.3442 89.4534 27.5925C89.3498 27.8409 89.2734 28.1208 89.224 28.4325C89.1747 28.744 89.15 29.085 89.15 29.455C89.15 29.6692 89.1722 29.8591 89.2166 30.0248C89.2611 30.1903 89.3275 30.3315 89.4164 30.4484C89.5052 30.5651 89.6161 30.6552 89.7493 30.7185C89.8825 30.7818 90.0328 30.8135 90.2005 30.8135C90.5359 30.8135 90.9108 30.8063 91.3251 30.7916C91.7393 30.777 92.1511 30.7648 92.5604 30.7551C92.9698 30.7453 93.3471 30.7453 93.6923 30.7551C94.0376 30.7648 94.3137 30.7892 94.5209 30.8281C94.8563 30.9158 95.1103 31.0448 95.2829 31.2153C95.4555 31.3856 95.5419 31.6169 95.5419 31.9091C95.5419 32.0941 95.5097 32.2767 95.4456 32.4569C95.3815 32.6371 95.2804 32.8099 95.1424 32.9754C94.9353 33.2189 94.6171 33.4089 94.188 33.5452C93.7589 33.6814 93.1745 33.7983 92.4347 33.8958C91.6949 33.9931 90.7628 34.1246 89.6384 34.2902C89.2339 34.3388 88.9602 34.4849 88.8172 34.7284C88.6741 34.9719 88.6026 35.2883 88.6026 35.6779C88.6026 35.8336 88.6075 36.0406 88.6174 36.2987C88.6272 36.5568 88.6372 36.8392 88.647 37.1459C88.6568 37.4527 88.6618 37.757 88.6618 38.0589C88.6618 38.3608 88.6568 38.6384 88.647 38.8916C88.6372 39.1447 88.6125 39.3395 88.5731 39.4758C88.3856 39.9238 88.1168 40.233 87.7667 40.4034C87.4165 40.5739 87.0194 40.6591 86.5755 40.6591Z" fill="black"/>
<path d="M105.935 41.0097C104.732 41.0097 103.57 40.8807 102.451 40.6226C101.331 40.3645 100.332 39.9555 99.4545 39.3956C98.5766 38.8356 97.8812 38.1076 97.3683 37.2117C96.8553 36.3158 96.5989 35.2251 96.5989 33.9396C96.5989 32.5276 96.8455 31.2835 97.3387 30.2074C97.8319 29.1313 98.5125 28.228 99.3805 27.4977C100.249 26.7673 101.257 26.2195 102.406 25.8543C103.555 25.4891 104.786 25.3065 106.098 25.3065C107.341 25.3065 108.522 25.4574 109.641 25.7594C110.761 26.0612 111.757 26.5287 112.63 27.1617C113.503 27.7947 114.189 28.603 114.687 29.5865C115.185 30.5701 115.434 31.7436 115.434 33.1069C115.434 34.1685 115.197 35.1764 114.724 36.1308C114.25 37.0851 113.585 37.9275 112.726 38.6578C111.868 39.3882 110.862 39.9629 109.708 40.3816C108.554 40.8003 107.296 41.0097 105.935 41.0097ZM105.683 36.3061C106.423 36.3061 107.057 36.1941 107.585 35.9701C108.112 35.7462 108.542 35.4467 108.872 35.0717C109.202 34.6967 109.447 34.2854 109.604 33.8373C109.762 33.3894 109.841 32.9414 109.841 32.4934C109.841 31.8995 109.723 31.393 109.486 30.9743C109.249 30.5555 108.931 30.2147 108.532 29.9518C108.132 29.6888 107.688 29.4965 107.2 29.3748C106.712 29.253 106.216 29.1922 105.713 29.1922C105.032 29.1922 104.396 29.3309 103.804 29.6084C103.213 29.886 102.734 30.3023 102.369 30.8574C102.004 31.4125 101.822 32.1088 101.822 32.9463C101.822 33.6377 101.975 34.2342 102.28 34.7357C102.586 35.2372 103.025 35.6244 103.597 35.8971C104.169 36.1697 104.865 36.3061 105.683 36.3061Z" fill="black"/>
<path d="M105.935 41.0097C104.732 41.0097 103.57 40.8807 102.451 40.6226C101.331 40.3645 100.332 39.9555 99.4545 39.3956C98.5766 38.8356 97.8812 38.1076 97.3683 37.2117C96.8553 36.3158 96.5989 35.2251 96.5989 33.9396C96.5989 32.5276 96.8455 31.2835 97.3387 30.2074C97.8319 29.1313 98.5125 28.228 99.3805 27.4977C100.249 26.7673 101.257 26.2195 102.406 25.8543C103.555 25.4891 104.786 25.3065 106.098 25.3065C107.341 25.3065 108.522 25.4574 109.641 25.7594C110.761 26.0612 111.757 26.5287 112.63 27.1617C113.503 27.7947 114.189 28.603 114.687 29.5865C115.185 30.5701 115.434 31.7436 115.434 33.1069C115.434 34.1685 115.197 35.1764 114.724 36.1308C114.25 37.0851 113.585 37.9275 112.726 38.6578C111.868 39.3882 110.862 39.9629 109.708 40.3816C108.554 40.8003 107.296 41.0097 105.935 41.0097ZM105.683 36.3061C106.423 36.3061 107.057 36.1941 107.585 35.9701C108.112 35.7462 108.542 35.4467 108.872 35.0717C109.202 34.6967 109.447 34.2854 109.604 33.8373C109.762 33.3894 109.841 32.9414 109.841 32.4934C109.841 31.8995 109.723 31.393 109.486 30.9743C109.249 30.5555 108.931 30.2147 108.532 29.9518C108.132 29.6888 107.688 29.4965 107.2 29.3748C106.712 29.253 106.216 29.1922 105.713 29.1922C105.032 29.1922 104.396 29.3309 103.804 29.6084C103.213 29.886 102.734 30.3023 102.369 30.8574C102.004 31.4125 101.822 32.1088 101.822 32.9463C101.822 33.6377 101.975 34.2342 102.28 34.7357C102.586 35.2372 103.025 35.6244 103.597 35.8971C104.169 36.1697 104.865 36.3061 105.683 36.3061Z" fill="black"/>
<path d="M119.306 40.513C118.654 40.513 118.124 40.3815 117.715 40.1186C117.306 39.8556 117.002 39.4223 116.805 38.8185C116.746 38.5944 116.702 38.3388 116.672 38.0516C116.642 37.7642 116.625 37.4429 116.62 37.0874C116.615 36.732 116.623 36.3449 116.642 35.9262C116.711 33.9493 117.128 32.2645 117.893 30.8719C118.657 29.4794 119.712 28.4154 121.058 27.6802C122.406 26.9449 123.976 26.5773 125.771 26.5773C127.576 26.5773 129.159 26.9327 130.521 27.6437C131.882 28.3545 132.94 29.4112 133.694 30.8135C134.449 32.2158 134.827 33.9541 134.827 36.0284C134.827 36.3789 134.814 36.7077 134.789 37.0144C134.765 37.3212 134.727 37.6061 134.679 37.869C134.629 38.132 134.57 38.3754 134.501 38.5993C134.273 39.2421 133.946 39.7216 133.517 40.0382C133.087 40.3547 132.562 40.513 131.941 40.513C131.241 40.513 130.701 40.4132 130.322 40.2135C129.941 40.0139 129.667 39.7241 129.5 39.3443C129.332 38.9646 129.214 38.5068 129.145 37.9712C129.106 37.3674 129.063 36.8269 129.019 36.3498C128.974 35.8726 128.926 35.4441 128.871 35.0643C128.817 34.6844 128.76 34.3339 128.7 34.0126C128.641 33.6912 128.568 33.3795 128.479 33.0777C128.282 32.3473 127.988 31.7995 127.598 31.4343C127.209 31.0692 126.649 30.8865 125.919 30.8865C125.228 30.8865 124.667 31.0789 124.233 31.4635C123.798 31.8482 123.449 32.4009 123.182 33.1214C123.054 33.4428 122.945 33.7837 122.856 34.1441C122.767 34.5044 122.689 34.8914 122.62 35.3053C122.55 35.7192 122.491 36.1647 122.443 36.6419C122.393 37.1192 122.338 37.6255 122.279 38.1611C122.21 38.7844 122.033 39.2664 121.747 39.6072C121.461 39.9481 121.108 40.1842 120.689 40.3157C120.269 40.4472 119.808 40.513 119.306 40.513Z" fill="black"/>
<path d="M119.306 40.513C118.654 40.513 118.124 40.3815 117.715 40.1186C117.306 39.8556 117.002 39.4223 116.805 38.8185C116.746 38.5944 116.702 38.3388 116.672 38.0516C116.642 37.7642 116.625 37.4429 116.62 37.0874C116.615 36.732 116.623 36.3449 116.642 35.9262C116.711 33.9493 117.128 32.2645 117.893 30.8719C118.657 29.4794 119.712 28.4154 121.058 27.6802C122.406 26.9449 123.976 26.5773 125.771 26.5773C127.576 26.5773 129.159 26.9327 130.521 27.6437C131.882 28.3545 132.94 29.4112 133.694 30.8135C134.449 32.2158 134.827 33.9541 134.827 36.0284C134.827 36.3789 134.814 36.7077 134.789 37.0144C134.765 37.3212 134.727 37.6061 134.679 37.869C134.629 38.132 134.57 38.3754 134.501 38.5993C134.273 39.2421 133.946 39.7216 133.517 40.0382C133.087 40.3547 132.562 40.513 131.941 40.513C131.241 40.513 130.701 40.4132 130.322 40.2135C129.941 40.0139 129.667 39.7241 129.5 39.3443C129.332 38.9646 129.214 38.5068 129.145 37.9712C129.106 37.3674 129.063 36.8269 129.019 36.3498C128.974 35.8726 128.926 35.4441 128.871 35.0643C128.817 34.6844 128.76 34.3339 128.7 34.0126C128.641 33.6912 128.568 33.3795 128.479 33.0777C128.282 32.3473 127.988 31.7995 127.598 31.4343C127.209 31.0692 126.649 30.8865 125.919 30.8865C125.228 30.8865 124.667 31.0789 124.233 31.4635C123.798 31.8482 123.449 32.4009 123.182 33.1214C123.054 33.4428 122.945 33.7837 122.856 34.1441C122.767 34.5044 122.689 34.8914 122.62 35.3053C122.55 35.7192 122.491 36.1647 122.443 36.6419C122.393 37.1192 122.338 37.6255 122.279 38.1611C122.21 38.7844 122.033 39.2664 121.747 39.6072C121.461 39.9481 121.108 40.1842 120.689 40.3157C120.269 40.4472 119.808 40.513 119.306 40.513Z" fill="black"/>
<path d="M139.735 40.6881C139.016 40.6881 138.455 40.5591 138.056 40.3011C137.657 40.0431 137.378 39.6584 137.221 39.1471C137.062 38.6358 136.984 38.0004 136.984 37.2408C136.984 36.9292 136.993 36.5737 137.013 36.1744C137.032 35.7752 137.055 35.3588 137.08 34.9255C137.105 34.4922 137.137 34.0564 137.176 33.6181C137.215 33.1799 137.262 32.7587 137.317 32.3546C137.371 31.9504 137.424 31.5779 137.479 31.2371C137.533 30.8962 137.595 30.6138 137.664 30.3898C137.96 29.6108 138.399 29.0216 138.98 28.6223C139.563 28.223 140.303 28.0233 141.2 28.0233C142.048 28.0233 142.67 28.3253 143.065 28.9291C143.46 29.5329 143.656 30.3655 143.656 31.427C143.656 31.7581 143.647 32.1476 143.627 32.5956C143.607 33.0436 143.577 33.5159 143.538 34.0125C143.499 34.5091 143.449 35.0107 143.39 35.5171C143.33 36.0235 143.262 36.5056 143.182 36.9632C143.104 37.4209 143.02 37.8348 142.931 38.2049C142.842 38.5749 142.739 38.8671 142.621 39.0814C142.324 39.6462 141.94 40.0552 141.466 40.3084C140.994 40.5616 140.417 40.6881 139.735 40.6881ZM140.919 26.2558C139.785 26.2558 138.986 26.0733 138.522 25.7081C138.058 25.3429 137.826 24.9216 137.826 24.4446C137.826 23.8311 138.049 23.31 138.492 22.8815C138.937 22.453 139.493 22.1292 140.164 21.9101C140.835 21.6909 141.506 21.5814 142.176 21.5814C142.67 21.5814 143.123 21.6569 143.538 21.8078C143.953 21.9588 144.288 22.1998 144.544 22.5309C144.801 22.862 144.929 23.2906 144.929 23.8164C144.929 24.4104 144.744 24.8851 144.374 25.2407C144.004 25.5961 143.513 25.8542 142.901 26.0148C142.29 26.1756 141.629 26.2558 140.919 26.2558Z" fill="black"/>
<path d="M139.735 40.6881C139.016 40.6881 138.455 40.5591 138.056 40.3011C137.657 40.0431 137.378 39.6584 137.221 39.1471C137.062 38.6358 136.984 38.0004 136.984 37.2408C136.984 36.9292 136.993 36.5737 137.013 36.1744C137.032 35.7752 137.055 35.3588 137.08 34.9255C137.105 34.4922 137.137 34.0564 137.176 33.6181C137.215 33.1799 137.262 32.7587 137.317 32.3546C137.371 31.9504 137.424 31.5779 137.479 31.2371C137.533 30.8962 137.595 30.6138 137.664 30.3898C137.96 29.6108 138.399 29.0216 138.98 28.6223C139.563 28.223 140.303 28.0233 141.2 28.0233C142.048 28.0233 142.67 28.3253 143.065 28.9291C143.46 29.5329 143.656 30.3655 143.656 31.427C143.656 31.7581 143.647 32.1476 143.627 32.5956C143.607 33.0436 143.577 33.5159 143.538 34.0125C143.499 34.5091 143.449 35.0107 143.39 35.5171C143.33 36.0235 143.262 36.5056 143.182 36.9632C143.104 37.4209 143.02 37.8348 142.931 38.2049C142.842 38.5749 142.739 38.8671 142.621 39.0814C142.324 39.6462 141.94 40.0552 141.466 40.3084C140.994 40.5616 140.417 40.6881 139.735 40.6881ZM140.919 26.2558C139.785 26.2558 138.986 26.0733 138.522 25.7081C138.058 25.3429 137.826 24.9216 137.826 24.4446C137.826 23.8311 138.049 23.31 138.492 22.8815C138.937 22.453 139.493 22.1292 140.164 21.9101C140.835 21.6909 141.506 21.5814 142.176 21.5814C142.67 21.5814 143.123 21.6569 143.538 21.8078C143.953 21.9588 144.288 22.1998 144.544 22.5309C144.801 22.862 144.929 23.2906 144.929 23.8164C144.929 24.4104 144.744 24.8851 144.374 25.2407C144.004 25.5961 143.513 25.8542 142.901 26.0148C142.29 26.1756 141.629 26.2558 140.919 26.2558Z" fill="black"/>
<path d="M154.76 41.1995C153.537 41.1995 152.385 41.051 151.305 40.7539C150.225 40.4569 149.271 39.9967 148.441 39.3735C147.613 38.7503 146.962 37.959 146.488 36.9998C146.016 36.0406 145.779 34.8987 145.779 33.5743C145.779 32.1914 145.988 30.9717 146.408 29.9151C146.826 28.8584 147.439 27.9674 148.242 27.2418C149.046 26.5164 150.017 25.9686 151.157 25.5986C152.296 25.2285 153.585 25.0435 155.026 25.0435C156.16 25.0435 157.105 25.1603 157.86 25.3941C158.614 25.6277 159.183 25.9272 159.568 26.2925C159.953 26.6576 160.145 27.0496 160.145 27.4683C160.145 27.7702 160.066 28.0429 159.908 28.2863C159.751 28.5298 159.546 28.7221 159.295 28.8634C159.043 29.0046 158.779 29.0751 158.503 29.0751C158.236 29.0751 157.97 29.0338 157.704 28.951C157.438 28.8683 157.12 28.7879 156.749 28.71C156.379 28.6321 155.904 28.5931 155.321 28.5931C154.71 28.5931 154.155 28.6904 153.658 28.8852C153.159 29.08 152.725 29.3575 152.355 29.7179C151.986 30.0782 151.699 30.5067 151.497 31.0034C151.295 31.5 151.194 32.0502 151.194 32.654C151.194 33.511 151.356 34.2219 151.682 34.7868C152.008 35.3516 152.462 35.7728 153.044 36.0503C153.626 36.3279 154.301 36.4666 155.07 36.4666C155.711 36.4666 156.288 36.4058 156.801 36.284C157.314 36.1623 157.768 36.0187 158.163 35.8531C158.557 35.6876 158.898 35.5415 159.183 35.4149C159.47 35.2883 159.707 35.225 159.894 35.225C160.367 35.225 160.737 35.3296 161.003 35.539C161.27 35.7484 161.457 36.0065 161.566 36.3133C161.674 36.62 161.729 36.9194 161.729 37.2116C161.729 37.8056 161.558 38.3461 161.218 38.833C160.878 39.3199 160.397 39.7411 159.776 40.0967C159.154 40.4521 158.416 40.7248 157.563 40.9147C156.71 41.1045 155.775 41.1995 154.76 41.1995Z" fill="black"/>
<path d="M154.76 41.1995C153.537 41.1995 152.385 41.051 151.305 40.7539C150.225 40.4569 149.271 39.9967 148.441 39.3735C147.613 38.7503 146.962 37.959 146.488 36.9998C146.016 36.0406 145.779 34.8987 145.779 33.5743C145.779 32.1914 145.988 30.9717 146.408 29.9151C146.826 28.8584 147.439 27.9674 148.242 27.2418C149.046 26.5164 150.017 25.9686 151.157 25.5986C152.296 25.2285 153.585 25.0435 155.026 25.0435C156.16 25.0435 157.105 25.1603 157.86 25.3941C158.614 25.6277 159.183 25.9272 159.568 26.2925C159.953 26.6576 160.145 27.0496 160.145 27.4683C160.145 27.7702 160.066 28.0429 159.908 28.2863C159.751 28.5298 159.546 28.7221 159.295 28.8634C159.043 29.0046 158.779 29.0751 158.503 29.0751C158.236 29.0751 157.97 29.0338 157.704 28.951C157.438 28.8683 157.12 28.7879 156.749 28.71C156.379 28.6321 155.904 28.5931 155.321 28.5931C154.71 28.5931 154.155 28.6904 153.658 28.8852C153.159 29.08 152.725 29.3575 152.355 29.7179C151.986 30.0782 151.699 30.5067 151.497 31.0034C151.295 31.5 151.194 32.0502 151.194 32.654C151.194 33.511 151.356 34.2219 151.682 34.7868C152.008 35.3516 152.462 35.7728 153.044 36.0503C153.626 36.3279 154.301 36.4666 155.07 36.4666C155.711 36.4666 156.288 36.4058 156.801 36.284C157.314 36.1623 157.768 36.0187 158.163 35.8531C158.557 35.6876 158.898 35.5415 159.183 35.4149C159.47 35.2883 159.707 35.225 159.894 35.225C160.367 35.225 160.737 35.3296 161.003 35.539C161.27 35.7484 161.457 36.0065 161.566 36.3133C161.674 36.62 161.729 36.9194 161.729 37.2116C161.729 37.8056 161.558 38.3461 161.218 38.833C160.878 39.3199 160.397 39.7411 159.776 40.0967C159.154 40.4521 158.416 40.7248 157.563 40.9147C156.71 41.1045 155.775 41.1995 154.76 41.1995Z" fill="black"/>
<path d="M169.352 41.886C168.523 41.886 167.719 41.8105 166.94 41.6595C166.16 41.5086 165.465 41.2579 164.853 40.9073C164.242 40.5566 163.754 40.0917 163.389 39.5122C163.024 38.9328 162.841 38.2243 162.841 37.3869C162.841 36.5104 163.066 35.7824 163.514 35.203C163.964 34.6235 164.568 34.1683 165.327 33.8372C166.087 33.506 166.947 33.2699 167.91 33.1287C168.871 32.9875 169.865 32.9168 170.891 32.9168C171.167 32.9168 171.446 32.9267 171.726 32.9461C172.007 32.9656 172.269 32.9826 172.511 32.9972C172.753 33.0118 172.947 33.0191 173.095 33.0191C173.321 33.0191 173.48 32.9803 173.569 32.9023C173.657 32.8244 173.702 32.6929 173.702 32.5078C173.702 32.2644 173.67 32.0453 173.606 31.8506C173.542 31.6558 173.451 31.4829 173.332 31.332C173.214 31.181 173.07 31.052 172.903 30.9448C172.616 30.75 172.256 30.6065 171.822 30.514C171.389 30.4214 170.921 30.3752 170.417 30.3752C169.796 30.3752 169.208 30.441 168.656 30.5723C168.104 30.7038 167.577 30.8353 167.073 30.9668C166.57 31.0982 166.076 31.164 165.594 31.164C164.814 31.164 164.212 31.0374 163.788 30.7842C163.364 30.531 163.152 30.1365 163.152 29.6009C163.152 29.0848 163.34 28.6247 163.715 28.2206C164.089 27.8164 164.605 27.478 165.261 27.2053C165.916 26.9326 166.659 26.7256 167.488 26.5844C168.316 26.4433 169.179 26.3727 170.077 26.3727C171.911 26.3727 173.455 26.5772 174.708 26.9862C175.96 27.3952 176.912 28.0769 177.564 29.0313C178.214 29.9856 178.54 31.2905 178.54 32.9461C178.54 33.3551 178.52 33.7154 178.481 34.0271C178.442 34.3388 178.394 34.6089 178.34 34.8378C178.286 35.0667 178.239 35.2687 178.2 35.444C178.16 35.6194 178.141 35.78 178.141 35.9261C178.141 36.189 178.23 36.4422 178.406 36.6856C178.584 36.9291 178.791 37.1799 179.028 37.438C179.265 37.6961 179.471 37.9736 179.649 38.2706C179.827 38.5677 179.916 38.9012 179.916 39.2712C179.916 39.8263 179.738 40.2305 179.384 40.4836C179.028 40.7368 178.618 40.8634 178.155 40.8634C177.78 40.8634 177.477 40.7636 177.245 40.564C177.014 40.3643 176.809 40.1647 176.631 39.9651C176.453 39.7654 176.257 39.6656 176.04 39.6656C175.892 39.6656 175.726 39.7094 175.543 39.7971C175.361 39.8847 175.142 40.0162 174.886 40.1915C174.589 40.396 174.202 40.6322 173.724 40.9C173.246 41.1678 172.651 41.3991 171.941 41.5938C171.231 41.7886 170.367 41.886 169.352 41.886ZM169.81 38.7454C170.264 38.7454 170.703 38.6796 171.127 38.5481C171.551 38.4166 171.938 38.2317 172.289 37.993C172.639 37.7544 172.917 37.472 173.125 37.1457C173.332 36.8196 173.435 36.4665 173.435 36.0867C173.435 35.814 173.346 35.612 173.169 35.4805C172.992 35.3491 172.718 35.2615 172.347 35.2176C171.978 35.1737 171.512 35.1519 170.95 35.1519C170.348 35.1519 169.778 35.2127 169.24 35.3345C168.703 35.4561 168.266 35.6606 167.931 35.948C167.595 36.2353 167.428 36.6321 167.428 37.1385C167.428 37.5085 167.529 37.8105 167.732 38.0441C167.933 38.2779 168.213 38.4532 168.567 38.57C168.923 38.6869 169.337 38.7454 169.81 38.7454Z" fill="black"/>
<path d="M169.352 41.886C168.523 41.886 167.719 41.8105 166.94 41.6595C166.16 41.5086 165.465 41.2579 164.853 40.9073C164.242 40.5566 163.754 40.0917 163.389 39.5122C163.024 38.9328 162.841 38.2243 162.841 37.3869C162.841 36.5104 163.066 35.7824 163.514 35.203C163.964 34.6235 164.568 34.1683 165.327 33.8372C166.087 33.506 166.947 33.2699 167.91 33.1287C168.871 32.9875 169.865 32.9168 170.891 32.9168C171.167 32.9168 171.446 32.9267 171.726 32.9461C172.007 32.9656 172.269 32.9826 172.511 32.9972C172.753 33.0118 172.947 33.0191 173.095 33.0191C173.321 33.0191 173.48 32.9803 173.569 32.9023C173.657 32.8244 173.702 32.6929 173.702 32.5078C173.702 32.2644 173.67 32.0453 173.606 31.8506C173.542 31.6558 173.451 31.4829 173.332 31.332C173.214 31.181 173.07 31.052 172.903 30.9448C172.616 30.75 172.256 30.6065 171.822 30.514C171.389 30.4214 170.921 30.3752 170.417 30.3752C169.796 30.3752 169.208 30.441 168.656 30.5723C168.104 30.7038 167.577 30.8353 167.073 30.9668C166.57 31.0982 166.076 31.164 165.594 31.164C164.814 31.164 164.212 31.0374 163.788 30.7842C163.364 30.531 163.152 30.1365 163.152 29.6009C163.152 29.0848 163.34 28.6247 163.715 28.2206C164.089 27.8164 164.605 27.478 165.261 27.2053C165.916 26.9326 166.659 26.7256 167.488 26.5844C168.316 26.4433 169.179 26.3727 170.077 26.3727C171.911 26.3727 173.455 26.5772 174.708 26.9862C175.96 27.3952 176.912 28.0769 177.564 29.0313C178.214 29.9856 178.54 31.2905 178.54 32.9461C178.54 33.3551 178.52 33.7154 178.481 34.0271C178.442 34.3388 178.394 34.6089 178.34 34.8378C178.286 35.0667 178.239 35.2687 178.2 35.444C178.16 35.6194 178.141 35.78 178.141 35.9261C178.141 36.189 178.23 36.4422 178.406 36.6856C178.584 36.9291 178.791 37.1799 179.028 37.438C179.265 37.6961 179.471 37.9736 179.649 38.2706C179.827 38.5677 179.916 38.9012 179.916 39.2712C179.916 39.8263 179.738 40.2305 179.384 40.4836C179.028 40.7368 178.618 40.8634 178.155 40.8634C177.78 40.8634 177.477 40.7636 177.245 40.564C177.014 40.3643 176.809 40.1647 176.631 39.9651C176.453 39.7654 176.257 39.6656 176.04 39.6656C175.892 39.6656 175.726 39.7094 175.543 39.7971C175.361 39.8847 175.142 40.0162 174.886 40.1915C174.589 40.396 174.202 40.6322 173.724 40.9C173.246 41.1678 172.651 41.3991 171.941 41.5938C171.231 41.7886 170.367 41.886 169.352 41.886ZM169.81 38.7454C170.264 38.7454 170.703 38.6796 171.127 38.5481C171.551 38.4166 171.938 38.2317 172.289 37.993C172.639 37.7544 172.917 37.472 173.125 37.1457C173.332 36.8196 173.435 36.4665 173.435 36.0867C173.435 35.814 173.346 35.612 173.169 35.4805C172.992 35.3491 172.718 35.2615 172.347 35.2176C171.978 35.1737 171.512 35.1519 170.95 35.1519C170.348 35.1519 169.778 35.2127 169.24 35.3345C168.703 35.4561 168.266 35.6606 167.931 35.948C167.595 36.2353 167.428 36.6321 167.428 37.1385C167.428 37.5085 167.529 37.8105 167.732 38.0441C167.933 38.2779 168.213 38.4532 168.567 38.57C168.923 38.6869 169.337 38.7454 169.81 38.7454Z" fill="black"/>
<path d="M70.6315 19.645C69.0927 19.3432 68.0323 18.6761 67.4504 17.6439C66.8684 16.6115 66.5774 15.2287 66.5774 13.4952C66.5774 13.0473 66.5922 12.5482 66.6218 11.998C66.6513 11.4477 66.6908 10.8756 66.7401 10.2816C66.7895 9.68753 66.8462 9.10079 66.9103 8.52136C66.9744 7.94192 67.0434 7.40144 67.1174 6.89991C67.1915 6.39838 67.258 5.9772 67.3172 5.63635C67.6032 4.19506 68.0373 3.09219 68.6193 2.32772C69.2012 1.56327 69.9755 1.18103 70.9422 1.18103C71.6031 1.18103 72.0913 1.30763 72.407 1.56083C72.7226 1.81403 72.9298 2.16948 73.0284 2.62719C73.127 3.08489 73.1764 3.62537 73.1764 4.24863C73.1764 4.52131 73.1714 4.82319 73.1616 5.1543C73.1517 5.48541 73.1418 5.83355 73.1319 6.19874C73.1221 6.56393 73.1123 6.9413 73.1023 7.33084C73.0925 7.72037 73.0851 8.10504 73.0801 8.48484C73.0752 8.86463 73.0728 9.23713 73.0728 9.60232C73.0728 9.96751 73.0826 10.3108 73.1023 10.6322C73.1319 11.2359 73.1936 11.7496 73.2873 12.1732C73.381 12.5968 73.5314 12.9402 73.7385 13.2031C73.9457 13.4661 74.2342 13.6584 74.6042 13.7801C74.974 13.9019 75.4549 13.9724 76.0468 13.9918C76.826 14.0503 77.5633 14.1161 78.2587 14.1891C78.9541 14.2621 79.5188 14.3278 79.9529 14.3863C80.3968 14.3863 80.7962 14.4131 81.1512 14.4666C81.5064 14.5202 81.7826 14.6103 81.9799 14.7369C82.1771 14.8636 82.3226 15.0314 82.4163 15.2409C82.5101 15.4503 82.5569 15.7302 82.5569 16.0809C82.5569 16.6651 82.3942 17.1642 82.0687 17.5781C81.7431 17.9919 81.3116 18.3376 80.7739 18.6152C80.2364 18.8927 79.6372 19.124 78.9763 19.3091C78.3451 19.4747 77.5928 19.6085 76.72 19.7108C75.847 19.813 74.9765 19.8641 74.1085 19.8641C73.7139 19.8641 73.3046 19.8593 72.8804 19.8496C72.4562 19.8398 72.0518 19.8155 71.6672 19.7765C71.2825 19.7375 70.9372 19.6938 70.6315 19.645Z" fill="black"/>
<path d="M70.6315 19.645C69.0927 19.3432 68.0323 18.6761 67.4504 17.6439C66.8684 16.6115 66.5774 15.2287 66.5774 13.4952C66.5774 13.0473 66.5922 12.5482 66.6218 11.998C66.6513 11.4477 66.6908 10.8756 66.7401 10.2816C66.7895 9.68753 66.8462 9.10079 66.9103 8.52136C66.9744 7.94192 67.0434 7.40144 67.1174 6.89991C67.1915 6.39838 67.258 5.9772 67.3172 5.63635C67.6032 4.19506 68.0373 3.09219 68.6193 2.32772C69.2012 1.56327 69.9755 1.18103 70.9422 1.18103C71.6031 1.18103 72.0913 1.30763 72.407 1.56083C72.7226 1.81403 72.9298 2.16948 73.0284 2.62719C73.127 3.08489 73.1764 3.62537 73.1764 4.24863C73.1764 4.52131 73.1714 4.82319 73.1616 5.1543C73.1517 5.48541 73.1418 5.83355 73.1319 6.19874C73.1221 6.56393 73.1123 6.9413 73.1023 7.33084C73.0925 7.72037 73.0851 8.10504 73.0801 8.48484C73.0752 8.86463 73.0728 9.23713 73.0728 9.60232C73.0728 9.96751 73.0826 10.3108 73.1023 10.6322C73.1319 11.2359 73.1936 11.7496 73.2873 12.1732C73.381 12.5968 73.5314 12.9402 73.7385 13.2031C73.9457 13.4661 74.2342 13.6584 74.6042 13.7801C74.974 13.9019 75.4549 13.9724 76.0468 13.9918C76.826 14.0503 77.5633 14.1161 78.2587 14.1891C78.9541 14.2621 79.5188 14.3278 79.9529 14.3863C80.3968 14.3863 80.7962 14.4131 81.1512 14.4666C81.5064 14.5202 81.7826 14.6103 81.9799 14.7369C82.1771 14.8636 82.3226 15.0314 82.4163 15.2409C82.5101 15.4503 82.5569 15.7302 82.5569 16.0809C82.5569 16.6651 82.3942 17.1642 82.0687 17.5781C81.7431 17.9919 81.3116 18.3376 80.7739 18.6152C80.2364 18.8927 79.6372 19.124 78.9763 19.3091C78.3451 19.4747 77.5928 19.6085 76.72 19.7108C75.847 19.813 74.9765 19.8641 74.1085 19.8641C73.7139 19.8641 73.3046 19.8593 72.8804 19.8496C72.4562 19.8398 72.0518 19.8155 71.6672 19.7765C71.2825 19.7375 70.9372 19.6938 70.6315 19.645Z" fill="black"/>
<path d="M86.7259 19.4259C86.0058 19.4259 85.4461 19.2969 85.0465 19.0389C84.6471 18.7808 84.3685 18.3962 84.2106 17.8849C84.0528 17.3736 83.9739 16.7382 83.9739 15.9785C83.9739 15.667 83.9837 15.3115 84.0035 14.9122C84.0232 14.513 84.0453 14.0966 84.0701 13.6633C84.0947 13.2299 84.1267 12.7942 84.1662 12.3559C84.2057 11.9176 84.2526 11.4965 84.3067 11.0923C84.361 10.6882 84.4153 10.3157 84.4696 9.97485C84.5238 9.63401 84.5855 9.35159 84.6545 9.12761C84.9504 8.34854 85.3893 7.75936 85.9713 7.36009C86.5532 6.96081 87.293 6.76117 88.1907 6.76117C89.039 6.76117 89.6604 7.06306 90.055 7.66684C90.4495 8.27062 90.6468 9.10326 90.6468 10.1648C90.6468 10.4959 90.637 10.8854 90.6172 11.3334C90.5975 11.7814 90.5679 12.2537 90.5284 12.7503C90.489 13.2469 90.4397 13.7485 90.3805 14.2549C90.3213 14.7612 90.2522 15.2434 90.1733 15.701C90.0945 16.1587 90.0106 16.5726 89.9218 16.9427C89.8331 17.3127 89.7295 17.6048 89.6111 17.8192C89.3152 18.384 88.9305 18.793 88.4571 19.0462C87.9835 19.2994 87.4066 19.4259 86.7259 19.4259ZM87.9096 4.99365C86.7752 4.99365 85.9763 4.81105 85.5126 4.44586C85.049 4.08067 84.8172 3.65949 84.8172 3.1823C84.8172 2.56879 85.0392 2.04778 85.4831 1.6193C85.927 1.1908 86.4843 0.866999 87.155 0.647884C87.8257 0.428771 88.4965 0.319214 89.1672 0.319214C89.6604 0.319214 90.1141 0.394686 90.5284 0.545631C90.9427 0.696577 91.278 0.937603 91.5346 1.26871C91.791 1.59982 91.9192 2.02831 91.9192 2.55418C91.9192 3.14822 91.7343 3.62296 91.3644 3.97842C90.9945 4.33388 90.5038 4.59194 89.8922 4.75262C89.2806 4.91331 88.6198 4.99365 87.9096 4.99365Z" fill="black"/>
<path d="M86.7259 19.4259C86.0058 19.4259 85.4461 19.2969 85.0465 19.0389C84.6471 18.7808 84.3685 18.3962 84.2106 17.8849C84.0528 17.3736 83.9739 16.7382 83.9739 15.9785C83.9739 15.667 83.9837 15.3115 84.0035 14.9122C84.0232 14.513 84.0453 14.0966 84.0701 13.6633C84.0947 13.2299 84.1267 12.7942 84.1662 12.3559C84.2057 11.9176 84.2526 11.4965 84.3067 11.0923C84.361 10.6882 84.4153 10.3157 84.4696 9.97485C84.5238 9.63401 84.5855 9.35159 84.6545 9.12761C84.9504 8.34854 85.3893 7.75936 85.9713 7.36009C86.5532 6.96081 87.293 6.76117 88.1907 6.76117C89.039 6.76117 89.6604 7.06306 90.055 7.66684C90.4495 8.27062 90.6468 9.10326 90.6468 10.1648C90.6468 10.4959 90.637 10.8854 90.6172 11.3334C90.5975 11.7814 90.5679 12.2537 90.5284 12.7503C90.489 13.2469 90.4397 13.7485 90.3805 14.2549C90.3213 14.7612 90.2522 15.2434 90.1733 15.701C90.0945 16.1587 90.0106 16.5726 89.9218 16.9427C89.8331 17.3127 89.7295 17.6048 89.6111 17.8192C89.3152 18.384 88.9305 18.793 88.4571 19.0462C87.9835 19.2994 87.4066 19.4259 86.7259 19.4259ZM87.9096 4.99365C86.7752 4.99365 85.9763 4.81105 85.5126 4.44586C85.049 4.08067 84.8172 3.65949 84.8172 3.1823C84.8172 2.56879 85.0392 2.04778 85.4831 1.6193C85.927 1.1908 86.4843 0.866999 87.155 0.647884C87.8257 0.428771 88.4965 0.319214 89.1672 0.319214C89.6604 0.319214 90.1141 0.394686 90.5284 0.545631C90.9427 0.696577 91.278 0.937603 91.5346 1.26871C91.791 1.59982 91.9192 2.02831 91.9192 2.55418C91.9192 3.14822 91.7343 3.62296 91.3644 3.97842C90.9945 4.33388 90.5038 4.59194 89.8922 4.75262C89.2806 4.91331 88.6198 4.99365 87.9096 4.99365Z" fill="black"/>
<path d="M95.2829 19.2506C94.6319 19.2506 94.1017 19.1191 93.6923 18.8563C93.283 18.5933 92.9797 18.1599 92.7824 17.5561C92.7232 17.3321 92.6788 17.0765 92.6492 16.7892C92.6197 16.5019 92.6024 16.1805 92.5974 15.8251C92.5925 15.4697 92.5999 15.0826 92.6197 14.6639C92.6886 12.6869 93.1054 11.0022 93.8698 9.60958C94.6344 8.21699 95.6897 7.15307 97.0362 6.41781C98.3826 5.68256 99.9535 5.31494 101.749 5.31494C103.554 5.31494 105.137 5.6704 106.498 6.3813C107.859 7.0922 108.917 8.14882 109.672 9.55115C110.426 10.9535 110.804 12.6917 110.804 14.7661C110.804 15.1166 110.791 15.4454 110.767 15.7521C110.742 16.0589 110.705 16.3437 110.656 16.6066C110.606 16.8696 110.547 17.1131 110.478 17.337C110.251 17.9798 109.923 18.4593 109.494 18.7759C109.065 19.0923 108.54 19.2506 107.918 19.2506C107.218 19.2506 106.678 19.1508 106.298 18.9511C105.919 18.7515 105.645 18.4618 105.477 18.082C105.309 17.7022 105.191 17.2445 105.122 16.7089C105.083 16.1051 105.041 15.5646 104.996 15.0875C104.952 14.6103 104.903 14.1817 104.848 13.802C104.794 13.4221 104.737 13.0716 104.678 12.7502C104.619 12.4289 104.545 12.1172 104.456 11.8153C104.259 11.0849 103.966 10.5372 103.576 10.172C103.186 9.80679 102.627 9.62419 101.897 9.62419C101.206 9.62419 100.644 9.81652 100.21 10.2012C99.7759 10.5859 99.4257 11.1385 99.1594 11.8591C99.0312 12.1805 98.9226 12.5214 98.8339 12.8817C98.7451 13.2421 98.6662 13.6291 98.5971 14.043C98.5282 14.4569 98.4689 14.9024 98.4196 15.3796C98.3703 15.8568 98.316 16.3632 98.2569 16.8988C98.1878 17.5221 98.0103 18.0041 97.7243 18.3449C97.4382 18.6858 97.0855 18.9219 96.6663 19.0534C96.247 19.1849 95.786 19.2506 95.2829 19.2506Z" fill="black"/>
<path d="M95.2829 19.2506C94.6319 19.2506 94.1017 19.1191 93.6923 18.8563C93.283 18.5933 92.9797 18.1599 92.7824 17.5561C92.7232 17.3321 92.6788 17.0765 92.6492 16.7892C92.6197 16.5019 92.6024 16.1805 92.5974 15.8251C92.5925 15.4697 92.5999 15.0826 92.6197 14.6639C92.6886 12.6869 93.1054 11.0022 93.8698 9.60958C94.6344 8.21699 95.6897 7.15307 97.0362 6.41781C98.3826 5.68256 99.9535 5.31494 101.749 5.31494C103.554 5.31494 105.137 5.6704 106.498 6.3813C107.859 7.0922 108.917 8.14882 109.672 9.55115C110.426 10.9535 110.804 12.6917 110.804 14.7661C110.804 15.1166 110.791 15.4454 110.767 15.7521C110.742 16.0589 110.705 16.3437 110.656 16.6066C110.606 16.8696 110.547 17.1131 110.478 17.337C110.251 17.9798 109.923 18.4593 109.494 18.7759C109.065 19.0923 108.54 19.2506 107.918 19.2506C107.218 19.2506 106.678 19.1508 106.298 18.9511C105.919 18.7515 105.645 18.4618 105.477 18.082C105.309 17.7022 105.191 17.2445 105.122 16.7089C105.083 16.1051 105.041 15.5646 104.996 15.0875C104.952 14.6103 104.903 14.1817 104.848 13.802C104.794 13.4221 104.737 13.0716 104.678 12.7502C104.619 12.4289 104.545 12.1172 104.456 11.8153C104.259 11.0849 103.966 10.5372 103.576 10.172C103.186 9.80679 102.627 9.62419 101.897 9.62419C101.206 9.62419 100.644 9.81652 100.21 10.2012C99.7759 10.5859 99.4257 11.1385 99.1594 11.8591C99.0312 12.1805 98.9226 12.5214 98.8339 12.8817C98.7451 13.2421 98.6662 13.6291 98.5971 14.043C98.5282 14.4569 98.4689 14.9024 98.4196 15.3796C98.3703 15.8568 98.316 16.3632 98.2569 16.8988C98.1878 17.5221 98.0103 18.0041 97.7243 18.3449C97.4382 18.6858 97.0855 18.9219 96.6663 19.0534C96.247 19.1849 95.786 19.2506 95.2829 19.2506Z" fill="black"/>
<path d="M119.647 25.5318C118.246 25.5318 117.089 25.4394 116.177 25.2543C115.265 25.0693 114.547 24.8332 114.024 24.5458C113.501 24.2586 113.134 23.9372 112.922 23.5818C112.71 23.2263 112.604 22.883 112.604 22.5519C112.604 22.1916 112.725 21.8921 112.966 21.6536C113.208 21.415 113.538 21.2324 113.958 21.1058C114.377 20.9792 114.838 20.9159 115.341 20.9159C115.686 20.9159 116.071 20.95 116.495 21.0182C116.919 21.0863 117.366 21.1569 117.834 21.2299C118.303 21.3029 118.796 21.3614 119.314 21.4052C119.832 21.4491 120.362 21.4515 120.904 21.4126C121.418 21.393 121.854 21.2883 122.214 21.0984C122.574 20.9086 122.867 20.6676 123.094 20.3754C123.321 20.0832 123.487 19.7619 123.59 19.4113C123.693 19.0607 123.745 18.715 123.745 18.3742C123.745 18.2963 123.735 18.2256 123.715 18.1623C123.696 18.099 123.671 18.0479 123.642 18.0089C123.612 17.97 123.562 17.9505 123.494 17.9505C123.385 17.9505 123.222 18.0138 123.005 18.1404C122.789 18.267 122.51 18.4107 122.169 18.5713C121.829 18.7321 121.422 18.8757 120.948 19.0023C120.475 19.1289 119.928 19.1922 119.306 19.1922C117.748 19.1922 116.438 18.9438 115.378 18.4472C114.318 17.9505 113.516 17.2177 112.974 16.2488C112.431 15.2797 112.16 14.0843 112.16 12.6625C112.16 11.4453 112.416 10.3862 112.929 9.48542C113.442 8.58462 114.135 7.83963 115.008 7.25046C115.881 6.66127 116.867 6.22061 117.967 5.92846C119.067 5.63631 120.209 5.49023 121.393 5.49023C122.675 5.49023 123.838 5.68014 124.885 6.05994C125.93 6.43973 126.833 6.99482 127.593 7.7252C128.351 8.45557 128.936 9.35151 129.345 10.413C129.755 11.4745 129.959 12.6918 129.959 14.0649C129.959 15.9542 129.744 17.617 129.315 19.0534C128.887 20.4898 128.243 21.6876 127.385 22.6468C126.527 23.6062 125.451 24.3267 124.16 24.8088C122.867 25.2908 121.363 25.5318 119.647 25.5318ZM120.859 15.7155C121.402 15.7155 121.903 15.6376 122.362 15.4818C122.821 15.3261 123.218 15.102 123.553 14.8099C123.888 14.5178 124.152 14.1696 124.344 13.7654C124.536 13.3613 124.632 12.9158 124.632 12.4289C124.632 11.8154 124.502 11.2797 124.24 10.822C123.979 10.3643 123.601 10.004 123.109 9.74106C122.616 9.47812 122.014 9.34664 121.304 9.34664C120.859 9.34664 120.411 9.40751 119.958 9.52924C119.504 9.65097 119.084 9.84087 118.699 10.0989C118.315 10.357 118.009 10.7003 117.782 11.1288C117.555 11.5573 117.442 12.0783 117.442 12.6918C117.442 13.2761 117.578 13.7971 117.849 14.2548C118.12 14.7125 118.512 15.0704 119.025 15.3284C119.538 15.5865 120.15 15.7155 120.859 15.7155Z" fill="black"/>
<path d="M119.647 25.5318C118.246 25.5318 117.089 25.4394 116.177 25.2543C115.265 25.0693 114.547 24.8332 114.024 24.5458C113.501 24.2586 113.134 23.9372 112.922 23.5818C112.71 23.2263 112.604 22.883 112.604 22.5519C112.604 22.1916 112.725 21.8921 112.966 21.6536C113.208 21.415 113.538 21.2324 113.958 21.1058C114.377 20.9792 114.838 20.9159 115.341 20.9159C115.686 20.9159 116.071 20.95 116.495 21.0182C116.919 21.0863 117.366 21.1569 117.834 21.2299C118.303 21.3029 118.796 21.3614 119.314 21.4052C119.832 21.4491 120.362 21.4515 120.904 21.4126C121.418 21.393 121.854 21.2883 122.214 21.0984C122.574 20.9086 122.867 20.6676 123.094 20.3754C123.321 20.0832 123.487 19.7619 123.59 19.4113C123.693 19.0607 123.745 18.715 123.745 18.3742C123.745 18.2963 123.735 18.2256 123.715 18.1623C123.696 18.099 123.671 18.0479 123.642 18.0089C123.612 17.97 123.562 17.9505 123.494 17.9505C123.385 17.9505 123.222 18.0138 123.005 18.1404C122.789 18.267 122.51 18.4107 122.169 18.5713C121.829 18.7321 121.422 18.8757 120.948 19.0023C120.475 19.1289 119.928 19.1922 119.306 19.1922C117.748 19.1922 116.438 18.9438 115.378 18.4472C114.318 17.9505 113.516 17.2177 112.974 16.2488C112.431 15.2797 112.16 14.0843 112.16 12.6625C112.16 11.4453 112.416 10.3862 112.929 9.48542C113.442 8.58462 114.135 7.83963 115.008 7.25046C115.881 6.66127 116.867 6.22061 117.967 5.92846C119.067 5.63631 120.209 5.49023 121.393 5.49023C122.675 5.49023 123.838 5.68014 124.885 6.05994C125.93 6.43973 126.833 6.99482 127.593 7.7252C128.351 8.45557 128.936 9.35151 129.345 10.413C129.755 11.4745 129.959 12.6918 129.959 14.0649C129.959 15.9542 129.744 17.617 129.315 19.0534C128.887 20.4898 128.243 21.6876 127.385 22.6468C126.527 23.6062 125.451 24.3267 124.16 24.8088C122.867 25.2908 121.363 25.5318 119.647 25.5318ZM120.859 15.7155C121.402 15.7155 121.903 15.6376 122.362 15.4818C122.821 15.3261 123.218 15.102 123.553 14.8099C123.888 14.5178 124.152 14.1696 124.344 13.7654C124.536 13.3613 124.632 12.9158 124.632 12.4289C124.632 11.8154 124.502 11.2797 124.24 10.822C123.979 10.3643 123.601 10.004 123.109 9.74106C122.616 9.47812 122.014 9.34664 121.304 9.34664C120.859 9.34664 120.411 9.40751 119.958 9.52924C119.504 9.65097 119.084 9.84087 118.699 10.0989C118.315 10.357 118.009 10.7003 117.782 11.1288C117.555 11.5573 117.442 12.0783 117.442 12.6918C117.442 13.2761 117.578 13.7971 117.849 14.2548C118.12 14.7125 118.512 15.0704 119.025 15.3284C119.538 15.5865 120.15 15.7155 120.859 15.7155Z" fill="black"/>
<path d="M140.668 19.9516C139.15 19.9516 137.823 19.7521 136.689 19.3528C135.553 18.9535 134.609 18.3618 133.855 17.578C133.1 16.794 132.535 15.8299 132.161 14.6856C131.786 13.5414 131.598 12.2291 131.598 10.7489C131.598 10.3594 131.616 9.97956 131.65 9.6095C131.684 9.23944 131.741 8.88398 131.821 8.54314C131.899 8.2023 131.993 7.89067 132.102 7.60826C132.368 6.88762 132.745 6.34957 133.233 5.99412C133.721 5.63866 134.312 5.46094 135.001 5.46094C135.683 5.46094 136.187 5.57293 136.518 5.79691C136.849 6.02089 137.07 6.30088 137.184 6.63686C137.298 6.97282 137.364 7.30636 137.384 7.63747C137.394 7.85172 137.401 8.08057 137.406 8.32403C137.41 8.56749 137.419 8.81338 137.428 9.06172C137.438 9.31004 137.448 9.55107 137.458 9.7848C137.467 10.0185 137.483 10.2328 137.502 10.4275C137.571 11.4306 137.722 12.2924 137.953 13.0131C138.185 13.7338 138.532 14.2888 138.997 14.6784C139.46 15.0678 140.072 15.2626 140.831 15.2626C141.561 15.2626 142.166 15.1092 142.643 14.8025C143.122 14.4957 143.507 14.0381 143.797 13.4294C144.089 12.8208 144.313 12.0636 144.47 11.1579C144.53 10.8658 144.577 10.576 144.611 10.2887C144.646 10.0015 144.675 9.71663 144.7 9.43421C144.725 9.15179 144.757 8.86452 144.796 8.57235C144.835 8.2802 144.885 7.99293 144.944 7.71051C145.112 7.06777 145.396 6.55407 145.795 6.1694C146.195 5.78474 146.784 5.5924 147.563 5.5924C148.234 5.5924 148.745 5.7823 149.094 6.1621C149.445 6.5419 149.694 7.05804 149.842 7.71051C149.881 8.0124 149.913 8.32646 149.938 8.6527C149.963 8.97893 149.979 9.30761 149.99 9.63871C150 9.96982 150.002 10.3058 149.997 10.6466C149.993 10.9875 149.979 11.3235 149.961 11.6546C149.891 13.5438 149.477 15.102 148.717 16.329C147.958 17.556 146.9 18.4665 145.544 19.0606C144.187 19.6547 142.563 19.9516 140.668 19.9516Z" fill="black"/>
<path d="M140.668 19.9516C139.15 19.9516 137.823 19.7521 136.689 19.3528C135.553 18.9535 134.609 18.3618 133.855 17.578C133.1 16.794 132.535 15.8299 132.161 14.6856C131.786 13.5414 131.598 12.2291 131.598 10.7489C131.598 10.3594 131.616 9.97956 131.65 9.6095C131.684 9.23944 131.741 8.88398 131.821 8.54314C131.899 8.2023 131.993 7.89067 132.102 7.60826C132.368 6.88762 132.745 6.34957 133.233 5.99412C133.721 5.63866 134.312 5.46094 135.001 5.46094C135.683 5.46094 136.187 5.57293 136.518 5.79691C136.849 6.02089 137.07 6.30088 137.184 6.63686C137.298 6.97282 137.364 7.30636 137.384 7.63747C137.394 7.85172 137.401 8.08057 137.406 8.32403C137.41 8.56749 137.419 8.81338 137.428 9.06172C137.438 9.31004 137.448 9.55107 137.458 9.7848C137.467 10.0185 137.483 10.2328 137.502 10.4275C137.571 11.4306 137.722 12.2924 137.953 13.0131C138.185 13.7338 138.532 14.2888 138.997 14.6784C139.46 15.0678 140.072 15.2626 140.831 15.2626C141.561 15.2626 142.166 15.1092 142.643 14.8025C143.122 14.4957 143.507 14.0381 143.797 13.4294C144.089 12.8208 144.313 12.0636 144.47 11.1579C144.53 10.8658 144.577 10.576 144.611 10.2887C144.646 10.0015 144.675 9.71663 144.7 9.43421C144.725 9.15179 144.757 8.86452 144.796 8.57235C144.835 8.2802 144.885 7.99293 144.944 7.71051C145.112 7.06777 145.396 6.55407 145.795 6.1694C146.195 5.78474 146.784 5.5924 147.563 5.5924C148.234 5.5924 148.745 5.7823 149.094 6.1621C149.445 6.5419 149.694 7.05804 149.842 7.71051C149.881 8.0124 149.913 8.32646 149.938 8.6527C149.963 8.97893 149.979 9.30761 149.99 9.63871C150 9.96982 150.002 10.3058 149.997 10.6466C149.993 10.9875 149.979 11.3235 149.961 11.6546C149.891 13.5438 149.477 15.102 148.717 16.329C147.958 17.556 146.9 18.4665 145.544 19.0606C144.187 19.6547 142.563 19.9516 140.668 19.9516Z" fill="black"/>
<path d="M157.866 20.6238C157.037 20.6238 156.234 20.5483 155.454 20.3973C154.676 20.2464 153.98 19.9957 153.369 19.645C152.757 19.2944 152.268 18.8295 151.903 18.25C151.538 17.6706 151.355 16.9621 151.355 16.1247C151.355 15.2482 151.58 14.5202 152.029 13.9408C152.477 13.3613 153.082 12.9061 153.841 12.575C154.601 12.2438 155.461 12.0077 156.423 11.8665C157.386 11.7253 158.379 11.6547 159.405 11.6547C159.681 11.6547 159.959 11.6644 160.24 11.6839C160.522 11.7034 160.783 11.7204 161.025 11.735C161.266 11.7496 161.461 11.7569 161.609 11.7569C161.836 11.7569 161.994 11.7179 162.083 11.6401C162.172 11.5622 162.216 11.4307 162.216 11.2457C162.216 11.0022 162.184 10.7831 162.12 10.5883C162.056 10.3936 161.964 10.2207 161.846 10.0698C161.727 9.91882 161.585 9.78978 161.417 9.68266C161.131 9.48789 160.771 9.34425 160.337 9.25173C159.903 9.15922 159.434 9.11296 158.931 9.11296C158.31 9.11296 157.723 9.17869 157.171 9.31016C156.618 9.44163 156.09 9.5731 155.587 9.70457C155.084 9.83604 154.591 9.90177 154.108 9.90177C153.328 9.90177 152.727 9.77518 152.303 9.52197C151.879 9.26878 151.667 8.87436 151.667 8.33875C151.667 7.82262 151.854 7.36248 152.229 6.95833C152.603 6.5542 153.118 6.21579 153.775 5.9431C154.431 5.67043 155.173 5.4635 156.002 5.32229C156.83 5.18108 157.694 5.11047 158.591 5.11047C160.425 5.11047 161.969 5.31498 163.222 5.72399C164.474 6.133 165.427 6.81469 166.078 7.76906C166.728 8.72342 167.054 10.0284 167.054 11.6839C167.054 12.0929 167.035 12.4532 166.995 12.7649C166.956 13.0764 166.908 13.3467 166.855 13.5756C166.8 13.8045 166.753 14.0065 166.714 14.1818C166.675 14.3571 166.655 14.5178 166.655 14.6639C166.655 14.9268 166.744 15.1799 166.921 15.4234C167.099 15.6669 167.305 15.9177 167.542 16.1758C167.779 16.4339 167.987 16.7114 168.164 17.0084C168.341 17.3054 168.43 17.639 168.43 18.009C168.43 18.564 168.253 18.9683 167.898 19.2214C167.542 19.4746 167.133 19.6012 166.67 19.6012C166.294 19.6012 165.991 19.5014 165.76 19.3018C165.528 19.1021 165.323 18.9025 165.145 18.7029C164.968 18.5032 164.77 18.4034 164.554 18.4034C164.406 18.4034 164.241 18.4472 164.058 18.5349C163.876 18.6225 163.657 18.754 163.399 18.9293C163.103 19.1338 162.717 19.3699 162.238 19.6378C161.759 19.9056 161.166 20.1369 160.455 20.3316C159.745 20.5263 158.882 20.6238 157.866 20.6238ZM158.324 17.4832C158.778 17.4832 159.218 17.4174 159.642 17.2859C160.066 17.1544 160.452 16.9694 160.803 16.7308C161.153 16.4922 161.431 16.2098 161.639 15.8835C161.846 15.5574 161.949 15.2043 161.949 14.8245C161.949 14.5518 161.861 14.3498 161.684 14.2183C161.506 14.0869 161.232 13.9993 160.862 13.9554C160.493 13.9115 160.026 13.8896 159.464 13.8896C158.862 13.8896 158.292 13.9505 157.755 14.0723C157.217 14.1939 156.781 14.3984 156.446 14.6858C156.111 14.9731 155.942 15.3699 155.942 15.8763C155.942 16.2463 156.043 16.5483 156.246 16.7819C156.448 17.0157 156.727 17.1909 157.082 17.3078C157.437 17.4247 157.851 17.4832 158.324 17.4832Z" fill="black"/>
<path d="M157.866 20.6238C157.037 20.6238 156.234 20.5483 155.454 20.3973C154.676 20.2464 153.98 19.9957 153.369 19.645C152.757 19.2944 152.268 18.8295 151.903 18.25C151.538 17.6706 151.355 16.9621 151.355 16.1247C151.355 15.2482 151.58 14.5202 152.029 13.9408C152.477 13.3613 153.082 12.9061 153.841 12.575C154.601 12.2438 155.461 12.0077 156.423 11.8665C157.386 11.7253 158.379 11.6547 159.405 11.6547C159.681 11.6547 159.959 11.6644 160.24 11.6839C160.522 11.7034 160.783 11.7204 161.025 11.735C161.266 11.7496 161.461 11.7569 161.609 11.7569C161.836 11.7569 161.994 11.7179 162.083 11.6401C162.172 11.5622 162.216 11.4307 162.216 11.2457C162.216 11.0022 162.184 10.7831 162.12 10.5883C162.056 10.3936 161.964 10.2207 161.846 10.0698C161.727 9.91882 161.585 9.78978 161.417 9.68266C161.131 9.48789 160.771 9.34425 160.337 9.25173C159.903 9.15922 159.434 9.11296 158.931 9.11296C158.31 9.11296 157.723 9.17869 157.171 9.31016C156.618 9.44163 156.09 9.5731 155.587 9.70457C155.084 9.83604 154.591 9.90177 154.108 9.90177C153.328 9.90177 152.727 9.77518 152.303 9.52197C151.879 9.26878 151.667 8.87436 151.667 8.33875C151.667 7.82262 151.854 7.36248 152.229 6.95833C152.603 6.5542 153.118 6.21579 153.775 5.9431C154.431 5.67043 155.173 5.4635 156.002 5.32229C156.83 5.18108 157.694 5.11047 158.591 5.11047C160.425 5.11047 161.969 5.31498 163.222 5.72399C164.474 6.133 165.427 6.81469 166.078 7.76906C166.728 8.72342 167.054 10.0284 167.054 11.6839C167.054 12.0929 167.035 12.4532 166.995 12.7649C166.956 13.0764 166.908 13.3467 166.855 13.5756C166.8 13.8045 166.753 14.0065 166.714 14.1818C166.675 14.3571 166.655 14.5178 166.655 14.6639C166.655 14.9268 166.744 15.1799 166.921 15.4234C167.099 15.6669 167.305 15.9177 167.542 16.1758C167.779 16.4339 167.987 16.7114 168.164 17.0084C168.341 17.3054 168.43 17.639 168.43 18.009C168.43 18.564 168.253 18.9683 167.898 19.2214C167.542 19.4746 167.133 19.6012 166.67 19.6012C166.294 19.6012 165.991 19.5014 165.76 19.3018C165.528 19.1021 165.323 18.9025 165.145 18.7029C164.968 18.5032 164.77 18.4034 164.554 18.4034C164.406 18.4034 164.241 18.4472 164.058 18.5349C163.876 18.6225 163.657 18.754 163.399 18.9293C163.103 19.1338 162.717 19.3699 162.238 19.6378C161.759 19.9056 161.166 20.1369 160.455 20.3316C159.745 20.5263 158.882 20.6238 157.866 20.6238ZM158.324 17.4832C158.778 17.4832 159.218 17.4174 159.642 17.2859C160.066 17.1544 160.452 16.9694 160.803 16.7308C161.153 16.4922 161.431 16.2098 161.639 15.8835C161.846 15.5574 161.949 15.2043 161.949 14.8245C161.949 14.5518 161.861 14.3498 161.684 14.2183C161.506 14.0869 161.232 13.9993 160.862 13.9554C160.493 13.9115 160.026 13.8896 159.464 13.8896C158.862 13.8896 158.292 13.9505 157.755 14.0723C157.217 14.1939 156.781 14.3984 156.446 14.6858C156.111 14.9731 155.942 15.3699 155.942 15.8763C155.942 16.2463 156.043 16.5483 156.246 16.7819C156.448 17.0157 156.727 17.1909 157.082 17.3078C157.437 17.4247 157.851 17.4832 158.324 17.4832Z" fill="black"/>
<path d="M40.3721 38.496C39.3943 38.3604 38.5284 38.0569 37.7743 37.5855C37.0201 37.1141 36.497 36.3949 36.2044 35.4277C36.1436 35.1683 36.1175 34.8365 36.1262 34.4323C36.1348 34.0281 36.1633 33.5881 36.2115 33.1122C36.2596 32.6364 36.3174 32.1618 36.3847 31.6885L36.7365 29.2183C36.8523 28.4043 36.7994 27.7116 36.5777 27.1404C36.356 26.5691 35.8011 26.1737 34.9135 25.954C32.9599 25.3933 31.3419 24.9131 30.0595 24.5132C28.7771 24.1132 27.7699 23.7033 27.0379 23.2832C26.3058 22.8632 25.7597 22.3386 25.3995 21.7095C25.1823 21.3125 25.0397 20.9067 24.9716 20.4918C24.9036 20.0771 24.8979 19.6709 24.9545 19.2734C25.0407 18.6676 25.2601 18.1913 25.6125 17.8446C25.9649 17.4977 26.4422 17.2695 27.0443 17.16C27.4029 17.1134 27.8779 17.1068 28.4695 17.1406C29.061 17.1744 29.7162 17.2412 30.4353 17.341C31.1543 17.4408 31.8816 17.5514 32.617 17.6727C33.3525 17.794 34.0558 17.9013 34.7268 17.9944C35.0528 18.0396 35.3574 18.0288 35.6406 17.9619C35.9239 17.8951 36.1707 17.775 36.3812 17.6015C36.5915 17.428 36.7602 17.2052 36.8868 16.9332C37.0135 16.6613 37.1025 16.3454 37.1537 15.9858C37.2292 15.4558 37.2615 14.9536 37.2509 14.4792C37.2402 14.0048 37.1851 13.5676 37.0856 13.1677C36.9861 12.7678 36.8305 12.4181 36.619 12.1185C36.2068 11.4436 35.5572 10.8564 34.6702 10.3569C33.7833 9.85744 32.5537 9.49862 30.9814 9.28047C29.5052 9.07563 28.1623 8.89413 26.9531 8.73599C25.7438 8.57785 24.7582 8.35906 23.9964 8.07962C23.3001 7.75138 22.7885 7.3281 22.4615 6.80979C22.1344 6.29148 22.0329 5.59695 22.1568 4.72619C22.297 3.74186 22.8441 2.92017 23.7981 2.26112C24.7523 1.60207 25.949 1.09251 27.3885 0.732438C28.8279 0.37237 30.3786 0.158033 32.0406 0.0894266C33.7025 0.0208206 35.31 0.0942624 36.863 0.309751C39.3171 0.650278 41.5043 1.25295 43.4244 2.11777C45.3445 2.9826 46.9469 4.12184 48.2316 5.53551C49.2116 6.61735 49.9955 7.87469 50.5834 9.30749C51.1714 10.7403 51.5454 12.3365 51.7055 14.096C51.8656 15.8555 51.7974 17.7764 51.5011 19.8586C51.3717 20.7672 51.1899 21.7699 50.9555 22.8667C50.7212 23.9633 50.4438 25.0879 50.1234 26.2402C49.8029 27.3926 49.4522 28.5167 49.0715 29.6123C48.6906 30.708 48.2912 31.7288 47.873 32.6745C47.4549 33.6203 47.0221 34.4288 46.5746 35.1004C46.0833 35.8043 45.533 36.4421 44.9237 37.0139C44.3145 37.5857 43.6336 38.0076 42.8812 38.2796C42.1289 38.5516 41.2925 38.6238 40.3721 38.496Z" fill="black"/>
<path d="M13.8624 39.3709C15.6122 39.6756 17.3807 39.8758 19.1679 39.9716C20.955 40.0674 22.4944 40.0515 23.7862 39.9241C25.1842 39.7563 26.5008 39.462 27.7359 39.0408C28.971 38.6196 30.0226 38.0049 30.8906 37.1969C31.7586 36.3888 32.3112 35.3203 32.5485 33.9914C32.6876 33.2131 32.6985 32.5689 32.5813 32.0592C32.4642 31.5495 32.2309 31.1076 31.8813 30.7334C31.5091 30.3751 31.0001 30.0613 30.3542 29.7924C29.7083 29.5233 29.033 29.3079 28.3283 29.146C27.4709 28.8402 26.3516 28.474 24.9705 28.0477C23.5894 27.6212 22.1047 27.1915 20.5166 26.7584C19.5811 26.5565 18.8261 26.288 18.2515 25.9531C17.6767 25.6181 17.2474 25.1911 16.9635 24.6718C16.6794 24.1526 16.5081 23.5306 16.4491 22.8059C16.3902 22.0811 16.4184 21.2296 16.5336 20.2513C16.5742 19.6907 16.6432 19.1106 16.7404 18.511C16.8375 17.9113 16.9373 17.2973 17.0396 16.6692C17.1418 16.0409 17.2555 15.405 17.3804 14.7612C17.5053 14.1174 17.6284 13.4831 17.75 12.8583C17.8714 12.2334 17.9887 11.6324 18.1017 11.055C18.2147 10.4777 18.317 9.93268 18.4086 9.42011C18.6493 8.0722 18.7499 6.87116 18.71 5.81699C18.6703 4.76282 18.3408 3.8882 17.7214 3.19313C17.102 2.49806 16.0424 2.01998 14.5426 1.75887C12.3504 1.37726 10.4426 1.90153 8.8191 3.33171C7.1956 4.76189 5.80379 6.89304 4.64369 9.72519C4.38363 10.4042 4.09362 11.1954 3.77365 12.0989C3.45367 13.0023 3.1306 13.9787 2.80442 15.0279C2.47825 16.0771 2.17045 17.1343 1.88104 18.1998C1.59163 19.2651 1.32258 20.2998 1.07387 21.3038C0.825173 22.3077 0.627925 23.2179 0.482127 24.0342C-0.138356 27.5083 -0.00589564 30.3746 0.879509 32.6332C1.76491 34.8916 3.78954 36.5995 6.95339 37.7572C7.52915 37.9748 8.19569 38.1838 8.95299 38.3842C9.71028 38.5845 10.5111 38.7631 11.3555 38.9198C12.1999 39.0767 13.0355 39.227 13.8624 39.3709Z" fill="black"/>
</g>
</svg>
