<svg width="168" height="52" viewBox="0 0 168 52" fill="none" xmlns="http://www.w3.org/2000/svg">
<path d="M11.9587 14.2861H10.1949L4.32052 6.60867H3.76837L3.30823 5.87962C3.13377 5.63133 2.97272 5.45092 2.82509 5.33654C2.67651 5.22216 2.52026 5.1459 2.35729 5.10592C2.19337 5.06593 2.00452 5.0464 1.78979 5.0464V4.40662H5.47085L10.8544 11.4145H10.9311V6.96577C10.9311 6.57892 10.9081 6.24136 10.8621 5.95401C10.8161 5.66666 10.6934 5.44348 10.494 5.28446C10.2946 5.12545 9.95427 5.0464 9.47401 5.0464V4.40662H13.3391V5.0464C12.8991 5.0464 12.5818 5.12545 12.3882 5.28446C12.1936 5.44348 12.0738 5.66666 12.0277 5.95401C11.9817 6.24136 11.9587 6.57892 11.9587 6.96577V14.2861ZM5.63957 14.182H1.78979V13.5422C2.19816 13.5422 2.50492 13.4083 2.71006 13.1405C2.91424 12.8726 3.05228 12.523 3.12418 12.0915C3.19512 11.66 3.23154 11.196 3.23154 10.7003V5.5374H4.24384V11.7716C4.24384 12.2673 4.2793 12.642 4.3512 12.895C4.42214 13.1479 4.56018 13.319 4.76532 13.4083C4.9695 13.4976 5.26092 13.5422 5.63957 13.5422V14.182Z" fill="currentColor"/>
<path d="M15.0876 14.3456C14.5249 14.3456 14.0619 14.2144 13.6995 13.9513C13.3362 13.6881 13.155 13.2548 13.155 12.6494C13.155 12.2328 13.2471 11.8831 13.4311 11.6004C13.6152 11.3177 13.8548 11.0825 14.152 10.8937C14.4482 10.7049 14.7751 10.5487 15.1336 10.425C15.4912 10.3013 15.8487 10.1944 16.2072 10.1051C16.5648 10.0158 16.8869 9.93121 17.1735 9.85216V9.13798C17.1735 8.50285 17.1064 8.08903 16.9741 7.89561C16.8409 7.70218 16.5907 7.60547 16.2226 7.60547C15.9158 7.60547 15.7088 7.67522 15.6014 7.81378C15.494 7.95233 15.4404 8.23503 15.4404 8.66186C15.4404 8.99942 15.3378 9.24214 15.1336 9.39093C14.9285 9.53971 14.6936 9.61411 14.4281 9.61411C14.2028 9.61411 13.9909 9.53227 13.7915 9.36861C13.5922 9.20494 13.4925 8.95479 13.4925 8.61723C13.4925 8.31965 13.6094 8.0444 13.8452 7.79146C14.0801 7.53852 14.4146 7.33487 14.8498 7.18143C15.2841 7.02799 15.7979 6.95081 16.3913 6.95081C17.3518 6.95081 18.088 7.12935 18.5999 7.48644C19.1109 7.84353 19.3668 8.43403 19.3668 9.25701V12.4857C19.3668 12.7833 19.4052 12.9767 19.4818 13.066C19.5585 13.1553 19.6784 13.1999 19.8423 13.1999C19.965 13.1999 20.0896 13.1599 20.2181 13.0809C20.3456 13.0018 20.4654 12.907 20.5785 12.7982L20.9159 13.1255C20.66 13.4928 20.3762 13.7848 20.0647 14.0033C19.7522 14.2219 19.3103 14.3307 18.738 14.3307C18.1858 14.3307 17.8148 14.2461 17.626 14.0777C17.4362 13.9094 17.3116 13.6165 17.2502 13.1999L17.1735 12.9023V10.4324C16.7747 10.5515 16.4392 10.6779 16.1689 10.8118C15.8976 10.9458 15.6934 11.1215 15.5554 11.34C15.4173 11.5586 15.3483 11.8562 15.3483 12.2328C15.3483 12.6001 15.4068 12.8679 15.5247 13.0362C15.6417 13.2045 15.818 13.2892 16.0539 13.2892C16.2782 13.2892 16.4833 13.2371 16.6674 13.1329C16.8514 13.0288 17.0815 12.8382 17.3576 12.5601L17.4496 13.3933H17.2195C16.9741 13.5914 16.7565 13.7625 16.5677 13.9066C16.3779 14.0508 16.1737 14.1596 15.9542 14.234C15.7337 14.3084 15.4451 14.3456 15.0876 14.3456Z" fill="currentColor"/>
<path d="M25.4866 12.5155L25.8701 12.9321C25.6649 13.1999 25.4502 13.4454 25.2259 13.6686C25.0006 13.8918 24.7245 14.0676 24.3976 14.1968C24.0698 14.3261 23.6355 14.3902 23.0939 14.3902C22.5005 14.3902 22.0529 14.2312 21.7519 13.9141C21.4499 13.597 21.2994 13.0112 21.2994 12.1584V8.12628H20.3331V7.50137C20.7626 7.24378 21.169 6.92389 21.5525 6.54169C21.9359 6.15949 22.281 5.6564 22.5878 5.03149H23.4927V7.21867H25.4099V8.12628H23.4927V11.6377C23.4927 12.1835 23.5483 12.5481 23.6614 12.7313C23.7736 12.9145 23.973 13.0065 24.2596 13.0065C24.5558 13.0065 24.7887 12.9619 24.9575 12.8726C25.1262 12.7833 25.3026 12.6643 25.4866 12.5155Z" fill="currentColor"/>
<path d="M29.6585 14.182H25.1185V13.5868C25.4559 13.5868 25.7061 13.5599 25.87 13.505C26.033 13.4501 26.1432 13.346 26.1998 13.1925C26.2554 13.0391 26.2842 12.8234 26.2842 12.5453V8.75122C26.2842 8.41366 26.2123 8.20815 26.0694 8.13375C25.9256 8.05936 25.7368 8.02217 25.5019 8.02217C25.3994 8.02217 25.3073 8.02681 25.2258 8.03704C25.1434 8.04727 25.1031 8.05192 25.1031 8.05192V7.42701L27.4038 7.0104H28.4775V12.5007C28.4775 12.788 28.5053 13.0112 28.5618 13.1702C28.6174 13.3292 28.7305 13.438 28.8992 13.4976C29.068 13.5571 29.321 13.5868 29.6585 13.5868V14.182ZM27.3271 6.07304C26.9485 6.07304 26.6494 5.9661 26.4299 5.75315C26.2094 5.5402 26.1001 5.25936 26.1001 4.9125C26.1001 4.56564 26.2075 4.2848 26.4222 4.07185C26.6369 3.8589 26.9379 3.75195 27.3271 3.75195C27.7355 3.75195 28.0451 3.8561 28.2551 4.06441C28.464 4.27271 28.5695 4.55076 28.5695 4.89762C28.5695 5.25471 28.464 5.5402 28.2551 5.75315C28.0451 5.9661 27.7355 6.07304 27.3271 6.07304Z" fill="currentColor"/>
<path d="M33.4162 14.3307C32.2093 14.3307 31.289 14.0331 30.6554 13.438C30.0208 12.8428 29.7045 11.9008 29.7045 10.611C29.7045 9.91634 29.8368 9.29423 30.1032 8.74371C30.3688 8.1932 30.78 7.75892 31.3379 7.44182C31.8949 7.12472 32.6033 6.9657 33.4622 6.9657C34.6892 6.9657 35.6066 7.27815 36.2153 7.90306C36.8231 8.52797 37.1279 9.37606 37.1279 10.4473C37.1279 11.2908 36.9841 12.0022 36.6985 12.5824C36.4119 13.1627 35.9949 13.5988 35.4485 13.8918C34.9011 14.1847 34.2234 14.3307 33.4162 14.3307ZM33.4622 13.6016C33.7996 13.6016 34.0652 13.49 34.2598 13.2669C34.4534 13.0437 34.5915 12.7089 34.6739 12.2625C34.7554 11.8162 34.7966 11.2508 34.7966 10.5664C34.7966 9.63365 34.6816 8.91947 34.4515 8.42382C34.2214 7.92817 33.8505 7.67988 33.3395 7.67988C32.8487 7.67988 32.5084 7.93003 32.3196 8.43125C32.1297 8.93248 32.0358 9.60947 32.0358 10.4622C32.0358 11.5233 32.148 12.3118 32.3732 12.8279C32.5976 13.344 32.9609 13.6016 33.4622 13.6016Z" fill="currentColor"/>
<path d="M46.7294 14.1819H42.4655V13.5868C42.7722 13.5868 42.9966 13.5542 43.1403 13.49C43.2832 13.4259 43.3752 13.3161 43.4164 13.1627C43.4567 13.0093 43.4778 12.7935 43.4778 12.5155V10.1944C43.4778 9.7285 43.4318 9.36397 43.3397 9.1008C43.2477 8.83763 43.1097 8.65444 42.9256 8.55029C42.7416 8.44614 42.5115 8.39406 42.2354 8.39406C41.9996 8.39406 41.7906 8.42847 41.6066 8.49822C41.4225 8.56796 41.248 8.66188 41.0851 8.78091C40.9212 8.89994 40.7524 9.0292 40.5789 9.16775L40.4869 8.2304H40.763C41.1512 7.85378 41.527 7.54876 41.8903 7.31535C42.2527 7.08194 42.6649 6.9657 43.125 6.9657C43.9322 6.9657 44.5591 7.20376 45.0039 7.67988C45.4487 8.156 45.6711 8.88506 45.6711 9.86706V12.5155C45.6711 12.7833 45.696 12.9963 45.7478 13.1553C45.7986 13.3143 45.9011 13.4259 46.0545 13.49C46.2079 13.5542 46.4322 13.5868 46.7294 13.5868V14.1819ZM41.8366 14.1819H37.4807V13.5868C37.8181 13.5868 38.0607 13.5542 38.2093 13.49C38.3569 13.4259 38.4489 13.3143 38.4853 13.1553C38.5208 12.9963 38.539 12.7833 38.539 12.5155V8.69164C38.539 8.41359 38.4873 8.23318 38.3856 8.14856C38.2831 8.06393 38.1249 8.02209 37.9102 8.02209C37.7769 8.02209 37.6744 8.02674 37.6034 8.03697C37.5315 8.0472 37.496 8.05185 37.496 8.05185V7.44182L39.8581 7.01033H40.7016V8.4387L40.7477 8.82555V12.5155C40.7477 12.7833 40.7678 12.9963 40.809 13.1553C40.8493 13.3143 40.947 13.4259 41.1004 13.49C41.2538 13.5542 41.4992 13.5868 41.8366 13.5868V14.1819Z" fill="currentColor"/>
<path d="M48.3705 14.3456C47.8078 14.3456 47.3448 14.2144 46.9825 13.9513C46.6192 13.6881 46.438 13.2548 46.438 12.6494C46.438 12.2328 46.53 11.8831 46.7141 11.6004C46.8981 11.3177 47.1378 11.0825 47.4349 10.8937C47.7312 10.7049 48.058 10.5487 48.4166 10.425C48.7741 10.3013 49.1317 10.1944 49.4902 10.1051C49.8478 10.0158 50.1699 9.93121 50.4565 9.85216V9.13798C50.4565 8.50285 50.3894 8.08903 50.2571 7.89561C50.1238 7.70218 49.8736 7.60547 49.5055 7.60547C49.1988 7.60547 48.9917 7.67522 48.8844 7.81378C48.777 7.95233 48.7233 8.23503 48.7233 8.66186C48.7233 8.99942 48.6207 9.24214 48.4166 9.39093C48.2114 9.53971 47.9766 9.61411 47.711 9.61411C47.4858 9.61411 47.2739 9.53227 47.0745 9.36861C46.8751 9.20494 46.7754 8.95479 46.7754 8.61723C46.7754 8.31965 46.8924 8.0444 47.1282 7.79146C47.363 7.53852 47.6976 7.33487 48.1328 7.18143C48.5671 7.02799 49.0809 6.95081 49.6743 6.95081C50.6348 6.95081 51.371 7.12935 51.8829 7.48644C52.3938 7.84353 52.6498 8.43403 52.6498 9.25701V12.4857C52.6498 12.7833 52.6881 12.9767 52.7648 13.066C52.8415 13.1553 52.9613 13.1999 53.1253 13.1999C53.248 13.1999 53.3726 13.1599 53.501 13.0809C53.6285 13.0018 53.7483 12.907 53.8615 12.7982L54.1989 13.1255C53.9429 13.4928 53.6592 13.7848 53.3476 14.0033C53.0351 14.2219 52.5932 14.3307 52.0209 14.3307C51.4688 14.3307 51.0978 14.2461 50.9089 14.0777C50.7191 13.9094 50.5945 13.6165 50.5332 13.1999L50.4565 12.9023V10.4324C50.0577 10.5515 49.7222 10.6779 49.4519 10.8118C49.1806 10.9458 48.9764 11.1215 48.8384 11.34C48.7003 11.5586 48.6313 11.8562 48.6313 12.2328C48.6313 12.6001 48.6898 12.8679 48.8077 13.0362C48.9246 13.2045 49.101 13.2892 49.3368 13.2892C49.5611 13.2892 49.7663 13.2371 49.9503 13.1329C50.1344 13.0288 50.3645 12.8382 50.6405 12.5601L50.7326 13.3933H50.5025C50.2571 13.5914 50.0395 13.7625 49.8506 13.9066C49.6608 14.0508 49.4567 14.1596 49.2371 14.234C49.0167 14.3084 48.7281 14.3456 48.3705 14.3456Z" fill="currentColor"/>
<path d="M58.1254 14.1819H53.5854V13.5868C53.9228 13.5868 54.1701 13.5542 54.3293 13.49C54.4874 13.4259 54.59 13.3143 54.636 13.1553C54.682 12.9963 54.705 12.7833 54.705 12.5164V5.32904C54.705 5.04169 54.6284 4.865 54.475 4.80084C54.3216 4.73667 54.1491 4.70413 53.9592 4.70413C53.8289 4.70413 53.7158 4.70878 53.6209 4.71901C53.525 4.72924 53.478 4.73389 53.478 4.73389V4.13873L55.8861 3.67749H56.8983V12.509C56.8983 12.7907 56.9223 13.0102 56.9722 13.1683C57.0211 13.3255 57.1342 13.4342 57.3096 13.4956C57.485 13.5561 57.7573 13.5868 58.1254 13.5868V14.1819Z" fill="currentColor"/>
<path d="M63.8855 47.269H59.8999V46.7767C60.1922 46.7767 60.4158 46.7527 60.5697 46.703C60.7237 46.6533 60.8296 46.5587 60.8875 46.4176C60.9453 46.2765 60.9738 46.0648 60.9738 45.7842V41.2143C60.9738 40.9449 60.9453 40.7413 60.8875 40.6066C60.8296 40.4719 60.7237 40.3805 60.5697 40.3356C60.4158 40.2891 60.1922 40.2667 59.8999 40.2667V39.7648H66.3932L66.4736 41.8653H65.8725C65.8264 41.5911 65.7744 41.365 65.7165 41.1854C65.6597 41.0059 65.5724 40.8664 65.4566 40.7653C65.3419 40.6627 65.1742 40.5906 64.9545 40.5489C64.7348 40.5056 64.4367 40.4831 64.0591 40.4831H62.6842V43.1673H63.5737C63.9051 43.1673 64.169 43.1433 64.3651 43.0936C64.5612 43.0439 64.7025 42.9429 64.7868 42.7905C64.8712 42.6382 64.9143 42.4105 64.9143 42.1058H65.4566V44.7788H64.9143C64.9143 44.4661 64.8712 44.2417 64.7868 44.1054C64.7025 43.9675 64.5612 43.8793 64.3651 43.8424C64.169 43.8039 63.9051 43.7847 63.5737 43.7847H62.6842V45.8644C62.6842 46.1225 62.7204 46.3166 62.792 46.4464C62.8646 46.5763 62.9872 46.6629 63.1618 46.7094C63.3363 46.7543 63.5776 46.7767 63.8855 46.7767V47.269Z" fill="currentColor"/>
<path d="M68.9921 47.383C68.0839 47.383 67.3906 47.1537 66.9129 46.6983C66.4353 46.2413 66.196 45.5165 66.196 44.5272C66.196 43.9948 66.2961 43.517 66.4971 43.0937C66.6972 42.672 67.0071 42.3384 67.4268 42.0947C67.8466 41.851 68.3801 41.7291 69.0274 41.7291C69.9512 41.7291 70.6426 41.9697 71.1006 42.4491C71.5596 42.9285 71.7881 43.5795 71.7881 44.4021C71.7881 45.0483 71.6802 45.5951 71.4645 46.0408C71.2497 46.4866 70.9349 46.8217 70.523 47.0462C70.1111 47.2707 69.6011 47.383 68.9921 47.383ZM69.0274 46.8234C69.2814 46.8234 69.4814 46.7368 69.6276 46.5668C69.7747 46.3952 69.8786 46.1371 69.9394 45.7955C70.0012 45.4524 70.0326 45.0178 70.0326 44.4935C70.0326 43.7768 69.9453 43.2284 69.7727 42.8483C69.5991 42.4683 69.3196 42.2775 68.9342 42.2775C68.5645 42.2775 68.3085 42.4699 68.1663 42.8548C68.0241 43.238 67.9525 43.7575 67.9525 44.4133C67.9525 45.2279 68.0369 45.834 68.2065 46.2285C68.3762 46.6245 68.6498 46.8234 69.0274 46.8234Z" fill="currentColor"/>
<path d="M74.4341 47.3829C73.8565 47.3829 73.4269 47.2353 73.1464 46.9435C72.865 46.6501 72.7247 46.1257 72.7247 45.3721V43.1673C72.7247 42.9316 72.7012 42.7633 72.6551 42.659C72.609 42.5564 72.5257 42.4923 72.407 42.465C72.2873 42.4394 72.1236 42.4249 71.9156 42.4249V41.9567L73.8339 41.8092H74.3763V45.0418C74.3763 45.3994 74.4096 45.6655 74.4743 45.8403C74.54 46.0151 74.6342 46.1305 74.7578 46.1835C74.8813 46.2364 75.0235 46.2636 75.1854 46.2636C75.4315 46.2636 75.6355 46.2219 75.7973 46.137C75.9591 46.0536 76.1484 45.9253 76.3642 45.7489V43.1224C76.3642 42.9012 76.3348 42.7424 76.2769 42.643C76.219 42.5436 76.119 42.4826 75.9768 42.4602C75.8346 42.4377 75.6355 42.4249 75.3815 42.4249V41.9567L77.542 41.8092H78.0157V45.7265C78.0157 46.084 78.0696 46.3165 78.1775 46.424C78.2854 46.5298 78.4933 46.5827 78.8013 46.5827H78.8709V47.006L76.8722 47.3363H76.4211V46.3438H76.375C76.1288 46.602 75.9072 46.8072 75.711 46.9595C75.5149 47.1119 75.3178 47.2209 75.1216 47.285C74.9255 47.3508 74.696 47.3829 74.4341 47.3829Z" fill="currentColor"/>
<path d="M85.6064 47.2691H82.3946V46.8121C82.626 46.8121 82.7957 46.7865 82.9036 46.7368C83.0114 46.6887 83.0801 46.6037 83.1115 46.4866C83.1419 46.368 83.1576 46.2028 83.1576 45.9895V44.2081C83.1576 43.8489 83.1223 43.5699 83.0536 43.3679C82.984 43.1658 82.88 43.0247 82.7417 42.9462C82.6025 42.866 82.4299 42.8259 82.221 42.8259C82.0445 42.8259 81.8866 42.8515 81.7473 42.9061C81.609 42.959 81.4786 43.0311 81.355 43.1225C81.2314 43.2139 81.1049 43.3134 80.9735 43.4192L80.9039 42.6992H81.1128C81.405 42.4106 81.6884 42.1765 81.9611 41.9969C82.2347 41.8189 82.5446 41.7291 82.8918 41.7291C83.4998 41.7291 83.9716 41.9119 84.307 42.2775C84.6424 42.6431 84.8091 43.2027 84.8091 43.9563V45.9895C84.8091 46.1948 84.8287 46.3583 84.867 46.4802C84.9062 46.6021 84.9827 46.6887 85.0984 46.7368C85.2141 46.7865 85.3838 46.8121 85.6064 46.8121V47.2691ZM81.9209 47.2691H78.6394V46.8121C78.8944 46.8121 79.0768 46.7865 79.1886 46.7368C79.3004 46.6887 79.37 46.6021 79.3965 46.4802C79.424 46.3583 79.4367 46.1948 79.4367 45.9895V43.0536C79.4367 42.8403 79.3985 42.7024 79.321 42.6367C79.2445 42.5725 79.1249 42.5405 78.963 42.5405C78.863 42.5405 78.7865 42.5437 78.7326 42.5517C78.6786 42.5597 78.6512 42.5629 78.6512 42.5629V42.0947L80.4302 41.7628H81.0657V42.8596L81.101 43.1562V45.9895C81.101 46.1948 81.1157 46.3583 81.1471 46.4802C81.1775 46.6021 81.2511 46.6887 81.3668 46.7368C81.4815 46.7865 81.6669 46.8121 81.9209 46.8121V47.2691Z" fill="currentColor"/>
<path d="M87.3511 47.3829C86.9128 47.3829 86.546 47.2626 86.2537 47.0237C85.9615 46.7832 85.7418 46.4625 85.5947 46.0633C85.4485 45.664 85.376 45.2198 85.376 44.7324C85.376 44.0317 85.4927 43.4608 85.7281 43.0199C85.9634 42.5773 86.2792 42.2518 86.6754 42.0433C87.0716 41.8333 87.513 41.7291 87.9984 41.7291C88.1759 41.7291 88.3583 41.7483 88.5476 41.7868C88.7359 41.8237 88.9262 41.8894 89.1194 41.9808H89.1537V40.6788C89.1537 40.4271 89.1253 40.2651 89.0674 40.1929C89.0095 40.1208 88.8683 40.0839 88.6457 40.0839C88.5917 40.0839 88.5221 40.0855 88.4378 40.0903C88.3524 40.0935 88.3103 40.0951 88.3103 40.0951V39.6045L90.1589 39.2052H90.8062V45.967C90.8062 46.2556 90.8523 46.4449 90.9445 46.5315C91.0367 46.6196 91.1906 46.6629 91.4064 46.6629H91.6496V47.1312L89.5813 47.3252H89.1772V46.594H89.1302C88.9154 46.7848 88.6604 46.9644 88.3681 47.1312C88.0749 47.2995 87.7366 47.3829 87.3511 47.3829ZM88.0906 46.4352C88.3142 46.4352 88.4986 46.3984 88.6457 46.3262C88.7918 46.2541 88.9615 46.153 89.1537 46.0231V43.2588C89.0998 43.0535 88.9919 42.8595 88.8301 42.6767C88.6682 42.4939 88.4299 42.4025 88.1141 42.4025C87.8209 42.4025 87.5904 42.5629 87.4208 42.882C87.2511 43.2026 87.1668 43.7045 87.1668 44.3908C87.1668 45.106 87.2433 45.6255 87.3972 45.9494C87.5512 46.2733 87.7827 46.4352 88.0906 46.4352Z" fill="currentColor"/>
<path d="M93.0706 47.3941C92.647 47.3941 92.2978 47.293 92.0252 47.091C91.7516 46.889 91.6143 46.557 91.6143 46.092C91.6143 45.7729 91.6839 45.5036 91.8222 45.2871C91.9614 45.069 92.1419 44.8894 92.3655 44.7435C92.5891 44.5992 92.8353 44.4789 93.1049 44.3843C93.3746 44.2897 93.6443 44.208 93.914 44.139C94.1837 44.0701 94.426 44.0059 94.6417 43.945V43.3966C94.6417 42.9091 94.5917 42.5917 94.4917 42.4425C94.3916 42.295 94.2024 42.2197 93.9258 42.2197C93.6944 42.2197 93.5384 42.2726 93.457 42.38C93.3766 42.4858 93.3364 42.7039 93.3364 43.031C93.3364 43.2892 93.2589 43.4768 93.1049 43.5906C92.951 43.7045 92.7735 43.7622 92.5734 43.7622C92.4037 43.7622 92.2439 43.6997 92.0938 43.573C91.9438 43.4479 91.8692 43.2555 91.8692 42.9973C91.8692 42.7681 91.9575 42.5564 92.134 42.3624C92.3115 42.1684 92.5636 42.0128 92.8911 41.8942C93.2187 41.7771 93.6061 41.7178 94.0523 41.7178C94.7761 41.7178 95.3312 41.8541 95.7166 42.1283C96.101 42.4024 96.2942 42.8562 96.2942 43.488V45.967C96.2942 46.1946 96.3227 46.3438 96.3805 46.4111C96.4384 46.4801 96.5286 46.5154 96.6522 46.5154C96.7444 46.5154 96.8385 46.4849 96.9346 46.424C97.0317 46.363 97.122 46.2893 97.2063 46.2059L97.4603 46.4576C97.2681 46.7399 97.0543 46.9643 96.8199 47.1311C96.5845 47.2995 96.2511 47.3828 95.8205 47.3828C95.4037 47.3828 95.1252 47.3187 94.982 47.1888C94.8398 47.0589 94.7457 46.8345 94.6996 46.5154L94.6417 46.2861V44.3908C94.3416 44.4822 94.0886 44.5784 93.8846 44.681C93.6806 44.7836 93.5267 44.9199 93.4227 45.0867C93.3187 45.255 93.2668 45.4827 93.2668 45.773C93.2668 46.0536 93.3109 46.2588 93.3992 46.3887C93.4884 46.5186 93.6208 46.5827 93.7983 46.5827C93.968 46.5827 94.1219 46.5426 94.2602 46.4624C94.3995 46.3839 94.5721 46.2363 94.78 46.0231L94.8496 46.6629H94.6761C94.4917 46.8152 94.3279 46.9467 94.1857 47.0573C94.0425 47.168 93.8885 47.2513 93.7228 47.3091C93.558 47.3652 93.3403 47.3941 93.0706 47.3941Z" fill="currentColor"/>
<path d="M100.904 45.9895L101.193 46.3086C101.039 46.5154 100.877 46.703 100.708 46.8746C100.538 47.0462 100.33 47.1808 100.084 47.2803C99.8366 47.3797 99.51 47.4278 99.1011 47.4278C98.6549 47.4278 98.3175 47.3059 98.091 47.0622C97.8634 46.8185 97.7497 46.3695 97.7497 45.7153V42.6206H97.022V42.1395C97.3456 41.9423 97.6516 41.697 97.9399 41.4036C98.2292 41.1101 98.4891 40.7237 98.7206 40.2443H99.4022V41.9231H100.846V42.6206H99.4022V45.316C99.4022 45.7345 99.4443 46.0135 99.5287 46.1546C99.614 46.2957 99.7641 46.3663 99.9798 46.3663C100.202 46.3663 100.378 46.3326 100.505 46.2637C100.632 46.1947 100.765 46.1033 100.904 45.9895Z" fill="currentColor"/>
<path d="M104.047 47.2691H100.626V46.8121C100.881 46.8121 101.069 46.7912 101.193 46.7496C101.316 46.7063 101.399 46.6277 101.441 46.509C101.483 46.3904 101.505 46.2252 101.505 46.0119V43.1001C101.505 42.8403 101.451 42.6831 101.343 42.6254C101.235 42.5677 101.093 42.5404 100.915 42.5404C100.838 42.5404 100.769 42.5437 100.708 42.5517C100.646 42.5597 100.615 42.5629 100.615 42.5629V42.0834L102.348 41.7628H103.156V45.9783C103.156 46.198 103.178 46.3695 103.22 46.4914C103.262 46.6133 103.348 46.6982 103.474 46.7431C103.602 46.788 103.792 46.8121 104.047 46.8121V47.2691ZM102.29 41.0444C102.005 41.0444 101.78 40.961 101.615 40.7975C101.449 40.6339 101.366 40.4191 101.366 40.1529C101.366 39.8867 101.447 39.6718 101.609 39.5067C101.771 39.3431 101.997 39.2614 102.29 39.2614C102.598 39.2614 102.832 39.3415 102.99 39.5019C103.148 39.6622 103.226 39.8755 103.226 40.1417C103.226 40.4158 103.148 40.6339 102.99 40.7975C102.832 40.961 102.598 41.0444 102.29 41.0444Z" fill="currentColor"/>
<path d="M106.877 47.383C105.968 47.383 105.275 47.1537 104.797 46.6983C104.319 46.2413 104.081 45.5165 104.081 44.5272C104.081 43.9948 104.181 43.517 104.381 43.0937C104.581 42.672 104.892 42.3384 105.312 42.0947C105.732 41.851 106.265 41.7291 106.912 41.7291C107.836 41.7291 108.528 41.9697 108.986 42.4491C109.444 42.9285 109.673 43.5795 109.673 44.4021C109.673 45.0483 109.565 45.5951 109.35 46.0408C109.134 46.4866 108.82 46.8217 108.408 47.0462C107.996 47.2707 107.485 47.383 106.877 47.383ZM106.912 46.8234C107.166 46.8234 107.367 46.7368 107.513 46.5668C107.659 46.3952 107.763 46.1371 107.825 45.7955C107.886 45.4524 107.917 45.0178 107.917 44.4935C107.917 43.7768 107.83 43.2284 107.657 42.8483C107.483 42.4683 107.205 42.2775 106.819 42.2775C106.45 42.2775 106.194 42.4699 106.051 42.8548C105.908 43.238 105.838 43.7575 105.838 44.4133C105.838 45.2279 105.922 45.834 106.092 46.2285C106.261 46.6245 106.534 46.8234 106.912 46.8234Z" fill="currentColor"/>
<path d="M116.906 47.2691H113.694V46.8121C113.925 46.8121 114.094 46.7865 114.202 46.7368C114.31 46.6887 114.38 46.6037 114.41 46.4866C114.44 46.368 114.456 46.2028 114.456 45.9895V44.2081C114.456 43.8489 114.422 43.5699 114.352 43.3679C114.283 43.1658 114.179 43.0247 114.04 42.9462C113.902 42.866 113.728 42.8259 113.521 42.8259C113.343 42.8259 113.185 42.8515 113.047 42.9061C112.909 42.959 112.777 43.0311 112.654 43.1225C112.531 43.2139 112.404 43.3134 112.273 43.4192L112.203 42.6992H112.411C112.704 42.4106 112.987 42.1765 113.261 41.9969C113.534 41.8189 113.844 41.7291 114.19 41.7291C114.799 41.7291 115.271 41.9119 115.606 42.2775C115.941 42.6431 116.109 43.2027 116.109 43.9563V45.9895C116.109 46.1948 116.128 46.3583 116.167 46.4802C116.205 46.6021 116.282 46.6887 116.397 46.7368C116.513 46.7865 116.682 46.8121 116.906 46.8121V47.2691ZM113.22 47.2691H109.939V46.8121C110.193 46.8121 110.376 46.7865 110.487 46.7368C110.599 46.6887 110.669 46.6021 110.696 46.4802C110.723 46.3583 110.736 46.1948 110.736 45.9895V43.0536C110.736 42.8403 110.697 42.7024 110.621 42.6367C110.543 42.5725 110.424 42.5405 110.263 42.5405C110.163 42.5405 110.085 42.5437 110.031 42.5517C109.977 42.5597 109.951 42.5629 109.951 42.5629V42.0947L111.73 41.7628H112.365V42.8596L112.4 43.1562V45.9895C112.4 46.1948 112.415 46.3583 112.446 46.4802C112.477 46.6021 112.55 46.6887 112.665 46.7368C112.781 46.7865 112.965 46.8121 113.22 46.8121V47.2691Z" fill="currentColor"/>
<path d="M1.78979 31.0688L3.98456 30.6703C4.23114 33.335 5.04045 34.6674 6.41089 34.6674C7.09058 34.6674 7.62405 34.3948 8.01369 33.8495C8.40253 33.3043 8.59696 32.6285 8.59696 31.8226C8.59696 31.3484 8.52899 30.9453 8.39305 30.6136C8.25711 30.2816 8.05004 30.0089 7.77264 29.7957C7.49444 29.5821 6.82186 29.2244 5.75333 28.7215C4.79623 28.276 4.09599 27.7925 3.65104 27.2709C3.20687 26.7493 2.8528 26.0642 2.59041 25.2153C2.32801 24.3667 2.19682 23.454 2.19682 22.4773C2.19682 21.3393 2.36516 20.3152 2.70184 19.4049C3.03853 18.4945 3.50324 17.8071 4.09599 17.3422C4.68875 16.8777 5.41981 16.6451 6.29076 16.6451C7.59955 16.6451 8.62146 17.1904 9.35647 18.281C10.0907 19.3715 10.4803 20.9316 10.523 22.9608L8.27292 23.1457C8.17413 22.0268 7.96074 21.2446 7.63354 20.7987C7.30634 20.3529 6.84004 20.1303 6.23543 20.1303C5.63004 20.1303 5.16374 20.3246 4.83654 20.7133C4.50934 21.1021 4.34574 21.5859 4.34574 22.1643C4.34574 22.7332 4.49353 23.2121 4.78991 23.6008C5.08629 23.9896 5.76914 24.4164 6.83688 24.8813C7.96706 25.3838 8.78348 25.9124 9.28692 26.467C9.79036 27.022 10.1745 27.7378 10.44 28.6151C10.7056 29.492 10.8383 30.5566 10.8383 31.8083C10.8383 33.6196 10.4756 35.1416 9.75006 36.3743C9.02453 37.607 7.88961 38.2234 6.34608 38.2234C3.61705 38.2234 2.09803 35.8384 1.78979 31.0688Z" fill="currentColor"/>
<path d="M19.8592 30.1868L22.0358 31.4812C21.696 33.8138 21.1309 35.5184 20.3405 36.5949C19.5502 37.6711 18.5781 38.2094 17.4234 38.2094C15.9723 38.2094 14.7963 37.3511 13.8945 35.6345C12.8568 33.6526 12.3384 30.9787 12.3384 27.6123C12.3384 24.056 12.86 21.2729 13.904 19.2627C14.8113 17.5178 16.0308 16.6451 17.5625 16.6451C18.8096 16.6451 19.8529 17.2995 20.693 18.6083C21.2913 19.5377 21.7299 20.9172 22.0081 22.7476L19.7849 23.7433C19.6427 22.6148 19.3605 21.7495 18.9377 21.1471C18.5149 20.5451 18.0162 20.2441 17.4416 20.2441C16.6204 20.2441 15.951 20.7941 15.4318 21.894C14.9133 22.9942 14.6541 24.8099 14.6541 27.342C14.6541 29.9686 14.907 31.8366 15.4136 32.9462C15.9194 34.0558 16.577 34.6104 17.3863 34.6104C17.979 34.6104 18.4911 34.2573 18.9235 33.5509C19.3558 32.8444 19.668 31.7228 19.8592 30.1868Z" fill="currentColor"/>
<path d="M23.9619 37.8536V17.0009H32.2233V20.5284H26.2033V25.1512H31.7973V28.6648H26.2033V34.3404H32.4272V37.8536H23.9619Z" fill="currentColor"/>
<path d="M34.354 37.8536V17.0009H36.5393L41.0964 30.9263V17.0009H43.1892V37.8536H40.9296L36.4468 24.2552V37.8536H34.354Z" fill="currentColor"/>
<path d="M47.7281 17.0009H45.4867V37.8536H47.7281V17.0009Z" fill="currentColor"/>
<path d="M57.0081 30.1868L59.1847 31.4812C58.8449 33.8138 58.2798 35.5184 57.4895 36.5949C56.6991 37.6711 55.727 38.2094 54.5723 38.2094C53.1213 38.2094 51.9445 37.3511 51.0435 35.6345C50.0058 33.6526 49.4873 30.9787 49.4873 27.6123C49.4873 24.056 50.0089 21.2729 51.053 19.2627C51.9603 17.5178 53.1798 16.6451 54.7106 16.6451C55.9586 16.6451 57.0018 17.2995 57.8412 18.6083C58.4402 19.5377 58.8789 20.9172 59.1563 22.7476L56.9339 23.7433C56.7916 22.6148 56.5094 21.7495 56.0866 21.1471C55.6638 20.5451 55.1651 20.2441 54.5905 20.2441C53.7693 20.2441 53.0991 20.7941 52.5807 21.894C52.0622 22.9942 51.803 24.8099 51.803 27.342C51.803 29.9686 52.0559 31.8366 52.5625 32.9462C53.0683 34.0558 53.7259 34.6104 54.5352 34.6104C55.1279 34.6104 55.6401 34.2573 56.0724 33.5509C56.5047 32.8444 56.8169 31.7228 57.0081 30.1868Z" fill="currentColor"/>
<path d="M64.1016 16.9719H68.1939C69.3112 16.9719 70.0967 17.1429 70.5505 17.4848C71.0042 17.8267 71.3875 18.4302 71.699 19.2945C72.0111 20.1588 72.1672 21.1369 72.1672 22.2294C72.1672 23.2361 72.0336 24.1454 71.7672 24.9573C71.5008 25.7698 71.1545 26.3706 70.7291 26.7595C71.336 27.1205 71.8115 27.7382 72.1542 28.6121C72.4975 29.486 72.6689 30.5492 72.6689 31.8031C72.6689 33.3227 72.4504 34.6079 72.014 35.6568C71.577 36.7064 71.0608 37.3548 70.4655 37.6021C70.0517 37.773 69.0898 37.8582 67.5812 37.8582H64.1016V16.9719ZM66.1604 20.4483V25.2781H67.5217C68.3384 25.2781 68.8437 25.2542 69.0361 25.2065C69.3882 25.1119 69.6633 24.8626 69.8615 24.4587C70.0597 24.0548 70.1592 23.5065 70.1592 22.8131C70.1592 22.196 70.0786 21.6947 69.9167 21.3099C69.7548 20.9258 69.5595 20.6853 69.3301 20.5907C69.0999 20.496 68.4408 20.4483 67.3518 20.4483H66.1604ZM66.1604 28.7545V34.3396H68.0749C68.9141 34.3396 69.4528 34.2653 69.6916 34.1182C69.9297 33.9711 70.1294 33.6816 70.2913 33.2491C70.4525 32.8173 70.5338 32.269 70.5338 31.6035C70.5338 30.9197 70.4474 30.3571 70.2739 29.9157C70.1011 29.4737 69.8717 29.1699 69.5849 29.0037C69.2989 28.8375 68.713 28.7545 67.828 28.7545H66.1604Z" fill="currentColor"/>
<path d="M77.1017 37.8582V29.0678L73.3578 16.9719H75.7746L78.1819 25.2352L80.5472 16.9719H82.9204L79.1606 29.0964V37.8582H77.1017Z" fill="currentColor"/>
<path d="M85.3881 37.8582L82.9459 16.9719H85.0643L86.5962 31.3188L88.4677 16.9719H90.9266L92.7213 31.5613L94.2952 16.9719H96.3715L93.8872 37.8582H91.6918L89.6504 22.243L87.6256 37.8582H85.3881Z" fill="currentColor"/>
<path d="M105.866 37.8582H103.62L102.727 33.1142H98.6431L97.8002 37.8582H95.6056L99.5869 16.9719H101.774L105.866 37.8582ZM102.062 29.5949L100.659 21.8446L99.2725 29.5949H102.062Z" fill="currentColor"/>
<path d="M108.333 37.8582V29.0678L104.59 16.9719H107.006L109.413 25.2352L111.778 16.9719H114.152L110.392 29.0964V37.8582H108.333Z" fill="currentColor"/>
<path d="M142.5 46C142.5 46 147.112 44.4445 145.911 41.6885C144.71 38.9325 139.828 38.7367 135.692 37.0944C131.556 35.4522 125.222 32.9383 130.788 29.9493C136.354 26.9598 148.209 25.7189 148.209 25.7189" stroke="currentColor" stroke-width="1.20132" stroke-miterlimit="1.5" stroke-linecap="square" stroke-linejoin="round"/>
<path d="M140.728 49.8905C154.384 49.8905 165.455 38.946 165.455 25.4453C165.455 11.9445 154.384 1 140.728 1C127.071 1 116 11.9445 116 25.4453C116 38.946 127.071 49.8905 140.728 49.8905Z" stroke="currentColor" stroke-width="2" stroke-miterlimit="1.5" stroke-linecap="round" stroke-linejoin="round"/>
<path fill-rule="evenodd" clip-rule="evenodd" d="M128.818 40.9667C128.856 40.9548 128.894 40.9424 128.931 40.9296C129.341 40.7869 129.693 40.5995 129.779 40.2838C129.835 40.0795 129.766 39.8344 129.558 39.5277C129.186 38.9791 128.39 38.2824 126.978 37.3819C125.602 36.5049 124.493 35.7896 123.625 35.1645C124.947 37.4192 126.718 39.3918 128.818 40.9667ZM121.541 30.0225C121.711 29.6563 121.925 29.2598 122.181 28.8242C122.413 28.4321 122.878 28.0872 123.541 27.7975C124.472 27.391 125.803 27.0801 127.371 26.8371C130.35 26.375 134.199 26.1541 137.77 25.9491C141.403 25.7406 144.748 25.5486 146.593 25.136C147.086 25.0261 147.467 24.9025 147.708 24.7539C147.828 24.6796 147.912 24.6106 147.92 24.5188C147.929 24.4207 147.855 24.3231 147.729 24.2031C144.51 21.1314 139.473 19.053 134.592 17.6586C130.541 16.5011 126.594 15.8163 123.867 15.4348C122.047 18.3731 121 21.8173 121 25.5C121 27.0568 121.187 28.5711 121.541 30.0225Z" fill="currentColor"/>
<path fill-rule="evenodd" clip-rule="evenodd" d="M157.293 36.8122C159.627 33.622 161 29.7173 161 25.5C161 24.8572 160.968 24.2218 160.906 23.595C154.895 24.5849 140.684 27.1637 135.704 30.1487C134.579 30.8231 133.883 31.3484 133.517 31.7618C133.32 31.9841 133.222 32.156 133.234 32.3041C133.243 32.4054 133.318 32.4786 133.424 32.5439C133.579 32.6394 133.797 32.7084 134.056 32.763C134.896 32.9405 136.14 32.9512 137.254 32.9609H137.254H137.254C137.911 32.9665 138.524 32.9718 138.98 33.0108C139.27 33.0355 139.67 33.0663 140.155 33.1037L140.156 33.1037H140.156C142.628 33.294 147.31 33.6543 150.916 34.2482C152.79 34.557 154.377 34.9327 155.23 35.3747C156.184 35.8702 156.84 36.3352 157.293 36.8122Z" fill="currentColor"/>
</svg>
