<svg xmlns="http://www.w3.org/2000/svg" width="168" height="52" fill="none" viewBox="0 0 168 52">
  <path fill="currentColor" d="M11.959 14.286h-1.764L4.32 6.61h-.553l-.46-.73a2.53 2.53 0 0 0-.483-.542 1.253 1.253 0 0 0-.468-.231 2.408 2.408 0 0 0-.567-.06v-.64h3.68l5.384 7.009h.077v-4.45c0-.386-.023-.724-.069-1.011-.046-.287-.169-.51-.368-.67-.2-.159-.54-.238-1.02-.238v-.64h3.865v.64c-.44 0-.757.08-.95.238-.195.16-.315.383-.361.67a6.486 6.486 0 0 0-.07 1.012v7.32Zm-6.32-.104H1.79v-.64c.41 0 .716-.134.921-.402.204-.267.342-.617.414-1.049.071-.431.108-.895.108-1.39V5.536h1.012v6.235c0 .495.035.87.107 1.123.071.253.21.424.414.513.205.09.496.134.875.134v.64Z"/>
  <path fill="currentColor" d="M15.088 14.346c-.563 0-1.026-.132-1.388-.395-.364-.263-.545-.696-.545-1.302 0-.416.092-.766.276-1.049a2.35 2.35 0 0 1 .721-.706c.296-.19.623-.345.982-.469.357-.124.715-.23 1.073-.32s.68-.174.966-.253v-.714c0-.635-.067-1.049-.199-1.242-.133-.194-.383-.29-.751-.29-.307 0-.514.07-.622.208-.107.138-.16.421-.16.848 0 .337-.103.58-.307.729a1.17 1.17 0 0 1-.706.223.987.987 0 0 1-.637-.245c-.199-.164-.299-.414-.299-.752 0-.297.117-.573.353-.826.235-.252.57-.456 1.005-.61.434-.153.948-.23 1.541-.23.96 0 1.697.178 2.209.535.51.358.767.948.767 1.771v3.229c0 .297.038.49.115.58.076.09.196.134.36.134.123 0 .248-.04.376-.12.128-.078.247-.173.36-.282l.338.328c-.256.367-.54.659-.851.877-.313.219-.755.328-1.327.328-.552 0-.923-.085-1.112-.253-.19-.169-.314-.461-.376-.878l-.076-.298v-2.47c-.4.12-.735.246-1.005.38-.271.134-.476.31-.614.528-.138.219-.207.516-.207.893 0 .367.059.635.177.803.117.168.293.253.529.253.224 0 .43-.052.613-.156.184-.104.414-.295.69-.573l.093.833h-.23c-.246.198-.463.37-.652.514-.19.144-.394.253-.614.327-.22.074-.509.112-.866.112Z"/>
  <path fill="currentColor" d="m25.487 12.515.383.417c-.205.268-.42.513-.644.737a2.426 2.426 0 0 1-.828.528c-.328.13-.762.193-1.304.193-.594 0-1.041-.159-1.342-.476-.302-.317-.453-.903-.453-1.756V8.126h-.966v-.625c.43-.257.836-.577 1.22-.96.383-.382.728-.885 1.035-1.51h.905V7.22h1.917v.907h-1.917v3.512c0 .546.055.91.168 1.093.113.184.312.276.599.276.296 0 .529-.045.697-.134a3.33 3.33 0 0 0 .53-.357Z"/>
  <path fill="currentColor" d="M29.659 14.182h-4.54v-.595c.337 0 .587-.027.751-.082a.502.502 0 0 0 .33-.313c.055-.153.084-.369.084-.647V8.751c0-.337-.072-.543-.215-.617-.143-.075-.332-.112-.567-.112-.103 0-.195.005-.276.015l-.123.015v-.625l2.3-.417h1.075v5.49c0 .288.027.511.084.67a.519.519 0 0 0 .337.328c.169.06.422.089.76.089v.595Zm-2.332-8.109c-.379 0-.678-.107-.897-.32-.22-.213-.33-.494-.33-.84 0-.347.107-.628.322-.841.215-.213.516-.32.905-.32.408 0 .718.104.928.312.209.209.315.487.315.834 0 .357-.106.642-.315.855-.21.213-.52.32-.928.32Z"/>
  <path fill="currentColor" d="M33.416 14.33c-1.207 0-2.127-.297-2.76-.892-.635-.595-.951-1.537-.951-2.827 0-.695.132-1.317.398-1.867s.677-.985 1.235-1.302c.557-.317 1.265-.476 2.124-.476 1.227 0 2.145.312 2.753.937.608.625.913 1.473.913 2.544 0 .844-.144 1.555-.43 2.135a2.9 2.9 0 0 1-1.25 1.31c-.547.293-1.225.439-2.032.439Zm.046-.728c.338 0 .603-.112.798-.335.193-.223.332-.558.414-1.005.081-.446.123-1.011.123-1.696 0-.932-.115-1.647-.345-2.142-.23-.496-.602-.744-1.112-.744-.491 0-.832.25-1.02.751-.19.501-.284 1.178-.284 2.031 0 1.061.112 1.85.337 2.366.225.516.588.774 1.09.774Z"/>
  <path fill="currentColor" d="M46.73 14.182h-4.264v-.595c.306 0 .53-.033.674-.097a.477.477 0 0 0 .276-.327c.04-.154.062-.37.062-.648v-2.32c0-.466-.046-.831-.138-1.094-.092-.263-.23-.447-.414-.55-.184-.105-.415-.157-.69-.157-.236 0-.445.034-.63.104-.184.07-.358.164-.52.283a13.97 13.97 0 0 0-.507.387l-.092-.938h.276a7.353 7.353 0 0 1 1.127-.915c.363-.233.775-.35 1.235-.35.807 0 1.434.239 1.879.715.445.476.667 1.205.667 2.187v2.648c0 .268.025.481.077.64.05.16.153.27.306.335.154.064.378.097.675.097v.595Zm-4.893 0H37.48v-.595c.337 0 .58-.033.728-.097a.457.457 0 0 0 .276-.335c.036-.159.054-.372.054-.64V8.692c0-.278-.052-.459-.153-.543-.103-.085-.261-.127-.476-.127-.133 0-.236.005-.307.015l-.107.015v-.61l2.362-.432h.844V8.44l.046.387v3.69c0 .267.02.48.061.64.04.158.138.27.291.334.154.064.4.097.737.097v.595Z"/>
  <path fill="currentColor" d="M48.37 14.346c-.562 0-1.025-.132-1.387-.395-.364-.263-.545-.696-.545-1.302 0-.416.092-.766.276-1.049a2.35 2.35 0 0 1 .72-.706c.297-.19.624-.345.983-.469.357-.124.715-.23 1.073-.32s.68-.174.966-.253v-.714c0-.635-.067-1.049-.199-1.242-.133-.194-.383-.29-.752-.29-.306 0-.513.07-.62.208-.108.138-.162.421-.162.848 0 .337-.102.58-.306.729a1.17 1.17 0 0 1-.706.223.987.987 0 0 1-.636-.245c-.2-.164-.3-.414-.3-.752 0-.297.117-.573.353-.826.235-.252.57-.456 1.005-.61.434-.153.948-.23 1.541-.23.96 0 1.697.178 2.209.535.51.358.767.948.767 1.771v3.229c0 .297.038.49.115.58.077.09.196.134.36.134.123 0 .248-.04.376-.12.128-.078.247-.173.36-.282l.338.328c-.256.367-.54.659-.851.877-.313.219-.755.328-1.327.328-.552 0-.923-.085-1.112-.253-.19-.169-.315-.461-.376-.878l-.077-.298v-2.47c-.398.12-.734.246-1.004.38-.271.134-.476.31-.614.528-.138.219-.207.516-.207.893 0 .367.059.635.177.803.117.168.293.253.529.253.224 0 .43-.052.613-.156.184-.104.414-.295.69-.573l.093.833h-.23c-.246.198-.464.37-.652.514-.19.144-.394.253-.614.327-.22.074-.509.112-.867.112Z"/>
  <path fill="currentColor" d="M58.125 14.182h-4.54v-.595c.338 0 .585-.033.744-.097a.496.496 0 0 0 .307-.335c.046-.159.069-.372.069-.639V5.33c0-.287-.077-.464-.23-.528a1.327 1.327 0 0 0-.516-.097 3.229 3.229 0 0 0-.481.03v-.595l2.408-.462h1.012v8.832c0 .282.024.501.074.66a.498.498 0 0 0 .338.327c.175.06.447.09.815.09v.596Z"/>
  <path fill="currentColor" d="M63.886 47.27H59.9v-.493c.292 0 .516-.024.67-.074a.485.485 0 0 0 .318-.285c.057-.141.086-.353.086-.634v-4.57c0-.269-.029-.473-.086-.607a.47.47 0 0 0-.318-.271c-.154-.047-.378-.07-.67-.07v-.501h6.493l.08 2.1h-.6a4.925 4.925 0 0 0-.157-.68.903.903 0 0 0-.26-.42c-.114-.102-.282-.174-.502-.216a4.836 4.836 0 0 0-.895-.066h-1.375v2.684h.89c.331 0 .595-.024.791-.073a.632.632 0 0 0 .422-.303c.084-.153.127-.38.127-.685h.543v2.673h-.543c0-.313-.043-.537-.127-.674-.085-.137-.226-.226-.422-.262a4.293 4.293 0 0 0-.791-.058h-.89v2.08c0 .258.036.452.108.582.073.13.195.216.37.262.174.045.416.068.724.068v.492Z"/>
  <path fill="currentColor" d="M68.992 47.383c-.908 0-1.601-.23-2.08-.685-.477-.457-.716-1.181-.716-2.17 0-.533.1-1.01.301-1.434.2-.422.51-.755.93-1 .42-.243.953-.365 1.6-.365.924 0 1.616.24 2.074.72.459.48.687 1.13.687 1.953 0 .646-.108 1.193-.323 1.639-.215.446-.53.78-.942 1.005-.412.225-.922.337-1.53.337Zm.035-.56c.254 0 .454-.086.6-.256.148-.172.252-.43.312-.771a7.55 7.55 0 0 0 .094-1.302c0-.717-.088-1.266-.26-1.645-.174-.38-.453-.571-.839-.571-.37 0-.626.192-.768.577-.142.383-.213.903-.213 1.558 0 .815.084 1.421.254 1.816.17.396.443.595.82.595Z"/>
  <path fill="currentColor" d="M74.434 47.383c-.578 0-1.007-.148-1.288-.44-.281-.293-.421-.817-.421-1.57v-2.206c0-.235-.024-.404-.07-.508a.337.337 0 0 0-.248-.194 2.442 2.442 0 0 0-.491-.04v-.468l1.918-.148h.542v3.233c0 .358.034.624.098.798.066.175.16.29.284.344.123.053.266.08.427.08.246 0 .45-.042.612-.127.162-.083.351-.212.567-.388v-2.626c0-.222-.03-.38-.087-.48-.058-.1-.158-.16-.3-.183a4.018 4.018 0 0 0-.596-.035v-.468l2.161-.148h.474v3.918c0 .357.054.59.161.697.108.106.316.159.624.159h.07v.423l-1.999.33h-.45v-.992h-.047a6.231 6.231 0 0 1-.664.616 1.968 1.968 0 0 1-.59.325 2.17 2.17 0 0 1-.687.098Z"/>
  <path fill="currentColor" d="M85.606 47.27h-3.211v-.458c.231 0 .4-.025.509-.075a.362.362 0 0 0 .208-.25c.03-.119.046-.284.046-.497v-1.782c0-.359-.036-.638-.104-.84-.07-.202-.174-.343-.312-.422-.14-.08-.312-.12-.521-.12-.177 0-.334.026-.474.08a1.647 1.647 0 0 0-.392.217c-.124.091-.25.19-.382.296l-.07-.72h.21c.292-.288.575-.522.848-.702.274-.178.584-.268.93-.268.609 0 1.08.183 1.416.549.335.365.502.925.502 1.678v2.034c0 .205.02.368.058.49.04.122.116.209.231.257.116.05.286.075.508.075v.457Zm-3.685 0h-3.282v-.458c.255 0 .438-.025.55-.075a.344.344 0 0 0 .208-.257c.027-.121.04-.285.04-.49v-2.936c0-.214-.038-.352-.116-.417-.076-.064-.196-.096-.358-.096-.1 0-.176.003-.23.01-.054.009-.082.012-.082.012v-.468l1.78-.332h.635v1.097l.035.296v2.834c0 .205.015.368.046.49.03.122.104.209.22.257.114.05.3.075.554.075v.457Z"/>
  <path fill="currentColor" d="M87.351 47.383c-.438 0-.805-.12-1.097-.36a2.196 2.196 0 0 1-.66-.96 3.85 3.85 0 0 1-.218-1.33c0-.701.117-1.272.352-1.713.235-.443.551-.768.947-.977a2.78 2.78 0 0 1 1.323-.314c.178 0 .36.02.55.058.188.037.378.102.571.194h.035v-1.302c0-.252-.029-.414-.087-.486-.057-.072-.199-.109-.421-.109-.054 0-.124.002-.208.006l-.128.005v-.49l1.849-.4h.647v6.762c0 .289.046.478.139.565.092.088.246.131.461.131h.244v.468l-2.069.194h-.404v-.73h-.047c-.215.19-.47.37-.762.536a2.004 2.004 0 0 1-1.017.252Zm.74-.948c.223 0 .408-.037.555-.109.146-.072.316-.173.508-.303V43.26a1.423 1.423 0 0 0-.324-.582c-.162-.183-.4-.274-.716-.274-.293 0-.524.16-.693.48-.17.32-.254.822-.254 1.508 0 .715.076 1.235.23 1.559.154.323.386.485.694.485Z"/>
  <path fill="currentColor" d="M93.07 47.394c-.423 0-.772-.1-1.045-.303-.273-.202-.41-.534-.41-.999 0-.319.069-.588.207-.805a1.8 1.8 0 0 1 .543-.543c.224-.145.47-.265.74-.36.27-.094.54-.176.809-.245.27-.069.512-.133.728-.194v-.548c0-.488-.05-.805-.15-.954-.1-.148-.29-.223-.566-.223-.232 0-.388.053-.469.16-.08.106-.12.324-.12.651 0 .258-.078.446-.232.56a.872.872 0 0 1-.532.171.73.73 0 0 1-.48-.189c-.15-.125-.224-.317-.224-.575 0-.23.088-.441.265-.635.177-.194.43-.35.757-.469a3.454 3.454 0 0 1 1.161-.176c.724 0 1.28.136 1.665.41.384.275.577.728.577 1.36v2.48c0 .227.029.376.087.443.057.07.148.105.271.105.092 0 .186-.03.283-.092.097-.06.187-.135.271-.218l.254.252a2.628 2.628 0 0 1-.64.673c-.235.169-.569.252-1 .252-.416 0-.695-.064-.838-.194-.142-.13-.236-.354-.282-.673l-.058-.23v-1.895c-.3.091-.553.188-.757.29a1.123 1.123 0 0 0-.462.406c-.104.168-.156.396-.156.686 0 .28.044.486.132.616.09.13.222.194.4.194.169 0 .323-.04.461-.12.14-.079.312-.226.52-.44l.07.64h-.174c-.184.152-.348.284-.49.395-.144.11-.298.194-.463.251a2.072 2.072 0 0 1-.652.085Z"/>
  <path fill="currentColor" d="m100.904 45.99.289.319a5.405 5.405 0 0 1-.485.566 1.83 1.83 0 0 1-.624.405c-.247.1-.574.148-.983.148-.446 0-.784-.122-1.01-.366-.228-.243-.341-.692-.341-1.347v-3.094h-.728v-.481a4.77 4.77 0 0 0 .918-.736c.29-.294.55-.68.78-1.16h.682v1.68h1.444v.697h-1.444v2.695c0 .419.042.698.127.839.085.14.235.211.45.211.223 0 .399-.033.526-.102.127-.07.26-.16.399-.274Z"/>
  <path fill="currentColor" d="M104.047 47.27h-3.421v-.458c.255 0 .443-.02.567-.062a.38.38 0 0 0 .248-.24c.042-.12.064-.285.064-.498V43.1c0-.26-.054-.417-.162-.474a.908.908 0 0 0-.428-.085c-.077 0-.146.003-.207.01l-.093.012v-.48l1.733-.32h.808v4.215c0 .22.022.392.064.514a.396.396 0 0 0 .254.251c.128.045.318.07.573.07v.456Zm-1.757-6.226c-.285 0-.51-.083-.675-.246-.166-.164-.249-.379-.249-.645s.081-.481.243-.646c.162-.164.388-.245.681-.245.308 0 .542.08.7.24.158.16.236.374.236.64 0 .274-.078.492-.236.656-.158.163-.392.246-.7.246Z"/>
  <path fill="currentColor" d="M106.877 47.383c-.909 0-1.602-.23-2.08-.685-.478-.457-.716-1.181-.716-2.17 0-.533.1-1.01.3-1.434.2-.422.511-.755.931-1 .42-.243.953-.365 1.6-.365.924 0 1.616.24 2.074.72.458.48.687 1.13.687 1.953 0 .646-.108 1.193-.323 1.639-.216.446-.53.78-.942 1.005-.412.225-.923.337-1.531.337Zm.035-.56c.254 0 .455-.086.601-.256.146-.172.25-.43.312-.771.061-.343.092-.778.092-1.302 0-.717-.087-1.266-.26-1.645-.174-.38-.452-.571-.838-.571-.369 0-.625.192-.768.577-.143.383-.213.903-.213 1.558 0 .815.084 1.421.254 1.816.169.396.442.595.82.595Z"/>
  <path fill="currentColor" d="M116.906 47.27h-3.212v-.458c.231 0 .4-.025.508-.075a.359.359 0 0 0 .208-.25c.03-.119.046-.284.046-.497v-1.782c0-.359-.034-.638-.104-.84-.069-.202-.173-.343-.312-.422a1.023 1.023 0 0 0-.519-.12c-.178 0-.336.026-.474.08-.138.053-.27.125-.393.217-.123.091-.25.19-.381.296l-.07-.72h.208a5.63 5.63 0 0 1 .85-.702c.273-.178.583-.268.929-.268.609 0 1.081.183 1.416.549.335.365.503.925.503 1.678v2.034c0 .205.019.368.058.49a.391.391 0 0 0 .23.257c.116.05.285.075.509.075v.457Zm-3.686 0h-3.281v-.458c.254 0 .437-.025.548-.075a.346.346 0 0 0 .209-.257c.027-.121.04-.285.04-.49v-2.936c0-.214-.039-.352-.115-.417-.078-.064-.197-.096-.358-.096-.1 0-.178.003-.232.01l-.08.012v-.468l1.779-.332h.635v1.097l.035.296v2.834c0 .205.015.368.046.49a.36.36 0 0 0 .219.257c.116.05.3.075.555.075v.457Z"/>
  <path fill="currentColor" d="m1.79 31.069 2.195-.398c.246 2.664 1.055 3.997 2.426 3.997.68 0 1.213-.273 1.603-.818.389-.546.583-1.221.583-2.027 0-.474-.068-.878-.204-1.21a1.94 1.94 0 0 0-.62-.817c-.279-.214-.951-.572-2.02-1.074-.957-.446-1.657-.93-2.102-1.451-.444-.521-.798-1.207-1.06-2.056a9.223 9.223 0 0 1-.394-2.738c0-1.137.168-2.162.505-3.072.337-.91.801-1.598 1.394-2.063.593-.464 1.324-.697 2.195-.697 1.309 0 2.33.546 3.065 1.636.735 1.09 1.124 2.65 1.167 4.68l-2.25.185c-.099-1.12-.312-1.901-.64-2.347-.327-.446-.793-.668-1.398-.668-.605 0-1.071.194-1.398.582-.328.39-.491.873-.491 1.451 0 .57.148 1.048.444 1.437.296.389.98.816 2.047 1.28 1.13.503 1.946 1.032 2.45 1.586.503.555.887 1.27 1.153 2.148.266.877.398 1.942.398 3.193 0 1.812-.362 3.334-1.088 4.566-.725 1.233-1.86 1.85-3.404 1.85-2.729 0-4.248-2.385-4.556-7.155Z"/>
  <path fill="currentColor" d="m19.86 30.187 2.176 1.294c-.34 2.333-.905 4.038-1.696 5.114-.79 1.076-1.762 1.614-2.917 1.614-1.45 0-2.627-.858-3.528-2.574-1.038-1.982-1.557-4.656-1.557-8.023 0-3.556.522-6.339 1.566-8.35.907-1.744 2.127-2.617 3.659-2.617 1.247 0 2.29.655 3.13 1.963.598.93 1.037 2.31 1.315 4.14l-2.223.995c-.142-1.128-.425-1.993-.847-2.596-.423-.602-.922-.903-1.496-.903-.822 0-1.491.55-2.01 1.65-.519 1.1-.778 2.916-.778 5.448 0 2.627.253 4.495.76 5.604.505 1.11 1.163 1.665 1.972 1.665.593 0 1.105-.354 1.538-1.06.432-.707.744-1.828.935-3.364Z"/>
  <path fill="currentColor" d="M23.962 37.854V17h8.261v3.527h-6.02v4.623h5.594v3.514h-5.594v5.675h6.224v3.514h-8.465Z"/>
  <path fill="currentColor" d="M34.354 37.854V17h2.185l4.557 13.925V17.001h2.093v20.853h-2.26l-4.482-13.599v13.599h-2.093Z"/>
  <path fill="currentColor" d="M47.728 17.001h-2.241v20.853h2.241V17Z"/>
  <path fill="currentColor" d="m57.008 30.187 2.177 1.294c-.34 2.333-.905 4.038-1.696 5.114-.79 1.076-1.762 1.614-2.917 1.614-1.45 0-2.628-.858-3.529-2.574-1.037-1.982-1.556-4.656-1.556-8.023 0-3.556.522-6.339 1.566-8.35.907-1.744 2.127-2.617 3.658-2.617 1.248 0 2.29.655 3.13 1.963.6.93 1.038 2.31 1.315 4.14l-2.222.995c-.142-1.128-.425-1.993-.847-2.596-.423-.602-.922-.903-1.497-.903-.82 0-1.49.55-2.01 1.65-.518 1.1-.777 2.916-.777 5.448 0 2.627.253 4.495.76 5.604.505 1.11 1.163 1.665 1.972 1.665.593 0 1.105-.354 1.537-1.06.433-.707.745-1.828.936-3.364Z"/>
  <path fill="currentColor" d="M64.102 16.972h4.092c1.117 0 1.903.171 2.356.513.454.342.838.945 1.149 1.81.312.864.468 1.842.468 2.934 0 1.007-.133 1.916-.4 2.728-.266.813-.612 1.414-1.038 1.803.607.36 1.082.978 1.425 1.852.344.874.515 1.937.515 3.191 0 1.52-.219 2.805-.655 3.854-.437 1.05-.953 1.698-1.548 1.945-.414.171-1.376.256-2.885.256h-3.48V16.972Zm2.058 3.476v4.83h1.362c.816 0 1.322-.024 1.514-.071.352-.095.627-.344.826-.748.198-.404.297-.952.297-1.646 0-.617-.08-1.118-.242-1.503-.162-.384-.358-.624-.587-.72-.23-.094-.89-.142-1.978-.142H66.16Zm0 8.307v5.585h1.915c.84 0 1.378-.075 1.617-.222.238-.147.437-.436.6-.869.16-.432.242-.98.242-1.645 0-.684-.087-1.247-.26-1.688-.173-.442-.402-.746-.69-.912-.285-.166-.871-.25-1.756-.25H66.16Z"/>
  <path fill="currentColor" d="M77.102 37.858v-8.79l-3.744-12.096h2.417l2.407 8.263 2.365-8.263h2.373l-3.76 12.124v8.762h-2.058Z"/>
  <path fill="currentColor" d="m85.388 37.858-2.442-20.886h2.118l1.532 14.347 1.872-14.347h2.459l1.794 14.59 1.574-14.59h2.076l-2.484 20.886h-2.195L89.65 22.243l-2.024 15.615h-2.238Z"/>
  <path fill="currentColor" d="M105.866 37.858h-2.246l-.893-4.744h-4.084l-.843 4.744h-2.194l3.98-20.886h2.188l4.092 20.886Zm-3.804-8.263-1.403-7.75-1.387 7.75h2.79Z"/>
  <path fill="currentColor" d="M108.333 37.858v-8.79l-3.743-12.096h2.416l2.407 8.263 2.365-8.263h2.374l-3.76 12.124v8.762h-2.059Z"/>
  <path fill="currentColor" fill-rule="evenodd" d="M120.25 14.803s19.523 1.515 27.628 9.247c3.132 2.988-23.291 1.11-25.511 4.88-2.189 3.721-1.308 4.425 4.727 8.274 6.035 3.848 1.033 4.157-.194 4.308-1.227.151-13.029-3.803-6.65-26.71Z" clip-rule="evenodd"/>
  <path fill="transparent" fill-rule="evenodd" d="M120.25 14.803s19.523 1.515 27.628 9.247c3.132 2.988-23.291 1.11-25.511 4.88-2.189 3.721-1.308 4.425 4.727 8.274 6.035 3.848 1.033 4.157-.194 4.308-1.227.151-13.029-3.803-6.65-26.71Zm.159.226c-4.344 15.765-.008 22.418 3.436 24.94 1.016.744 1.949 1.123 2.539 1.267.225.056.394.077.489.066.433-.053 1.344-.125 2.058-.372.41-.143.762-.33.848-.646.056-.204-.013-.45-.221-.756-.372-.549-1.168-1.246-2.58-2.146-2.188-1.395-3.701-2.38-4.642-3.244-.659-.606-1.044-1.16-1.197-1.743-.251-.959.127-2.016 1.042-3.57.232-.393.697-.738 1.36-1.027.931-.407 2.262-.718 3.83-.96 6.01-.933 15.563-.884 19.222-1.702.493-.11.874-.233 1.115-.382.12-.074.204-.143.212-.235.009-.098-.065-.196-.191-.316-3.219-3.072-8.256-5.15-13.137-6.544-6.667-1.905-13.052-2.53-14.183-2.63Z" clip-rule="evenodd"/>
  <path fill="currentColor" fill-rule="evenodd" d="M163.612 22.953s-21.617 3.176-28.019 7.014c-6.402 3.838.845 3.04 3.368 3.255 2.524.215 13.371.889 16.169 2.341 2.798 1.452 2.959 2.6 2.958 4.728-.001 2.128 10.747-10.599 5.524-17.338Z" clip-rule="evenodd"/>
  <path fill="none" fill-rule="evenodd" d="M163.612 22.953c5.223 6.74-5.525 19.466-5.524 17.338.001-2.128-.16-3.276-2.958-4.728s-13.645-2.126-16.169-2.341c-2.523-.215-9.77.583-3.368-3.255 6.402-3.838 28.019-7.014 28.019-7.014Zm-5.309 17.35a.646.646 0 0 0 .103-.04c.163-.085.37-.244.611-.467 1.533-1.414 4.297-5.265 5.371-9.272.695-2.592.685-5.253-.871-7.342-1.773.265-21.715 3.311-27.812 6.967-1.126.674-1.822 1.2-2.188 1.613-.197.222-.295.394-.283.542.009.101.084.175.19.24.155.095.373.164.632.22 1.336.281 3.695.142 4.924.247 1.769.15 7.622.527 11.936 1.237 1.874.31 3.461.685 4.314 1.127 1.452.754 2.214 1.437 2.618 2.2.405.762.455 1.611.454 2.716l.001.012Z" clip-rule="evenodd"/>
  <path stroke="currentColor" stroke-linecap="round" stroke-linejoin="round" stroke-miterlimit="1.5" stroke-width="1.201" d="M141.142 47.495s5.97-3.05 4.769-5.806c-1.201-2.757-6.083-2.952-10.219-4.595-4.136-1.642-10.47-4.156-4.904-7.145 5.566-2.99 17.421-4.23 17.421-4.23"/>
  <path stroke="currentColor" stroke-linecap="round" stroke-linejoin="round" stroke-miterlimit="1.5" stroke-width="2" d="M141.2 50.264c13.656 0 24.727-10.945 24.727-24.445 0-13.501-11.071-24.445-24.727-24.445-13.657 0-24.728 10.944-24.728 24.445 0 13.5 11.071 24.445 24.728 24.445Z"/>
  <path fill="none" fill-rule="evenodd" d="M141.2 1.374c13.647 0 24.727 10.953 24.727 24.445 0 13.491-11.08 24.445-24.727 24.445-13.648 0-24.728-10.954-24.728-24.445 0-13.492 11.08-24.445 24.728-24.445Zm0 3.183c-11.87 0-21.508 9.527-21.508 21.262 0 11.734 9.638 21.26 21.508 21.26s21.506-9.526 21.506-21.26c0-11.735-9.636-21.262-21.506-21.262Z" clip-rule="evenodd"/>
</svg>
