<svg width="162" height="51" viewBox="0 0 162 51" fill="none" xmlns="http://www.w3.org/2000/svg">
<path d="M77.2754 22.8151L63.2744 17.7007V20.9291C63.2744 20.9291 75.3529 25.3905 77.2754 26.0791L90.9495 20.9291V17.7007C90.9495 17.7007 78.0732 22.4883 77.2754 22.8151Z" fill="black"/>
<path d="M89.8979 17.0114L87.0687 15.9596L82.7518 17.6288L85.5814 18.6443L89.8979 17.0114Z" fill="black"/>
<path d="M59.3931 11.5347V14.7987L73.0316 19.9139C74.9897 19.2238 87.0326 14.7987 87.0326 14.7987V11.5347L73.0316 16.6491C72.2338 16.3222 59.3931 11.5347 59.3931 11.5347Z" fill="black"/>
<path d="M60.4082 10.8459L64.7613 12.478L67.5536 11.4618L63.2375 9.83038L60.4082 10.8459Z" fill="black"/>
<path d="M63.2744 5.40442V8.6328L76.9129 13.7472C78.8346 13.0943 90.9495 8.6328 90.9495 8.6328V5.40442L76.9129 10.4825L63.2744 5.40442Z" fill="black"/>
<path d="M68.6421 6.31191L76.9121 3.22838L85.5082 6.31191L89.8977 4.71554L76.9121 0L64.2891 4.71554L68.6421 6.31191Z" fill="black"/>
<path d="M5.77282 34.7243C5.18028 34.1767 4.39642 33.9025 3.4197 33.9025H2.28728C2.13934 33.9025 1.99063 33.9064 1.84346 33.9141C1.69474 33.9211 1.5468 33.925 1.39964 33.925V39.8752C1.69474 39.9348 2.00225 39.9681 2.32059 39.9751C2.63816 39.9828 2.95263 39.9859 3.26401 39.9859C3.7667 39.9859 4.22602 39.9387 4.64041 39.8419C5.0548 39.7458 5.41342 39.5832 5.71782 39.3539C6.02068 39.1246 6.25382 38.821 6.41648 38.443C6.57914 38.0658 6.66047 37.6034 6.66047 37.0558C6.66047 36.0488 6.36536 35.2719 5.77282 34.7243ZM9.20336 48.3016C9.13675 48.3535 9.05077 48.3907 8.94853 48.4124C8.84396 48.4349 8.74017 48.4496 8.63715 48.4566C8.53336 48.4643 8.45203 48.4682 8.39317 48.4682H8.05933L7.77119 48.29C7.65268 48.0685 7.51171 47.7432 7.34905 47.3133C7.1864 46.8842 6.9974 46.4179 6.78362 45.9144C6.56829 45.4117 6.33902 44.8967 6.09504 44.3715C5.85105 43.8464 5.59157 43.3692 5.31738 42.9393C5.04395 42.5102 4.76589 42.1586 4.48549 41.8852C4.20433 41.611 3.92239 41.4739 3.64122 41.4739H1.46547V48.046C1.43527 48.1204 1.3764 48.2017 1.2881 48.29C1.19902 48.3791 1.11769 48.4387 1.04411 48.4682H0.422137C0.347779 48.4387 0.26645 48.3791 0.177375 48.29C0.0890748 48.2017 0.0294334 48.1204 0 48.046V33.2364C0.0294334 33.1628 0.0774562 33.0807 0.144069 32.9924C0.210681 32.9033 0.273421 32.8367 0.333837 32.7926C1.3245 32.7484 2.33143 32.726 3.35308 32.726C4.06336 32.726 4.70315 32.8042 5.27323 32.9591C5.8433 33.114 6.32818 33.3588 6.72708 33.6918C7.12753 34.0249 7.43116 34.4579 7.63797 34.9908C7.84555 35.5237 7.94934 36.1673 7.94934 36.9225C7.94934 37.766 7.73014 38.5468 7.29406 39.2648C6.85643 39.9828 6.26931 40.5343 5.52883 40.9193C5.8983 41.2895 6.25382 41.7628 6.59463 42.3398C6.93466 42.9169 7.26075 43.5319 7.57135 44.1825C7.88273 44.8339 8.17474 45.4815 8.44816 46.1251C8.72235 46.7696 8.98416 47.3358 9.23666 47.8245L9.19251 47.7796C9.2661 47.8834 9.30328 47.9794 9.30328 48.0685C9.30328 48.1723 9.26997 48.2497 9.20336 48.3016Z" fill="black"/>
<path d="M16.9624 40.8188C16.8446 40.4563 16.6773 40.134 16.4628 39.8529C16.2482 39.5717 15.9818 39.3463 15.6634 39.1751C15.3451 39.0055 14.9717 38.9203 14.5426 38.9203C13.5806 38.9203 12.7883 39.2084 12.1671 39.7863C11.5451 40.3633 11.1973 41.1332 11.1237 42.0952H11.8115C12.7147 42.0952 13.6139 42.0883 14.5093 42.0735C15.4047 42.0588 16.297 42.0139 17.1847 41.9395C17.1545 41.5554 17.0809 41.1812 16.9624 40.8188ZM18.4836 43.0278C18.417 43.1022 18.3543 43.1688 18.2954 43.2276C17.0964 43.2718 15.9004 43.3128 14.7092 43.35C13.5179 43.3864 12.3227 43.405 11.1237 43.405C11.1377 43.9526 11.2198 44.4638 11.3669 44.9371C11.5156 45.4111 11.7263 45.8255 12.0005 46.1803C12.2739 46.5358 12.6248 46.8131 13.0547 47.0137C13.4846 47.2128 14.002 47.3127 14.6092 47.3127C14.9493 47.3127 15.2978 47.2616 15.6534 47.1578C16.0081 47.054 16.3365 46.9432 16.6409 46.8247C16.9446 46.7062 17.2033 46.5954 17.4178 46.4917C17.6324 46.3879 17.7617 46.336 17.8066 46.336C18.0135 46.336 18.1358 46.4328 18.1722 46.6249C18.2094 46.817 18.2288 46.9874 18.2288 47.1353V47.4684L18.0948 47.7124C17.6068 48.009 17.0437 48.2305 16.4078 48.3785C15.7711 48.5264 15.1708 48.6008 14.6092 48.6008C13.6767 48.6008 12.8959 48.4567 12.267 48.1678C11.6373 47.8789 11.1346 47.4761 10.7566 46.9579C10.3794 46.4398 10.109 45.8255 9.94638 45.1145C9.78295 44.4042 9.70239 43.6273 9.70239 42.7838C9.70239 42.0286 9.80618 41.3331 10.013 40.6964C10.2206 40.0605 10.5273 39.5159 10.9347 39.0644C11.3414 38.6128 11.8479 38.2619 12.456 38.0102C13.0624 37.7585 13.7572 37.6322 14.5426 37.6322C15.3273 37.6322 15.9818 37.7732 16.5077 38.0543C17.0329 38.3355 17.4511 38.7174 17.7617 39.1976C18.0731 39.6786 18.2954 40.2301 18.4286 40.8521C18.5611 41.4733 18.6277 42.1254 18.6277 42.8055C18.5975 42.8799 18.5502 42.9542 18.4836 43.0278Z" fill="black"/>
<path d="M27.0308 47.0802C26.8163 47.4427 26.5312 47.7354 26.1757 47.957C25.821 48.1793 25.4213 48.3419 24.9775 48.4457C24.5329 48.5487 24.0891 48.6006 23.6452 48.6006C23.1712 48.6006 22.6832 48.5565 22.1798 48.4682C21.6763 48.3791 21.203 48.2459 20.7584 48.0677L20.5811 47.802V47.0244C20.5811 46.9059 20.6252 46.806 20.7143 46.7254C20.8034 46.6441 20.9064 46.603 21.0249 46.603C21.1287 46.603 21.2696 46.6402 21.447 46.7138C21.6252 46.7881 21.832 46.8695 22.069 46.9578C22.3052 47.0469 22.5608 47.1282 22.835 47.2025C23.1085 47.2761 23.3935 47.3133 23.6901 47.3133C23.9411 47.3133 24.2006 47.2877 24.4663 47.2358C24.7327 47.1839 24.9775 47.0949 25.1998 46.9686C25.4213 46.8431 25.6025 46.6766 25.7435 46.469C25.8845 46.2622 25.9542 46.0113 25.9542 45.7146C25.9542 45.3149 25.821 44.9896 25.5545 44.7379C25.2881 44.4861 24.9581 44.26 24.5662 44.0609C24.1743 43.8603 23.7451 43.6682 23.2789 43.4831C22.8126 43.298 22.3827 43.0687 21.9908 42.7945C21.5981 42.5211 21.2696 42.181 21.0032 41.7736C20.7367 41.367 20.6035 40.8519 20.6035 40.2307C20.6035 39.7567 20.6957 39.357 20.8808 39.0317C21.0659 38.7056 21.3138 38.4399 21.6252 38.2323C21.9358 38.0255 22.2905 37.8737 22.6902 37.7769C23.0899 37.6808 23.4973 37.6328 23.9117 37.6328C24.8737 37.6328 25.821 37.766 26.7535 38.0325C26.7977 38.0921 26.8426 38.151 26.8868 38.2099C26.9309 38.2695 26.9681 38.3361 26.9975 38.4097V39.0317C26.9975 39.1207 26.9642 39.2129 26.8976 39.309C26.831 39.4058 26.7458 39.453 26.6428 39.453C26.4205 39.453 26.199 39.4275 25.9767 39.3756C25.7544 39.3237 25.529 39.2648 25.2997 39.1982C25.0696 39.1316 24.8404 39.0689 24.6111 39.0092C24.3811 38.9503 24.1479 38.9201 23.9117 38.9201C23.7041 38.9201 23.4857 38.9395 23.2564 38.9759C23.0271 39.0131 22.8195 39.0836 22.6344 39.1874C22.4493 39.2904 22.2983 39.4236 22.1798 39.5863C22.0612 39.7497 22.0024 39.9635 22.0024 40.2307C22.0024 40.6451 22.1356 40.982 22.4013 41.2407C22.6677 41.4994 22.9977 41.7295 23.3896 41.9293C23.7823 42.1284 24.2107 42.3212 24.6777 42.5064C25.1432 42.6915 25.5731 42.9208 25.965 43.1942C26.3577 43.4684 26.6869 43.8092 26.9534 44.2158C27.2198 44.6232 27.3531 45.1376 27.3531 45.7588C27.3531 46.2769 27.2454 46.7177 27.0308 47.0802Z" fill="black"/>
<path d="M36.5669 40.8188C36.4491 40.4563 36.2818 40.134 36.0673 39.8529C35.8527 39.5717 35.5863 39.3463 35.2679 39.1751C34.9496 39.0055 34.5762 38.9203 34.1471 38.9203C33.1851 38.9203 32.3927 39.2084 31.7715 39.7863C31.1496 40.3633 30.8018 41.1332 30.7282 42.0952H31.416C32.3192 42.0952 33.2184 42.0883 34.1138 42.0735C35.0092 42.0588 35.9015 42.0139 36.7892 41.9395C36.759 41.5554 36.6854 41.1812 36.5669 40.8188ZM38.0881 43.0278C38.0215 43.1022 37.9588 43.1688 37.8999 43.2276C36.7009 43.2718 35.5049 43.3128 34.3137 43.35C33.1224 43.3864 31.9272 43.405 30.7282 43.405C30.7421 43.9526 30.8243 44.4638 30.9714 44.9371C31.1201 45.4111 31.3308 45.8255 31.605 46.1803C31.8784 46.5358 32.2293 46.8131 32.6592 47.0137C33.0891 47.2128 33.6065 47.3127 34.2137 47.3127C34.5538 47.3127 34.9023 47.2616 35.2579 47.1578C35.6126 47.054 35.941 46.9432 36.2454 46.8247C36.549 46.7062 36.8078 46.5954 37.0223 46.4917C37.2369 46.3879 37.3662 46.336 37.4111 46.336C37.6179 46.336 37.7403 46.4328 37.7767 46.6249C37.8139 46.817 37.8333 46.9874 37.8333 47.1353V47.4684L37.6993 47.7124C37.2113 48.009 36.6482 48.2305 36.0123 48.3785C35.3756 48.5264 34.7753 48.6008 34.2137 48.6008C33.2812 48.6008 32.5004 48.4567 31.8715 48.1678C31.2417 47.8789 30.7391 47.4761 30.3611 46.9579C29.9839 46.4398 29.7135 45.8255 29.5509 45.1145C29.3874 44.4042 29.3069 43.6273 29.3069 42.7838C29.3069 42.0286 29.4107 41.3331 29.6175 40.6964C29.8251 40.0605 30.1318 39.5159 30.5392 39.0644C30.9459 38.6128 31.4524 38.2619 32.0605 38.0102C32.6669 37.7585 33.3617 37.6322 34.1471 37.6322C34.9318 37.6322 35.5863 37.7732 36.1122 38.0543C36.6373 38.3355 37.0556 38.7174 37.3662 39.1976C37.6776 39.6786 37.8999 40.2301 38.0331 40.8521C38.1656 41.4733 38.2322 42.1254 38.2322 42.8055C38.202 42.8799 38.1547 42.9542 38.0881 43.0278Z" fill="black"/>
<path d="M46.0585 42.9502C45.7843 42.9138 45.5148 42.9324 45.2483 43.006C45.1298 43.0354 44.985 43.047 44.8154 43.0393C44.6449 43.0316 44.4862 43.0354 44.3374 43.0501C43.9974 43.0804 43.6721 43.1392 43.3615 43.2275C43.0501 43.3166 42.769 43.4467 42.5172 43.6164C42.2655 43.7868 42.0657 44.0052 41.9177 44.2716C41.7698 44.5381 41.6954 44.8711 41.6954 45.2708C41.6954 45.5373 41.7403 45.7921 41.8286 46.0369C41.9177 46.2808 42.0432 46.4954 42.2058 46.6805C42.3685 46.8656 42.5614 47.0175 42.7837 47.136C43.006 47.2545 43.2577 47.3133 43.5389 47.3133C44.1601 47.3133 44.6783 47.191 45.0926 46.947C45.507 46.703 45.837 46.3808 46.0802 45.9811C46.325 45.5814 46.4985 45.1337 46.6023 44.638C46.7061 44.1423 46.758 43.6349 46.758 43.1168L46.8695 42.8952C46.6023 42.9688 46.3327 42.9874 46.0585 42.9502ZM48.0236 48.3017C47.9345 48.383 47.8462 48.438 47.7571 48.4682H47.2909L47.1127 48.3791C47.0693 48.335 47.0244 48.287 46.9795 48.2351C46.9361 48.1832 46.8989 48.1204 46.8695 48.0461L46.847 46.9578C46.4474 47.4907 45.9664 47.8981 45.4032 48.1793C44.8409 48.4605 44.2267 48.6007 43.5606 48.6007C43.0726 48.6007 42.6241 48.5193 42.2175 48.3567C41.8108 48.194 41.4553 47.9686 41.1517 47.6797C40.848 47.3908 40.6157 47.0399 40.4522 46.6248C40.2896 46.2104 40.2083 45.7588 40.2083 45.2708C40.2083 44.6636 40.3113 44.1601 40.5189 43.7604C40.7257 43.3615 41.0037 43.0316 41.3515 42.7729C41.6993 42.5141 42.099 42.3174 42.5505 42.1842C43.0021 42.051 43.4715 41.9588 43.9602 41.9069C44.449 41.855 44.9377 41.8256 45.4265 41.8178C45.9137 41.8108 46.373 41.807 46.8021 41.807V40.9185C46.8021 40.1494 46.5984 39.6312 46.1918 39.3648C45.7843 39.0983 45.2259 38.9651 44.5156 38.9651C44.1601 38.9651 43.8014 39.0201 43.4382 39.1316C43.0757 39.2424 42.7426 39.3679 42.4398 39.5088C42.1361 39.6498 41.8774 39.7753 41.6621 39.8861C41.4476 39.9968 41.3182 40.0526 41.2733 40.0526C41.0665 40.0526 40.9441 39.9527 40.9077 39.7536C40.8705 39.553 40.8519 39.3795 40.8519 39.2315V38.8985L40.9851 38.632C41.5033 38.4399 41.9471 38.2804 42.3174 38.1549C42.6869 38.0287 43.0726 37.9179 43.4715 37.8211C43.8719 37.725 44.212 37.677 44.4931 37.677C45.0849 37.677 45.6108 37.725 46.0701 37.8211C46.5279 37.9179 46.9167 38.0883 47.2359 38.3323C47.5534 38.5763 47.7935 38.9093 47.957 39.3315C48.1196 39.7536 48.2017 40.2826 48.2017 40.9185V48.0461C48.1715 48.1344 48.1119 48.2204 48.0236 48.3017Z" fill="black"/>
<path d="M56.2384 39.0317L56.0169 39.1649L55.7946 39.1874C55.6613 39.1425 55.5242 39.1169 55.3833 39.1092C55.2431 39.1022 55.0982 39.0983 54.9511 39.0983C54.5955 39.0983 54.2586 39.1611 53.9402 39.2873C53.6219 39.4128 53.3415 39.5902 53.0967 39.8202C52.8528 40.0495 52.6599 40.3198 52.5197 40.6304C52.3787 40.941 52.309 41.2741 52.309 41.6296V48.0461C52.2788 48.1204 52.2199 48.2018 52.1309 48.2901C52.0426 48.3791 51.9612 48.4388 51.8869 48.4682H51.3315C51.2432 48.4388 51.1541 48.383 51.0651 48.3017C50.9768 48.2204 50.9171 48.1344 50.8877 48.0461V38.2099C50.9318 38.0627 51.0132 37.9435 51.1317 37.8544L51.3098 37.7885H51.8652L52.0201 37.8544C52.1533 37.9589 52.2424 38.0767 52.2858 38.2099V38.8985C52.6862 38.4841 53.1378 38.1805 53.6405 37.9884C54.144 37.7955 54.6769 37.6995 55.2392 37.6995C55.3732 37.6995 55.5064 37.7033 55.6396 37.7103C55.7721 37.7181 55.9053 37.7366 56.0385 37.7661C56.0974 37.8102 56.1578 37.8699 56.2167 37.9434C56.2756 38.0178 56.3197 38.0922 56.3499 38.1657V38.8094L56.2384 39.0317Z" fill="black"/>
<path d="M65.4526 47.4685L65.3411 47.7125C64.8237 48.0091 64.2428 48.2307 63.5983 48.3786C62.9539 48.5266 62.3366 48.6009 61.7448 48.6009C60.8416 48.6009 60.0795 48.4568 59.4575 48.1679C58.8355 47.879 58.3328 47.4801 57.9479 46.9689C57.5621 46.4585 57.2849 45.8551 57.1144 45.1595C56.9448 44.464 56.8596 43.7088 56.8596 42.8947C56.8596 42.1108 56.9595 41.3959 57.1594 40.7523C57.3592 40.1086 57.6621 39.5532 58.0703 39.087C58.4769 38.6207 58.9835 38.262 59.5907 38.0103C60.198 37.7586 60.9152 37.6323 61.7448 37.6323C62.2916 37.6323 62.8439 37.6772 63.3985 37.7655C63.9531 37.8546 64.4829 38.0026 64.9856 38.2101L65.1637 38.4766V39.2086C65.1637 39.3278 65.1265 39.4278 65.0522 39.5091C64.9786 39.5904 64.8825 39.6307 64.764 39.6307C64.6161 39.6307 64.4271 39.5943 64.1978 39.5199C63.9686 39.4464 63.7168 39.3642 63.4426 39.2759C63.1692 39.1869 62.8873 39.1055 62.5991 39.0312C62.3102 38.9576 62.0252 38.9204 61.7448 38.9204C61.1375 38.9204 60.6155 39.0242 60.1786 39.231C59.7425 39.4386 59.3793 39.7198 59.0911 40.0753C58.8022 40.43 58.5915 40.8483 58.4583 41.3293C58.3251 41.8103 58.2585 42.3324 58.2585 42.8947C58.2585 43.4578 58.3173 44.0047 58.4359 44.5376C58.5544 45.0705 58.755 45.5406 59.0361 45.948C59.3165 46.3555 59.6759 46.6839 60.112 46.9356C60.5489 47.1873 61.0926 47.3128 61.7448 47.3128C62.0848 47.3128 62.4357 47.2617 62.799 47.1579C63.1615 47.0541 63.5054 46.9433 63.8315 46.8248C64.1568 46.7063 64.4348 46.5956 64.6641 46.4918C64.8934 46.388 65.0452 46.3361 65.1188 46.3361C65.2675 46.4104 65.3597 46.5142 65.3969 46.6467C65.434 46.7799 65.4526 46.9209 65.4526 47.0688V47.4685Z" fill="black"/>
<path d="M76.288 48.2348C76.243 48.2867 76.1989 48.3347 76.1547 48.3789L75.9774 48.4679H75.422C75.3337 48.4385 75.2438 48.3827 75.1555 48.3014C75.0665 48.2201 75.0076 48.1349 74.9782 48.0458V41.4961C74.9782 40.6379 74.704 40.0012 74.1564 39.586C73.6087 39.1724 72.9349 38.9648 72.1363 38.9648C71.7947 38.9648 71.44 39.0237 71.0705 39.1422C70.6995 39.2615 70.3517 39.4272 70.0264 39.6418C69.7003 39.8571 69.4338 40.1158 69.227 40.4194C69.0195 40.7231 68.9164 41.067 68.9164 41.4519V48.0458C68.8862 48.1349 68.8274 48.2201 68.7391 48.3014C68.65 48.3827 68.5609 48.4385 68.4718 48.4679H67.9173L67.7399 48.3789C67.695 48.3347 67.6508 48.2867 67.6067 48.2348C67.5617 48.1829 67.5253 48.1202 67.4951 48.0458V32.0596C67.5253 31.986 67.5617 31.9225 67.6067 31.8714C67.6508 31.8195 67.695 31.7715 67.7399 31.7265L67.9173 31.6375H68.4718C68.5609 31.6677 68.65 31.7234 68.7391 31.8048C68.8274 31.8861 68.8862 31.9705 68.9164 32.0596V38.9207C69.3308 38.4916 69.8227 38.1771 70.3928 37.9765C70.9628 37.7774 71.5438 37.6775 72.1363 37.6775C72.7722 37.6775 73.3493 37.7472 73.8674 37.8882C74.3856 38.0291 74.8333 38.2545 75.2105 38.5651C75.5885 38.8757 75.8805 39.2723 76.0881 39.7533C76.2949 40.2343 76.3995 40.8152 76.3995 41.4961V48.0458C76.3685 48.1202 76.3321 48.1829 76.288 48.2348Z" fill="black"/>
<path d="M89.3873 37.5545C89.0907 36.7474 88.6546 36.0859 88.0775 35.5677C87.4997 35.0496 86.7894 34.6716 85.9459 34.4346C85.1024 34.1983 84.1327 34.0798 83.0375 34.0798C82.5193 34.0798 81.9972 34.0868 81.4713 34.1015C80.9461 34.117 80.4249 34.1464 79.9067 34.1906V47.1126C80.4837 47.1722 81.0569 47.2125 81.627 47.235C82.1971 47.2567 82.7702 47.2683 83.3481 47.2683C84.3991 47.2683 85.3278 47.1056 86.1349 46.7795C86.9413 46.4542 87.6182 45.9949 88.1658 45.4031C88.7135 44.8114 89.1278 44.0972 89.409 43.2607C89.691 42.4249 89.8312 41.4955 89.8312 40.4746C89.8312 39.3344 89.6832 38.3616 89.3873 37.5545ZM90.7746 43.8819C90.4268 44.8811 89.9164 45.7331 89.2425 46.4356C88.5686 47.1389 87.7406 47.6757 86.7561 48.0452C85.7717 48.4154 84.6354 48.6005 83.3481 48.6005C82.5781 48.6005 81.816 48.5781 81.0608 48.5339C80.3056 48.4898 79.5434 48.4526 78.7743 48.4232C78.7146 48.3643 78.6558 48.2977 78.5961 48.2226C78.5372 48.149 78.4931 48.0754 78.4629 48.001V33.2355C78.4931 33.1472 78.5442 33.0582 78.6186 32.9699C78.6922 32.8808 78.7743 32.8219 78.8626 32.7917C79.5736 32.7917 80.2692 32.7809 80.95 32.7584C81.6301 32.7359 82.3264 32.7251 83.0375 32.7251C84.3689 32.7251 85.5494 32.8699 86.5788 33.1581C87.6066 33.447 88.4726 33.9024 89.1766 34.5236C89.8792 35.1456 90.4082 35.945 90.7637 36.9217C91.1185 37.8984 91.2966 39.0827 91.2966 40.4746C91.2966 41.7472 91.1223 42.8827 90.7746 43.8819Z" fill="black"/>
<path d="M99.1894 42.9502C98.9152 42.9138 98.6456 42.9324 98.3792 43.006C98.2607 43.0354 98.1158 43.047 97.9462 43.0393C97.7758 43.0316 97.617 43.0354 97.4683 43.0501C97.1283 43.0804 96.803 43.1392 96.4924 43.2275C96.181 43.3166 95.8998 43.4467 95.6481 43.6164C95.3964 43.7868 95.1965 44.0052 95.0486 44.2716C94.9006 44.5381 94.8263 44.8711 94.8263 45.2708C94.8263 45.5373 94.8712 45.7921 94.9595 46.0369C95.0486 46.2808 95.1741 46.4954 95.3367 46.6805C95.4994 46.8656 95.6922 47.0175 95.9145 47.136C96.1368 47.2545 96.3886 47.3133 96.6697 47.3133C97.2909 47.3133 97.8091 47.191 98.2235 46.947C98.6379 46.703 98.9679 46.3808 99.2111 45.9811C99.4558 45.5814 99.6293 45.1337 99.7331 44.638C99.8369 44.1423 99.8888 43.6349 99.8888 43.1168L100 42.8952C99.7331 42.9688 99.4636 42.9874 99.1894 42.9502ZM101.154 48.3017C101.065 48.383 100.977 48.438 100.888 48.4682H100.422L100.244 48.3791C100.2 48.335 100.155 48.287 100.11 48.2351C100.067 48.1832 100.03 48.1204 100 48.0461L99.9779 46.9578C99.5782 47.4907 99.0972 47.8981 98.5341 48.1793C97.9718 48.4605 97.3575 48.6007 96.6914 48.6007C96.2034 48.6007 95.755 48.5193 95.3483 48.3567C94.9417 48.194 94.5862 47.9686 94.2825 47.6797C93.9789 47.3908 93.7465 47.0399 93.5831 46.6248C93.4204 46.2104 93.3391 45.7588 93.3391 45.2708C93.3391 44.6636 93.4421 44.1601 93.6497 43.7604C93.8565 43.3615 94.1346 43.0316 94.4824 42.7729C94.8301 42.5141 95.2298 42.3174 95.6814 42.1842C96.133 42.051 96.6023 41.9588 97.0911 41.9069C97.5798 41.855 98.0686 41.8256 98.5573 41.8178C99.0445 41.8108 99.5039 41.807 99.933 41.807V40.9185C99.933 40.1494 99.7293 39.6312 99.3226 39.3648C98.9152 39.0983 98.3567 38.9651 97.6465 38.9651C97.2909 38.9651 96.9323 39.0201 96.569 39.1316C96.2065 39.2424 95.8735 39.3679 95.5706 39.5088C95.267 39.6498 95.0083 39.7753 94.793 39.8861C94.5784 39.9968 94.4491 40.0526 94.4041 40.0526C94.1973 40.0526 94.0749 39.9527 94.0385 39.7536C94.0014 39.553 93.9828 39.3795 93.9828 39.2315V38.8985L94.116 38.632C94.6342 38.4399 95.078 38.2804 95.4482 38.1549C95.8177 38.0287 96.2034 37.9179 96.6023 37.8211C97.0028 37.725 97.3428 37.677 97.624 37.677C98.2158 37.677 98.7417 37.725 99.201 37.8211C99.6588 37.9179 100.048 38.0883 100.367 38.3323C100.684 38.5763 100.924 38.9093 101.088 39.3315C101.25 39.7536 101.333 40.2826 101.333 40.9185V48.0461C101.302 48.1344 101.243 48.2204 101.154 48.3017Z" fill="black"/>
<path d="M110.613 47.6905L110.48 47.9345C110.14 48.1568 109.739 48.3234 109.281 48.4341C108.821 48.5457 108.385 48.6007 107.971 48.6007C107.394 48.6007 106.919 48.5155 106.549 48.3458C106.179 48.1754 105.886 47.9384 105.673 47.6355C105.458 47.3319 105.309 46.9687 105.229 46.5473C105.147 46.1252 105.107 45.6558 105.107 45.1376V39.4306H103.797L103.529 39.2091L103.441 39.0092V38.5205L103.508 38.3656C103.612 38.2324 103.73 38.1433 103.863 38.0991H105.107C105.136 37.6251 105.151 37.1518 105.151 36.6778C105.151 36.1891 105.158 35.7088 105.174 35.2348C105.217 35.1759 105.28 35.1124 105.362 35.0458C105.443 34.9792 105.521 34.9312 105.594 34.9017H106.106L106.372 35.1233L106.483 35.3239V38.0991H109.947C110.02 38.1433 110.091 38.206 110.157 38.2873C110.224 38.3695 110.273 38.4469 110.302 38.5205V39.0092C110.273 39.0836 110.213 39.1649 110.124 39.2532C110.036 39.3423 109.954 39.4012 109.88 39.4306H106.483V45.1376C106.483 45.3893 106.501 45.641 106.539 45.892C106.575 46.1437 106.65 46.3769 106.76 46.5914C106.872 46.806 107.024 46.9803 107.216 47.1135C107.408 47.2467 107.652 47.3133 107.949 47.3133C108.185 47.3133 108.426 47.2723 108.67 47.191C108.915 47.1096 109.14 47.0244 109.347 46.9353C109.555 46.847 109.736 46.7618 109.891 46.6805C110.047 46.5992 110.154 46.5581 110.213 46.5581C110.391 46.5581 110.505 46.6247 110.558 46.758C110.609 46.8912 110.628 47.0244 110.613 47.1576V47.6905Z" fill="black"/>
<path d="M118.283 42.9502C118.009 42.9138 117.739 42.9324 117.473 43.006C117.354 43.0354 117.21 43.047 117.04 43.0393C116.87 43.0316 116.711 43.0354 116.562 43.0501C116.222 43.0804 115.897 43.1392 115.586 43.2275C115.275 43.3166 114.994 43.4467 114.742 43.6164C114.49 43.7868 114.29 44.0052 114.142 44.2716C113.994 44.5381 113.92 44.8711 113.92 45.2708C113.92 45.5373 113.965 45.7921 114.053 46.0369C114.142 46.2808 114.268 46.4954 114.43 46.6805C114.593 46.8656 114.786 47.0175 115.008 47.136C115.231 47.2545 115.482 47.3133 115.763 47.3133C116.385 47.3133 116.903 47.191 117.317 46.947C117.732 46.703 118.062 46.3808 118.305 45.9811C118.55 45.5814 118.723 45.1337 118.827 44.638C118.931 44.1423 118.983 43.6349 118.983 43.1168L119.094 42.8952C118.827 42.9688 118.557 42.9874 118.283 42.9502ZM120.248 48.3017C120.159 48.383 120.071 48.438 119.982 48.4682H119.515L119.337 48.3791C119.294 48.335 119.249 48.287 119.204 48.2351C119.161 48.1832 119.124 48.1204 119.094 48.0461L119.072 46.9578C118.672 47.4907 118.191 47.8981 117.628 48.1793C117.066 48.4605 116.451 48.6007 115.785 48.6007C115.297 48.6007 114.849 48.5193 114.442 48.3567C114.035 48.194 113.68 47.9686 113.376 47.6797C113.073 47.3908 112.84 47.0399 112.677 46.6248C112.514 46.2104 112.433 45.7588 112.433 45.2708C112.433 44.6636 112.536 44.1601 112.743 43.7604C112.95 43.3615 113.228 43.0316 113.576 42.7729C113.924 42.5141 114.324 42.3174 114.775 42.1842C115.227 42.051 115.696 41.9588 116.185 41.9069C116.674 41.855 117.162 41.8256 117.651 41.8178C118.138 41.8108 118.598 41.807 119.027 41.807V40.9185C119.027 40.1494 118.823 39.6312 118.416 39.3648C118.009 39.0983 117.45 38.9651 116.74 38.9651C116.385 38.9651 116.026 39.0201 115.663 39.1316C115.3 39.2424 114.967 39.3679 114.664 39.5088C114.361 39.6498 114.102 39.7753 113.887 39.8861C113.672 39.9968 113.543 40.0526 113.498 40.0526C113.291 40.0526 113.169 39.9527 113.132 39.7536C113.095 39.553 113.077 39.3795 113.077 39.2315V38.8985L113.21 38.632C113.728 38.4399 114.172 38.2804 114.542 38.1549C114.911 38.0287 115.297 37.9179 115.696 37.8211C116.097 37.725 116.437 37.677 116.718 37.677C117.31 37.677 117.835 37.725 118.295 37.8211C118.753 37.9179 119.141 38.0883 119.46 38.3323C119.778 38.5763 120.018 38.9093 120.182 39.3315C120.344 39.7536 120.426 40.2826 120.426 40.9185V48.0461C120.396 48.1344 120.337 48.2204 120.248 48.3017Z" fill="black"/>
<path d="M134.925 47.6239C134.585 47.7718 134.207 47.9051 133.792 48.0236C133.378 48.1421 132.949 48.2459 132.505 48.3342C132.061 48.4232 131.624 48.4899 131.195 48.534C130.765 48.5789 130.366 48.6006 129.996 48.6006C128.722 48.6006 127.616 48.4047 126.676 48.0127C125.736 47.6208 124.956 47.0685 124.334 46.3583C123.712 45.648 123.246 44.7929 122.935 43.7937C122.624 42.7945 122.469 41.6884 122.469 40.4747C122.469 37.9581 123.075 36.0302 124.29 34.691C125.503 33.351 127.398 32.681 129.973 32.681C130.758 32.681 131.531 32.7298 132.294 32.8259C133.056 32.9219 133.807 33.1179 134.548 33.4138C134.681 33.5176 134.77 33.6361 134.813 33.7693V34.4354C134.813 34.5988 134.758 34.7057 134.647 34.7576C134.536 34.8095 134.414 34.8351 134.281 34.8351L132.993 34.4354C132.505 34.2728 132.012 34.1581 131.517 34.0915C131.021 34.0241 130.514 33.9908 129.996 33.9908C128.944 33.9908 128.034 34.1395 127.264 34.4354C126.495 34.7313 125.862 35.1565 125.367 35.7119C124.871 36.2673 124.504 36.9442 124.268 37.7436C124.031 38.5429 123.912 39.453 123.912 40.4747C123.912 41.4367 124.034 42.3321 124.278 43.1609C124.522 43.9904 124.896 44.7115 125.4 45.3258C125.903 45.9408 126.535 46.4218 127.298 46.7688C128.061 47.1173 128.952 47.2908 129.973 47.2908C130.61 47.2908 131.235 47.2281 131.85 47.1026C132.464 46.9764 133.074 46.8168 133.682 46.6247V41.6737H130.395L130.129 41.4514L130.018 41.2299V40.7411C130.063 40.6079 130.151 40.4894 130.284 40.3856L130.44 40.319H134.747L134.991 40.5188L135.102 40.7411V47.3799L134.925 47.6239Z" fill="black"/>
<path d="M145.604 41.2183C145.486 40.7373 145.286 40.3267 145.006 39.9859C144.724 39.6459 144.357 39.3833 143.906 39.1982C143.454 39.0131 142.896 38.9201 142.23 38.9201C141.578 38.9201 141.023 39.0239 140.564 39.2315C140.105 39.4391 139.732 39.7272 139.443 40.0975C139.155 40.4669 138.94 40.9077 138.799 41.4181C138.658 41.9285 138.588 42.48 138.588 43.0726C138.588 43.6349 138.658 44.1748 138.799 44.693C138.94 45.2111 139.162 45.6627 139.465 46.0477C139.769 46.4326 140.146 46.7393 140.598 46.9686C141.049 47.1987 141.586 47.3133 142.207 47.3133C142.874 47.3133 143.436 47.1909 143.895 46.9469C144.353 46.7029 144.72 46.3769 144.994 45.9702C145.267 45.5628 145.467 45.0895 145.593 44.5489C145.718 44.009 145.782 43.4428 145.782 42.8503C145.782 42.2438 145.723 41.7 145.604 41.2183ZM146.903 45.2816C146.703 45.9555 146.396 46.5364 145.982 47.0244C145.567 47.5131 145.049 47.8981 144.427 48.1793C143.807 48.4604 143.073 48.6006 142.23 48.6006C141.386 48.6006 140.649 48.4643 140.02 48.1901C139.392 47.9159 138.866 47.5317 138.444 47.0352C138.022 46.5403 137.708 45.9555 137.5 45.2816C137.293 44.6078 137.189 43.8719 137.189 43.0726C137.189 42.2283 137.285 41.4739 137.478 40.8077C137.67 40.1416 137.97 39.5723 138.378 39.0983C138.784 38.6243 139.306 38.2618 139.942 38.01C140.579 37.7583 141.333 37.6328 142.207 37.6328C143.095 37.6328 143.854 37.7583 144.484 38.01C145.112 38.2618 145.626 38.6243 146.026 39.0983C146.426 39.5723 146.721 40.1416 146.914 40.8077C147.106 41.4739 147.203 42.2283 147.203 43.0726C147.203 43.8719 147.103 44.6078 146.903 45.2816Z" fill="black"/>
<path d="M156.873 38.9317C156.702 39.4127 156.484 40.0053 156.217 40.7078C155.952 41.4111 155.663 42.1771 155.351 43.0059C155.041 43.8355 154.745 44.6193 154.464 45.359C154.182 46.0995 153.938 46.7401 153.73 47.2799C153.523 47.8206 153.39 48.1568 153.331 48.29L153.065 48.4681H152.598L152.31 48.29C152.236 48.1126 152.091 47.7424 151.877 47.18C151.662 46.6177 151.418 45.9702 151.144 45.2374C150.871 44.5047 150.585 43.7348 150.29 42.9285C149.993 42.1214 149.72 41.3739 149.468 40.6853C149.216 39.9967 149.009 39.4197 148.847 38.9534C148.683 38.4871 148.602 38.2245 148.602 38.1657C148.602 38.003 148.665 37.8961 148.79 37.8434C148.916 37.7916 149.046 37.766 149.179 37.766L149.734 37.7877L150.023 37.9434L152.865 45.8702C153.856 43.2352 154.833 40.5931 155.795 37.9434L156.084 37.7877H156.706C156.825 37.7877 156.924 37.821 157.006 37.8876C157.086 37.9542 157.128 38.0472 157.128 38.1657C157.128 38.1951 157.043 38.4507 156.873 38.9317Z" fill="black"/>
</svg>
