<svg width="119" height="49" viewBox="0 0 119 49" fill="none" xmlns="http://www.w3.org/2000/svg">
<style>
  path {
    fill: currentColor;
  }
<style>

</style>
<path d="M10.4659 21.5861C10.4659 22.3251 10.5889 22.9841 10.7939 23.5181C11.4519 25.2861 13.4249 25.6551 15.1109 25.6551C16.5898 25.6551 18.8508 25.1621 18.8508 22.9841C18.8508 21.4631 17.5768 21.0521 12.5209 19.6131C7.87586 18.2981 2.57287 17.0241 2.57287 11.1041C2.57287 4.32205 8.36886 1.40405 14.4109 1.40405C20.7818 1.40405 26.4128 3.82905 26.6598 10.9811H18.1098C18.2748 9.87105 17.7808 9.13205 17.0418 8.63805C16.3019 8.10405 15.2739 7.89805 14.3699 7.89805C13.1369 7.89805 11.1229 8.22705 11.1229 9.87205C11.2869 11.9681 15.4799 12.4191 19.6318 13.5701C23.7818 14.7211 27.8928 16.6531 27.8928 22.0381C27.8928 29.6841 20.8638 32.1501 14.3289 32.1501C10.9989 32.1501 1.50387 30.9571 1.42188 21.5861H10.4659Z" fill="currentColor"/>
<path d="M43.6528 1.40405C52.5728 1.40405 58.5328 7.81605 58.5328 16.7761C58.5328 25.7371 52.5728 32.1491 43.6528 32.1491C34.7328 32.1491 28.7738 25.7371 28.7738 16.7761C28.7738 7.81605 34.7338 1.40405 43.6528 1.40405ZM43.6528 24.8331C45.9548 24.8331 49.4898 23.3121 49.4898 16.7761C49.4898 10.2411 45.9548 8.72005 43.6528 8.72005C41.3508 8.72005 37.8158 10.2411 37.8158 16.7761C37.8158 23.3121 41.3518 24.8331 43.6528 24.8331Z" fill="currentColor"/>
<path d="M68.2008 21.5861C68.2008 22.3251 68.3238 22.9841 68.5288 23.5181C69.1868 25.2861 71.1598 25.6551 72.8458 25.6551C74.3248 25.6551 76.5868 25.1621 76.5868 22.9841C76.5868 21.4631 75.3118 21.0521 70.2558 19.6131C65.6118 18.2981 60.3088 17.0241 60.3088 11.1041C60.3088 4.32205 66.1038 1.40405 72.1458 1.40405C78.5178 1.40405 84.1498 3.82905 84.3958 10.9811H75.8458C76.0098 9.87105 75.5178 9.13205 74.7778 8.63805C74.0368 8.10405 73.0098 7.89805 72.1058 7.89805C70.8728 7.89805 68.8578 8.22705 68.8578 9.87205C69.0218 11.9681 73.2148 12.4191 77.3668 13.5701C81.5178 14.7211 85.6288 16.6531 85.6288 22.0381C85.6288 29.6841 78.5998 32.1501 72.0648 32.1501C68.7348 32.1501 59.2398 30.9571 59.1578 21.5861H68.2008Z" fill="currentColor"/>
<path d="M95.9137 21.5861C95.9137 22.3251 96.0367 22.9841 96.2417 23.5181C96.8997 25.2861 98.8737 25.6551 100.559 25.6551C102.038 25.6551 104.299 25.1621 104.299 22.9841C104.299 21.4631 103.025 21.0521 97.9687 19.6131C93.3237 18.2981 88.0207 17.0241 88.0207 11.1041C88.0207 4.32205 93.8167 1.40405 99.8597 1.40405C106.231 1.40405 111.862 3.82905 112.109 10.9811H103.559C103.724 9.87105 103.23 9.13205 102.491 8.63805C101.75 8.10405 100.723 7.89805 99.8187 7.89805C98.5857 7.89805 96.5707 8.22705 96.5707 9.87205C96.7347 11.9681 100.928 12.4191 105.08 13.5701C109.232 14.7211 113.342 16.6531 113.342 22.0381C113.342 29.6841 106.313 32.1501 99.7777 32.1501C96.4487 32.1501 86.9527 30.9571 86.8707 21.5861H95.9137Z" fill="currentColor"/>
<path d="M112.913 8.53094C112.915 7.88777 113.173 7.27191 113.629 6.81843C114.085 6.36495 114.703 6.11088 115.346 6.11194C115.987 6.11221 116.603 6.36712 117.056 6.82068C117.51 7.27425 117.765 7.88937 117.766 8.53094C117.767 8.84969 117.705 9.16553 117.584 9.4604C117.463 9.75528 117.285 10.0234 117.06 10.2494C116.836 10.4754 116.568 10.6548 116.274 10.7774C115.98 10.9 115.664 10.9634 115.346 10.9639C115.026 10.9641 114.71 10.9012 114.414 10.779C114.119 10.6568 113.851 10.4776 113.625 10.2516C113.399 10.0257 113.22 9.75741 113.098 9.46217C112.975 9.16692 112.913 8.85049 112.913 8.53094ZM117.382 8.53094C117.382 7.35294 116.524 6.43194 115.346 6.43194C114.162 6.43194 113.298 7.35394 113.298 8.53094C113.298 9.72194 114.162 10.6439 115.346 10.6439C116.524 10.6439 117.382 9.72194 117.382 8.53094ZM116.556 9.88894H116.159L115.384 8.63994H114.776V9.88894H114.443V7.18094H115.627C116.344 7.18094 116.588 7.44994 116.588 7.89694C116.588 8.42894 116.216 8.62794 115.736 8.63994L116.556 9.88894ZM115.282 8.37794C115.666 8.37794 116.229 8.44194 116.229 7.89094C116.229 7.46894 115.884 7.41694 115.551 7.41694H114.776V8.37794H115.282Z" fill="currentColor"/>
<path d="M1.41785 35.662H5.51084C9.18483 35.662 11.2388 37.528 11.2388 41.429C11.2388 45.482 9.48483 47.771 5.51084 47.771H1.41785V35.662ZM3.00484 46.414H5.64384C6.72984 46.414 9.65183 46.109 9.65183 41.649C9.65183 38.766 8.59983 37.019 5.67784 37.019H3.00484V46.414Z" fill="currentColor"/>
<path d="M16.6659 38.8C19.4049 38.8 20.8579 40.818 20.8579 43.396C20.8579 45.957 19.4049 47.974 16.6659 47.974C13.9269 47.974 12.4739 45.956 12.4739 43.396C12.4739 40.818 13.9269 38.8 16.6659 38.8ZM16.6659 46.703C18.1519 46.703 19.3549 45.516 19.3549 43.396C19.3549 41.259 18.1519 40.071 16.6659 40.071C15.1789 40.071 13.9779 41.259 13.9779 43.396C13.9779 45.516 15.1789 46.703 16.6659 46.703Z" fill="currentColor"/>
<path d="M26.2528 38.8C28.9908 38.8 30.4448 40.818 30.4448 43.396C30.4448 45.957 28.9918 47.974 26.2528 47.974C23.5138 47.974 22.0608 45.956 22.0608 43.396C22.0618 40.818 23.5138 38.8 26.2528 38.8ZM26.2528 46.703C27.7388 46.703 28.9408 45.516 28.9408 43.396C28.9408 41.259 27.7388 40.071 26.2528 40.071C24.7658 40.071 23.5638 41.259 23.5638 43.396C23.5638 45.516 24.7658 46.703 26.2528 46.703Z" fill="currentColor"/>
<path d="M32.0648 39.0031H33.4008V40.8531H33.4338C34.1188 39.4441 35.0708 38.7491 36.6078 38.8011V40.3261C34.3198 40.3261 33.4838 41.6491 33.4838 43.8701V47.7711H32.0648V39.0031Z" fill="currentColor"/>
<path d="M42.5529 35.662H44.1389V40.869H50.4198V35.662H52.0058V47.771H50.4198V42.226H44.1389V47.771H42.5529V35.662Z" fill="currentColor"/>
<path d="M62.0268 47.737C61.7768 47.89 61.4578 47.975 61.0078 47.975C60.2718 47.975 59.8048 47.567 59.8048 46.618C59.0198 47.551 57.9678 47.975 56.7648 47.975C55.1958 47.975 53.9098 47.262 53.9098 45.516C53.9098 43.532 55.3618 43.107 56.8318 42.819C58.4028 42.514 59.7378 42.616 59.7378 41.529C59.7378 40.276 58.7198 40.071 57.8168 40.071C56.6158 40.071 55.7298 40.445 55.6628 41.734H54.2428C54.3268 39.563 55.9808 38.8 57.9008 38.8C59.4548 38.8 61.1418 39.156 61.1418 41.207V45.72C61.1418 46.398 61.1418 46.703 61.5918 46.703C61.7088 46.703 61.8438 46.685 62.0268 46.618V47.737ZM59.7208 43.243C59.1708 43.651 58.1008 43.667 57.1488 43.836C56.2148 44.006 55.4128 44.345 55.4128 45.414C55.4128 46.363 56.2148 46.702 57.0828 46.702C58.9538 46.702 59.7218 45.515 59.7218 44.718L59.7208 43.243Z" fill="currentColor"/>
<path d="M63.2948 39.0031H64.6328V40.8531H64.6658C65.3508 39.4441 66.3018 38.7491 67.8378 38.8011V40.3261C65.5498 40.3261 64.7148 41.6491 64.7148 43.8701V47.7711H63.2948V39.0031Z" fill="currentColor"/>
<path d="M76.6238 47.771H75.2028V46.584H75.1698C74.7028 47.55 73.5998 47.974 72.4148 47.974C69.7588 47.974 68.4398 45.837 68.4398 43.362C68.4398 40.886 69.7428 38.8 72.3808 38.8C73.2658 38.8 74.5358 39.139 75.1708 40.173H75.2038V35.661H76.6238V47.771ZM72.6148 46.703C74.5178 46.703 75.2538 45.04 75.2538 43.396C75.2538 41.665 74.4848 40.071 72.5318 40.071C70.5938 40.071 69.9418 41.751 69.9418 43.463C69.9418 45.108 70.7768 46.703 72.6148 46.703Z" fill="currentColor"/>
<path d="M87.3608 47.7711H85.8578L84.1038 40.8011H84.0718L82.3338 47.7711H80.7968L78.0248 39.0031H79.5958L81.5488 46.1771H81.5818L83.3198 39.0031H84.8728L86.6748 46.1771H86.7088L88.6468 39.0031H90.1168L87.3608 47.7711Z" fill="currentColor"/>
<path d="M99.1197 47.737C98.8687 47.89 98.5517 47.975 98.1007 47.975C97.3657 47.975 96.8977 47.567 96.8977 46.618C96.1127 47.551 95.0607 47.975 93.8577 47.975C92.2887 47.975 91.0017 47.262 91.0017 45.516C91.0017 43.532 92.4557 43.107 93.9247 42.819C95.4947 42.514 96.8307 42.616 96.8307 41.529C96.8307 40.276 95.8117 40.071 94.9107 40.071C93.7087 40.071 92.8237 40.445 92.7567 41.734H91.3367C91.4207 39.563 93.0737 38.8 94.9947 38.8C96.5467 38.8 98.2337 39.156 98.2337 41.207V45.72C98.2337 46.398 98.2337 46.703 98.6857 46.703C98.8017 46.703 98.9347 46.685 99.1197 46.618V47.737ZM96.8137 43.243C96.2637 43.651 95.1947 43.667 94.2427 43.836C93.3077 44.006 92.5047 44.345 92.5047 45.414C92.5047 46.363 93.3077 46.702 94.1757 46.702C96.0457 46.702 96.8137 45.515 96.8137 44.718V43.243Z" fill="currentColor"/>
<path d="M100.388 39.0031H101.725V40.8531H101.757C102.442 39.4441 103.395 38.7491 104.932 38.8011V40.3261C102.643 40.3261 101.808 41.6491 101.808 43.8701V47.7711H100.388V39.0031Z" fill="currentColor"/>
<path d="M113.365 44.99C112.981 46.923 111.612 47.974 109.674 47.974C106.919 47.974 105.616 46.041 105.533 43.362C105.533 40.733 107.236 38.8 109.591 38.8C112.647 38.8 113.583 41.7 113.499 43.82H107.035C106.985 45.345 107.837 46.702 109.724 46.702C110.894 46.702 111.711 46.126 111.961 44.99H113.365ZM111.996 42.548C111.928 41.174 110.91 40.071 109.507 40.071C108.021 40.071 107.136 41.207 107.035 42.548H111.996Z" fill="currentColor"/>
</svg>
