<svg width="60" height="53" viewBox="0 0 60 53" fill="none" xmlns="http://www.w3.org/2000/svg">
<g clip-path="url(#clip0_202_221)">
<path d="M25.0676 0.193123C24.4239 0.188092 23.7788 0.200768 23.1302 0.231194C20.1494 0.370765 17.1322 0.975766 13.9294 2.05905C10.8517 3.10002 8.21228 4.68195 6.03513 6.81376C2.43137 10.3423 0.460654 14.5288 0.240239 19.2145L0.220385 19.9385C0.211488 21.2069 0.325626 22.4801 0.561997 23.7801C0.997169 26.173 1.92193 28.4601 3.44098 31.0011L3.73246 31.4754L3.98591 31.8681C4.41896 32.5256 4.9111 33.2056 5.55066 34.0378L6.35003 35.0647L6.32576 35.962L6.31733 36.6811L6.23746 38.508L6.22955 38.9871L6.2312 39.2196C6.23782 39.6102 6.26207 39.9281 6.31231 40.2347C6.48144 41.2667 6.85172 41.9885 7.66042 42.6284C8.47135 43.2699 9.11436 43.4359 10.361 43.4457L10.9525 43.4352L12.4505 43.35L13.2805 43.3158L14.004 43.2681C14.1237 43.2585 14.2449 43.2479 14.3706 43.2362L14.9721 43.1721L15.5861 43.0878L15.8799 43.0354C18.6473 44.7244 20.7931 45.6531 24.4793 46.9622C28.2534 48.3026 32.0212 49.2661 35.7985 49.8525C37.7635 50.1575 39.2355 50.2985 40.6866 50.3099C41.5247 50.3164 42.3296 50.2764 43.1144 50.1878C45.6182 49.9052 47.7747 49.2444 49.695 48.1407C54.2442 45.526 57.1532 41.477 58.2722 36.2118C58.8831 33.337 58.9346 30.4729 58.4225 27.6295L58.206 26.5353L57.9443 25.4156C57.851 25.0445 57.7514 24.6754 57.6455 24.3074L57.3968 23.4999L57.6063 23.0614C58.0086 22.137 58.2253 21.1768 58.2532 20.1791C58.314 18.0043 57.7158 15.9622 56.4964 14.1835C55.6398 12.9339 54.6456 12.0859 53.3849 11.6086C52.5218 11.2816 51.6486 11.1102 50.7763 11.1034L50.2174 11.1227L49.8386 11.1611L49.4231 10.7174L48.6036 9.87458L48.0693 9.34801C46.2284 7.56429 44.7916 6.40409 43.2128 5.45712C37.4631 2.0082 31.4043 0.242653 25.0676 0.193123Z" fill="black" stroke="white" stroke-linecap="round"/>
<path d="M44.6822 42.0514C44.4967 42.0499 44.3059 42.0762 44.1106 42.1304C43.7944 42.2182 43.602 42.4245 43.5678 42.7682C43.4991 43.4557 43.4168 44.1421 43.371 44.831C43.3544 45.0799 43.3971 45.3446 43.471 45.583C43.5031 45.6869 43.6736 45.8133 43.7793 45.8141C43.7829 45.8141 43.7865 45.814 43.7899 45.8137C43.899 45.8051 44.0475 45.6598 44.0873 45.5417C44.1485 45.3602 44.1377 45.1511 44.1463 44.9532C44.1553 44.7478 44.1509 44.5418 44.1525 44.3095C44.247 44.3102 44.3324 44.315 44.414 44.3156C44.4628 44.316 44.5103 44.3149 44.5575 44.3105C44.8859 44.2803 45.2316 44.2962 45.5379 44.1924C46.2655 43.9458 46.4547 42.9914 45.8779 42.5097C45.5175 42.2087 45.1146 42.0548 44.6822 42.0514ZM33.4246 41.8324C33.3988 41.8322 33.3732 41.8326 33.3476 41.8336C32.7922 41.856 32.2359 42.2383 32.1023 42.6736C31.9325 43.2274 32.181 43.8906 32.6853 44.2297C32.867 44.3518 33.108 44.4125 33.3545 44.4144C33.6938 44.417 34.0435 44.3084 34.2629 44.0956C34.3187 44.0415 34.345 43.9041 34.3219 43.8245C34.2704 43.6474 34.1858 43.5618 34.0613 43.5609C33.9814 43.5602 33.885 43.5945 33.7705 43.6618C33.6477 43.734 33.518 43.7684 33.3921 43.7674C33.1695 43.7656 32.959 43.6532 32.8205 43.4436C32.6227 43.1443 32.6602 42.7929 32.9637 42.6014C33.1426 42.4886 33.2957 42.4714 33.4676 42.45C33.4741 42.4492 33.4967 42.4467 33.5059 42.4468C33.5068 42.4468 33.5076 42.4468 33.5082 42.4469C33.547 42.4506 33.5963 42.4523 33.6176 42.4569C33.6636 42.4602 33.7095 42.4636 33.7556 42.4668C33.8184 42.4712 33.8869 42.4857 33.9494 42.4862C34.0454 42.487 34.1272 42.4545 34.1519 42.3005C34.1905 42.0611 34.0562 41.9213 33.8387 41.8785C33.7032 41.8517 33.563 41.8335 33.4246 41.8324ZM36.0091 41.8841C35.3568 41.879 34.8608 42.5034 35.0201 43.2219C35.1055 43.6071 35.2902 43.9315 35.596 44.1618C35.7744 44.2963 35.9008 44.4065 36.1813 44.4136C36.1933 44.4139 36.2049 44.4141 36.2162 44.4142C36.4697 44.4162 36.5594 44.3633 36.6879 44.2802C37.0994 44.014 37.2913 43.6126 37.2273 43.1203C37.1525 42.5451 36.8721 42.094 36.303 41.9282C36.2028 41.8991 36.1042 41.8848 36.0091 41.8841ZM41.3123 41.8922C40.7156 41.8876 40.2571 42.369 40.2523 43.01C40.2467 43.7505 40.7953 44.3958 41.4387 44.4053L41.447 44.4053C42.0714 44.4102 42.5631 43.9395 42.5667 43.3315C42.571 42.6066 41.9708 41.908 41.3304 41.8925C41.3244 41.8923 41.3183 41.8923 41.3123 41.8922ZM38.8155 42.7398C38.8017 42.7397 38.7886 42.7399 38.7765 42.7403C38.6243 42.7455 38.3615 42.7676 38.1719 42.8692C37.8871 43.0222 37.9016 43.3198 38.1966 43.4496C38.3795 43.5299 38.5649 43.5677 38.7507 43.5691C38.9595 43.5707 39.1685 43.5265 39.3744 43.4454C39.4931 43.4159 39.575 43.2589 39.5773 43.1487C39.58 43.0206 39.4987 42.9023 39.4143 42.8611C39.2429 42.7776 38.9757 42.7411 38.8155 42.7398ZM22.1023 28.4874C21.8741 28.4856 21.6406 28.519 21.4226 28.5741C21.0621 28.6653 20.8619 28.9571 20.8172 29.3416C20.7791 29.6709 20.7289 30.0008 20.7205 30.3314C20.6554 32.8632 20.5946 35.3953 20.5458 37.9275C20.5391 38.2746 20.5795 38.6293 20.6514 38.9686C20.6836 39.1203 20.821 39.304 20.9571 39.3667C21.2341 39.4945 21.522 39.5573 21.8146 39.5596C22.0145 39.5611 22.2165 39.5345 22.419 39.4811C22.6383 39.4233 22.7517 39.2918 22.7579 39.0351C22.7954 37.4704 22.8466 35.906 22.8932 34.3414C22.9058 34.3415 22.9351 33.4127 22.9411 32.9482C22.9567 31.7163 22.9858 30.4844 22.9855 29.2526C22.9855 28.8127 22.7917 28.5677 22.3696 28.5069C22.2822 28.4943 22.1926 28.4881 22.1023 28.4874ZM47.9563 37.8441C47.5088 37.8406 47.1669 38.2342 47.1498 38.7748C47.1338 39.2826 47.4753 39.6451 47.9901 39.6668C47.9992 39.6672 48.0083 39.6674 48.0172 39.6675C48.4689 39.671 48.8024 39.2802 48.8171 38.7236C48.8304 38.2169 48.4794 37.8544 47.9654 37.8443C47.9624 37.8443 47.9595 37.8442 47.9563 37.8441ZM25.2857 31.7868C25.2738 33.4693 25.2687 35.1518 25.2703 36.8342C25.2709 37.3835 25.3115 37.934 25.3595 38.4815C25.4174 39.1428 25.5976 39.3182 26.2297 39.3981C26.3074 39.408 26.3791 39.4134 26.4451 39.4139C26.8745 39.4173 27.0584 39.214 27.0771 38.692C27.0956 38.1718 27.1017 37.651 27.1053 37.1302C27.1071 36.8787 27.1083 36.6273 27.11 36.3759C27.1111 36.2285 27.1123 36.0813 27.114 35.934C27.1144 35.8946 27.1147 35.8551 27.115 35.8176L27.115 35.8129C27.1155 35.7531 27.1157 35.6985 27.116 35.6573C27.8764 36.6312 28.6343 37.6077 29.4022 38.5774C29.5465 38.7596 29.724 38.9167 29.8981 39.0712C30.0088 39.1695 30.1216 39.2073 30.2344 39.2082C30.3904 39.2094 30.5466 39.1401 30.6976 39.0625C30.8947 38.9611 30.9922 38.7939 30.9937 38.594C30.994 38.5449 30.9886 38.4938 30.9775 38.4412C30.9392 38.2603 30.885 38.0639 30.7789 37.9203C30.2435 37.195 29.6906 36.4832 29.1402 35.7697C28.7061 35.2069 28.2667 34.6484 27.8296 34.0879C27.9184 33.9825 27.9803 33.9125 28.0385 33.8394C28.9721 32.6641 29.9075 31.4903 30.8357 30.3106C30.956 30.1575 31.0559 29.9813 31.1358 29.802C31.2003 29.657 31.233 29.5262 31.2338 29.4077C31.2356 29.1494 31.0862 28.9503 30.7859 28.7937C30.6562 28.726 30.5404 28.6898 30.4309 28.689C30.2438 28.6875 30.0751 28.7892 29.8868 29.0133C29.4406 29.5447 29.0118 30.0914 28.5759 30.6319C28.1178 31.1998 27.6601 31.768 27.2022 32.3361C27.1755 32.3248 27.1487 32.3135 27.1221 32.3023C27.123 32.167 27.1243 32.0317 27.1252 31.8965C27.1258 31.8153 27.1263 31.7342 27.1265 31.653C27.1267 31.5771 27.1271 31.5012 27.1276 31.4253C27.129 31.2355 27.1311 31.0457 27.1324 30.8559C27.1348 30.5143 27.1348 30.1727 27.1236 29.8316C27.1146 29.5616 27.0658 29.2823 26.9775 29.0284C26.8754 28.7351 26.6588 28.6068 26.3278 28.6043C26.2656 28.6038 26.1994 28.6077 26.1292 28.6158C25.7491 28.6598 25.4676 28.8858 25.4205 29.2163C25.3657 29.6002 25.3008 29.9873 25.2972 30.3736C25.2929 30.8446 25.289 31.3157 25.2857 31.7868ZM14.3099 26.0134C13.1079 26.004 11.9235 26.1825 10.7604 26.5973C10.5571 26.6699 10.5051 26.778 10.5046 26.9892C10.5024 28.0047 10.4901 29.0204 10.4666 30.0356C10.4081 32.5595 10.4158 34.8839 10.3624 37.408C10.3513 37.9267 10.318 38.646 10.3415 39.2619C11.8027 39.1887 13.2244 39.1504 14.6401 39.0344C15.5194 38.9623 16.3506 38.6456 17.1223 38.1993C18.0804 37.6451 18.2701 36.6925 17.5937 35.8041C17.3851 35.5303 17.1353 35.2823 16.8745 35.0592C16.2933 34.5621 15.6789 34.1051 15.1062 33.5982C14.7712 33.3016 14.7849 33.1672 15.1504 32.9112C15.6377 32.57 16.1573 32.278 16.6554 31.9525C17.5912 31.3409 18.5182 30.7182 19.2494 29.8386C19.6554 29.3502 19.6969 28.8106 19.4819 28.2417C19.216 27.538 18.6715 27.1046 18.0403 26.773C17.3071 26.3878 16.5178 26.203 15.706 26.1049C15.2381 26.0484 14.7728 26.017 14.3099 26.0134ZM39.9881 37.6199C39.8193 37.6185 39.6591 37.6604 39.5513 37.8368C39.2593 38.3143 39.4134 38.9343 39.9332 39.0968C40.5451 39.2879 41.526 39.4415 41.8315 39.452C41.8469 39.4525 41.8629 39.4528 41.8797 39.4529C42.1933 39.4554 42.7201 39.3905 43.127 39.3302C44.7619 39.0879 45.5235 37.2661 44.5509 35.8852C44.2687 35.4845 43.9018 35.1385 43.5387 34.8079C42.9587 34.2798 42.3367 33.8002 41.7564 33.2723C41.3193 32.8744 40.9464 32.4114 40.7308 31.8405C40.4551 31.1109 40.8098 30.4167 41.5551 30.2506C41.8052 30.1949 42.0674 30.1848 42.3249 30.1781C42.4069 30.1759 42.489 30.1757 42.5711 30.1763C42.6597 30.177 42.7484 30.1787 42.8371 30.1806C42.9259 30.1824 43.0148 30.1842 43.1036 30.1849C43.2134 30.1857 43.3232 30.1849 43.4328 30.1802C43.846 30.1625 44.011 30.0152 44.1093 29.637C44.2001 29.2873 44.1237 29.0642 43.7939 28.8387C43.6354 28.7303 43.4542 28.6415 43.2711 28.5888C42.9369 28.4927 42.6049 28.4487 42.2751 28.4462C41.6928 28.4416 41.1176 28.5662 40.5497 28.761C39.0637 29.2708 38.3719 31.1963 39.1923 32.565C39.7712 33.5311 40.4383 34.4249 41.3484 35.0999C41.6626 35.3329 41.9691 35.5807 42.2564 35.8474C42.5018 36.0751 42.7338 36.3247 42.9332 36.5946C43.0213 36.7139 43.0674 36.9182 43.0396 37.0653C42.9664 37.4524 42.5722 37.7726 42.1818 37.8C42.0683 37.808 41.9539 37.8124 41.8396 37.8115C41.7418 37.8108 41.644 37.806 41.5471 37.7964C41.0695 37.7486 40.5943 37.6763 40.1168 37.6276C40.0738 37.6233 40.0307 37.6202 39.9881 37.6199ZM34.7291 28.5265C34.2971 28.5232 33.8638 28.5695 33.4321 28.6043C33.1262 28.6289 32.9477 28.8077 32.9116 29.1259C32.8294 29.8502 32.6979 30.5727 32.6753 31.299C32.621 33.0437 32.6148 34.7901 32.5956 36.536C32.5887 37.1713 32.5769 37.808 32.6099 38.4418C32.6432 39.0852 32.8639 39.2786 33.4815 39.2858C33.8128 39.2897 34.144 39.2934 34.4753 39.296C34.9198 39.2995 35.3645 39.301 35.809 39.2985C36.2868 39.2959 36.7644 39.2694 37.302 39.2517C37.2572 38.7754 37.2204 38.3616 37.1781 37.9483C37.1599 37.7708 37.0642 37.6992 36.8846 37.6978L36.8797 37.6978C36.7578 37.6978 36.6358 37.6972 36.5139 37.6962C36.0539 37.6926 35.5938 37.6829 35.1341 37.6671C34.8416 37.657 34.5501 37.6177 34.2357 37.5896L34.258 34.4172C34.7083 34.3853 35.1314 34.3625 35.5524 34.3191C35.6406 34.3102 35.7907 34.2309 35.7945 34.1753C35.819 33.8195 35.8107 33.4611 35.8135 33.0646L34.2906 33.0527C34.2968 32.1588 34.3052 31.3049 34.3072 30.451C34.3078 30.2122 34.4165 30.1037 34.6425 30.1055C34.8334 30.1075 35.0263 30.1106 35.2172 30.1121C35.3312 30.1129 35.4452 30.1133 35.5591 30.1126C35.6421 30.112 35.7253 30.1125 35.8085 30.1132L35.8808 30.1138C35.9051 30.1139 35.9294 30.1142 35.9537 30.1144C36.2287 30.1165 36.5037 30.1163 36.7756 30.0869C37.1556 30.0457 37.3444 29.6797 37.3222 29.1418C37.3085 28.8096 37.1645 28.6686 36.746 28.6371C36.0926 28.5878 35.438 28.5389 34.7833 28.5273C34.7652 28.527 34.7471 28.5267 34.7291 28.5265ZM48.5039 28.2261C48.4421 28.2257 48.3758 28.2317 48.3052 28.244C47.9735 28.302 47.6514 28.4261 47.3298 28.5356C47.0003 28.6477 46.8096 28.9082 46.7624 29.2459C46.7116 29.609 46.6714 29.983 46.6993 30.3464C46.7882 31.5084 46.871 32.6737 47.0331 33.8263C47.1593 34.7224 47.3927 35.6035 47.596 36.4869C47.6563 36.7494 47.8263 36.947 48.1163 36.9493C48.1183 36.9493 48.1202 36.9493 48.1222 36.9493C48.4189 36.9489 48.5298 36.7144 48.5995 36.473C48.6779 36.2013 48.7535 35.9233 48.782 35.6429C48.9478 34.0126 49.1639 31.9649 49.1649 31.2474C49.166 30.5298 49.1865 29.4177 49.0795 28.7682C49.019 28.4014 48.8202 28.2286 48.5039 28.2261ZM28.3409 13.6688C27.7898 13.6645 27.3253 13.9188 26.9056 14.274C26.5791 14.5504 26.581 14.9326 26.5824 15.3149C26.5828 15.4287 26.5946 15.5425 26.5942 15.6562C26.5922 16.1204 26.6077 16.5858 26.5796 17.0484C26.5182 18.0616 26.4546 18.8314 26.3518 20.2225C26.3938 20.6329 26.3122 21.5729 26.4145 22.3488C26.4828 22.8662 26.9276 23.2423 27.4345 23.3363C27.973 23.4361 28.5127 23.4839 29.0532 23.4881C29.4698 23.4914 29.887 23.4687 30.3042 23.4241C30.5559 23.3972 30.8124 23.3181 31.0434 23.2103C31.4179 23.0357 31.4774 22.6566 31.194 22.3503C31.0949 22.2432 30.9692 22.133 30.8362 22.0938C30.3871 21.9613 29.9347 21.8102 29.4736 21.7573C28.4675 21.6422 28.2653 21.4202 28.4187 20.3886C28.6152 19.0674 28.859 17.7529 29.0253 16.4279C29.1108 15.7468 29.1074 15.0475 29.0766 14.3596C29.0577 13.936 28.7684 13.6833 28.3901 13.6699C28.3737 13.6693 28.3573 13.6689 28.3409 13.6688ZM50.7447 15.0246C49.5147 15.015 48.4164 15.5582 47.5556 16.717C46.4396 18.2193 46.6027 20.4991 47.5596 21.9533C48.2644 23.0244 49.1866 23.6294 50.302 23.6389C51.1878 23.6332 52.2149 23.4339 52.7236 23.087C53.9014 22.2835 54.4901 21.1212 54.4591 19.6725C54.4371 18.6417 54.0785 17.6795 53.6259 16.7778C53.238 16.0051 52.6576 15.3648 51.7901 15.1573C51.433 15.0719 51.0839 15.0272 50.7447 15.0246ZM40.3068 14.4314C40.1924 17.468 40.0791 20.4787 39.9647 23.5145C40.0518 23.5278 40.0868 23.5358 40.122 23.5382C40.2241 23.5451 40.3255 23.5489 40.4265 23.5497C41.2961 23.5565 42.124 23.3401 42.9135 22.9589C43.7015 22.5784 44.3705 22.0598 44.6652 21.1635C45.0519 19.9874 45.1113 18.7898 44.8917 17.5732C44.7598 16.8422 44.5453 16.1485 43.9564 15.6589C42.9028 14.7831 41.6431 14.5467 40.3068 14.4314ZM11.203 12.8542C11.9534 12.86 12.9946 12.9292 12.9946 12.9292C12.9946 12.9292 12.9963 13.9659 12.9822 14.4766C12.9186 16.7811 12.8399 19.0853 12.7908 21.3901C12.7815 21.8293 12.857 22.2758 12.9389 22.7098C12.9948 23.0062 13.1698 23.2496 13.4914 23.3189C13.5382 23.329 13.5866 23.334 13.6358 23.3344C14.0497 23.3376 14.5199 23.0112 14.6087 22.602C14.6786 22.2807 14.7119 21.948 14.7314 21.6185C14.862 19.4036 14.9156 17.3414 14.9897 14.9678C15.0765 14.3035 15.109 13.6319 15.1681 12.9429C16.0954 12.8876 16.9878 12.8328 17.8802 12.7817C18.829 12.7274 19.7788 12.688 20.7267 12.6208C21.429 12.571 22.0915 12.3718 22.6441 11.8996C23.0761 11.5305 23.0362 10.9514 22.566 10.6288C22.4532 10.5513 22.3219 10.4748 22.1913 10.4569C21.6782 10.3863 21.161 10.2784 20.6475 10.2744C20.605 10.2741 20.5628 10.2745 20.5205 10.2756C20.0442 10.2887 19.5679 10.2925 19.0924 10.2888C17.3515 10.2752 15.6157 10.1609 13.8783 10.0329C12.9328 9.96312 11.9832 9.92859 11.0347 9.92117C10.848 9.91971 10.6615 9.91932 10.475 9.91991C9.72544 9.92226 8.68789 10.223 8.32143 10.4718C7.95504 10.7205 7.76944 10.9661 7.80914 11.3984C7.84892 11.8308 7.96977 12.1508 8.07194 12.5212C8.14995 12.804 8.35249 12.9264 8.62507 12.9285C8.63771 12.9286 8.6505 12.9284 8.66337 12.928C9.38298 12.905 10.1026 12.8854 10.8221 12.8583C10.9331 12.8542 11.0631 12.8531 11.203 12.8542ZM34.3586 14.6498C34.222 14.6487 34.0854 14.6514 33.9491 14.6574C33.7 14.6684 33.371 14.8911 33.297 15.1363C33.1723 15.5487 33.1368 15.8776 33.1174 16.3014C33.0549 17.6747 33.044 19.0506 33.0206 20.4256C33.0089 21.1266 32.9983 21.8282 33.0151 22.5289C33.0265 23.0097 33.2016 23.2615 33.6605 23.3087C34.5938 23.4048 35.5336 23.4431 36.4716 23.4786C36.4806 23.4789 36.4896 23.4792 36.4987 23.4792C36.7135 23.4809 36.9367 23.4079 37.1453 23.3382C37.5789 23.1932 37.3983 22.7957 37.3914 22.4345C37.4763 22.1901 37.0336 22.1272 36.8253 22.0506C36.542 21.9464 36.236 21.8917 35.9353 21.8572C35.5175 21.8094 35.0954 21.8001 34.6551 21.7729C34.6592 21.1866 34.6724 20.6192 34.6626 20.0521C34.6588 19.827 34.7449 19.7573 34.9495 19.7466C35.022 19.743 35.1022 19.7427 35.1853 19.7434C35.2128 19.7436 35.2408 19.7439 35.2689 19.7442C35.297 19.7445 35.3252 19.7449 35.3534 19.7451C35.6058 19.7471 35.8523 19.7412 35.9563 19.6578C36.1181 19.5276 36.0722 18.7455 35.9644 18.5041C35.9284 18.4236 35.8119 18.396 35.6547 18.3948C35.3403 18.3923 34.8638 18.4955 34.5464 18.493L34.5622 16.2346C34.7288 16.2359 34.8873 16.2335 35.0427 16.2348C35.1373 16.2355 35.2306 16.2375 35.3238 16.2425C35.7571 16.2656 36.1892 16.315 36.6225 16.3281C36.6443 16.3288 36.6654 16.3292 36.6859 16.3294C37.1786 16.3332 37.3008 16.1876 37.344 15.6468C37.3477 15.5996 37.3469 15.552 37.3477 15.5046C37.3554 15.0276 37.2721 14.8993 36.8184 14.8465C36.1494 14.7684 35.4771 14.7176 34.8052 14.6677C34.6569 14.6566 34.5078 14.6509 34.3586 14.6498ZM20.7527 14.4097C20.1736 14.4052 19.6201 14.5494 19.1041 14.9736C18.597 15.3904 18.2323 15.9221 17.9355 16.5082C17.0498 18.2578 17.1618 20.5959 18.4765 22.0469C19.1077 22.7434 19.8208 23.2477 20.7363 23.2549C20.8801 23.256 21.029 23.2448 21.1832 23.2202C22.3599 23.0326 23.3084 22.483 23.8969 21.3822C24.3365 20.5599 24.5411 19.6726 24.5598 18.521C24.5319 18.2252 24.5441 17.7004 24.4243 17.2096C24.0801 15.7988 23.2476 14.8693 21.8156 14.5491C21.4539 14.4682 21.0987 14.4124 20.7527 14.4097ZM36.0989 43.7617C35.8462 43.7597 35.6464 43.4715 35.6451 43.1023C35.6439 42.7682 35.8152 42.5794 36.1165 42.5818C36.1188 42.5818 36.1212 42.5819 36.1235 42.5819C36.3985 42.5867 36.6251 42.8639 36.6188 43.1877C36.6128 43.4919 36.3835 43.7523 36.113 43.7615C36.1084 43.7617 36.1036 43.7618 36.0989 43.7617ZM41.3838 43.7544C41.1316 43.7525 40.9217 43.4481 40.9369 43.1056C40.9516 42.7739 41.1313 42.57 41.4044 42.5721C41.4104 42.5722 41.4165 42.5723 41.4225 42.5726C41.7033 42.584 41.9084 42.8521 41.897 43.1928C41.8865 43.5095 41.6612 43.7551 41.3838 43.7544ZM44.1281 43.6415C44.1575 43.3406 44.1729 43.0991 44.2109 42.8613C44.219 42.8108 44.3086 42.7389 44.3622 42.7374C44.4451 42.7351 44.5283 42.7335 44.6116 42.7341C44.7497 42.7352 44.8877 42.7425 45.0235 42.7621C45.2013 42.7878 45.4094 42.8872 45.3701 43.0928C45.3382 43.2601 45.195 43.4846 45.0525 43.5329C44.7832 43.6243 44.479 43.6074 44.1281 43.6415ZM12.3205 37.5693C12.3232 37.1844 12.317 36.8439 12.3297 36.5044C12.3572 35.7653 12.3989 35.0269 12.4244 34.2878C12.4305 34.1129 12.4849 34.0445 12.6497 34.0458C12.6565 34.0458 12.6635 34.0459 12.6707 34.0462C13.2661 34.0703 13.8277 34.1857 14.2676 34.6396C14.9395 35.3327 14.7662 36.6365 13.9437 37.1307C13.4539 37.4249 12.9186 37.5275 12.3205 37.5693ZM12.5582 32.4587C12.5378 30.8275 12.5313 29.2517 12.7467 27.671C12.9234 27.6582 13.0985 27.6508 13.2718 27.6521C13.7118 27.6556 14.1401 27.7154 14.5541 27.8853C15.5041 28.275 15.9072 29.6126 15.3672 30.5564C14.9351 31.3116 14.2522 31.7507 13.5019 32.0965C13.2112 32.2305 12.9041 32.3273 12.5582 32.4587ZM41.5377 21.784L41.575 16.4698C41.6549 16.4579 41.7354 16.4526 41.8157 16.4532C42.4336 16.458 43.0409 16.8219 43.282 17.4125C43.4635 17.8569 43.5664 18.3499 43.618 18.8309C43.6619 19.239 43.5824 19.661 43.5568 20.0769C43.5265 20.5695 43.2518 20.9218 42.9065 21.2201C42.5135 21.5596 42.0294 21.677 41.5377 21.784ZM50.6044 21.8297C50.5435 21.8292 50.4829 21.8262 50.4229 21.8208C49.499 21.7367 48.7252 20.8554 48.6748 19.8927C48.625 18.9393 48.8879 18.1089 49.6443 17.5059C50.0432 17.1878 50.4716 17.0352 50.8791 17.0384C51.5216 17.0434 52.1118 17.4363 52.4501 18.18C52.6109 18.5144 52.7278 19.0223 52.7688 19.202C52.8096 19.3816 52.8084 19.5548 52.8129 19.7712C52.8779 21.0657 51.6874 21.8382 50.6044 21.8297ZM20.9307 21.342C20.865 21.3414 20.7992 21.3377 20.7336 21.3305C19.6117 21.208 19.2601 20.4904 19.0248 19.3218C18.9989 19.1935 19.0098 19.0574 19.0001 18.8475C19.0512 17.9234 19.3256 17.0142 20.2136 16.4817C20.5432 16.284 20.8902 16.1873 21.2379 16.19C21.5948 16.1928 21.9524 16.3005 22.2921 16.5114C22.5062 16.6443 22.6804 16.9245 22.7696 17.1758C23.0617 17.9995 23.1208 18.8593 22.9808 19.7239C22.828 20.6671 21.8874 21.3494 20.9307 21.342Z" fill="black"/>
<path d="M43.7793 45.8141C43.6736 45.8133 43.5031 45.6869 43.471 45.583C43.3971 45.3446 43.3544 45.0799 43.371 44.831C43.4168 44.1421 43.4991 43.4557 43.5678 42.7682C43.602 42.4245 43.7944 42.2182 44.1106 42.1304C44.3059 42.0762 44.4967 42.0499 44.6822 42.0514C45.1146 42.0548 45.5175 42.2087 45.8779 42.5097C46.4547 42.9914 46.2655 43.9458 45.5379 44.1924C45.2316 44.2962 44.8859 44.2803 44.5575 44.3105C44.5103 44.3149 44.4628 44.316 44.414 44.3156C44.3324 44.315 44.247 44.3102 44.1525 44.3095C44.1509 44.5418 44.1553 44.7478 44.1463 44.9532C44.1377 45.1511 44.1485 45.3602 44.0873 45.5417C44.0475 45.6598 43.899 45.8051 43.7899 45.8137C43.7865 45.814 43.7829 45.8141 43.7793 45.8141ZM44.6116 42.7341C44.5283 42.7335 44.4451 42.7351 44.3622 42.7374C44.3086 42.7389 44.219 42.8108 44.2109 42.8613C44.1729 43.0991 44.1575 43.3406 44.1281 43.6415C44.479 43.6074 44.7832 43.6243 45.0525 43.5329C45.195 43.4846 45.3382 43.2601 45.3701 43.0928C45.4094 42.8872 45.2013 42.7878 45.0235 42.7621C44.8877 42.7425 44.7497 42.7352 44.6116 42.7341ZM33.3545 44.4144C33.108 44.4125 32.867 44.3518 32.6853 44.2297C32.181 43.8906 31.9325 43.2274 32.1023 42.6736C32.2359 42.2383 32.7922 41.856 33.3476 41.8336C33.3732 41.8326 33.3988 41.8322 33.4246 41.8324C33.563 41.8335 33.7032 41.8517 33.8387 41.8785C34.0562 41.9213 34.1905 42.0611 34.1519 42.3005C34.1272 42.4545 34.0454 42.487 33.9494 42.4862C33.8869 42.4857 33.8184 42.4712 33.7556 42.4668C33.7095 42.4636 33.6636 42.4602 33.6176 42.4569C33.5963 42.4523 33.547 42.4506 33.5082 42.4469C33.5076 42.4468 33.5068 42.4468 33.5059 42.4468C33.4967 42.4467 33.4741 42.4492 33.4676 42.45C33.2957 42.4714 33.1426 42.4886 32.9637 42.6014C32.6602 42.7929 32.6227 43.1443 32.8205 43.4436C32.959 43.6532 33.1695 43.7656 33.3921 43.7674C33.518 43.7684 33.6477 43.734 33.7705 43.6618C33.885 43.5945 33.9814 43.5602 34.0613 43.5609C34.1858 43.5618 34.2704 43.6474 34.3219 43.8245C34.345 43.9041 34.3187 44.0415 34.2629 44.0956C34.0435 44.3084 33.6938 44.417 33.3545 44.4144ZM36.2162 44.4142C36.2049 44.4141 36.1933 44.4139 36.1813 44.4136C35.9008 44.4065 35.7744 44.2963 35.596 44.1618C35.2902 43.9315 35.1055 43.6071 35.0201 43.2219C34.8608 42.5034 35.3568 41.879 36.0091 41.8841C36.1042 41.8848 36.2028 41.8991 36.303 41.9282C36.8721 42.094 37.1525 42.5451 37.2273 43.1203C37.2913 43.6126 37.0994 44.014 36.6879 44.2802C36.5594 44.3633 36.4697 44.4162 36.2162 44.4142ZM36.1165 42.5818C35.8152 42.5794 35.6439 42.7682 35.6451 43.1023C35.6464 43.4715 35.8462 43.7597 36.0989 43.7617C36.1036 43.7618 36.1084 43.7617 36.113 43.7615C36.3835 43.7523 36.6128 43.4919 36.6188 43.1877C36.6251 42.8639 36.3985 42.5867 36.1235 42.5819C36.1212 42.5819 36.1188 42.5818 36.1165 42.5818ZM41.447 44.4053L41.4387 44.4053C40.7953 44.3958 40.2467 43.7505 40.2523 43.01C40.2571 42.369 40.7156 41.8876 41.3123 41.8922C41.3183 41.8923 41.3244 41.8923 41.3304 41.8925C41.9708 41.908 42.571 42.6066 42.5667 43.3315C42.5631 43.9395 42.0714 44.4102 41.447 44.4053ZM41.4044 42.5721C41.1313 42.57 40.9516 42.7739 40.9369 43.1056C40.9217 43.4481 41.1316 43.7525 41.3838 43.7544C41.6612 43.7551 41.8865 43.5095 41.897 43.1928C41.9084 42.8521 41.7033 42.584 41.4225 42.5726C41.4165 42.5723 41.4104 42.5722 41.4044 42.5721ZM38.7507 43.5691C38.5649 43.5677 38.3795 43.5299 38.1966 43.4496C37.9016 43.3198 37.8871 43.0222 38.1719 42.8692C38.3615 42.7676 38.6243 42.7455 38.7765 42.7403C38.7886 42.7399 38.8017 42.7397 38.8155 42.7398C38.9757 42.7411 39.2429 42.7776 39.4143 42.8611C39.4987 42.9023 39.58 43.0206 39.5773 43.1487C39.575 43.2589 39.4931 43.4159 39.3744 43.4454C39.1685 43.5265 38.9595 43.5707 38.7507 43.5691ZM21.8146 39.5596C21.522 39.5573 21.2341 39.4945 20.9571 39.3667C20.821 39.304 20.6836 39.1203 20.6514 38.9686C20.5795 38.6293 20.5391 38.2746 20.5458 37.9275C20.5946 35.3953 20.6554 32.8632 20.7205 30.3314C20.7289 30.0008 20.7791 29.6709 20.8172 29.3416C20.8619 28.9571 21.0621 28.6653 21.4226 28.5741C21.6406 28.519 21.8741 28.4856 22.1023 28.4874C22.1926 28.4881 22.2822 28.4943 22.3696 28.5069C22.7917 28.5677 22.9855 28.8127 22.9855 29.2526C22.9858 30.4844 22.9567 31.7163 22.9411 32.9482C22.9351 33.4127 22.9058 34.3415 22.8932 34.3414C22.8466 35.906 22.7954 37.4704 22.7579 39.0351C22.7517 39.2918 22.6383 39.4233 22.419 39.4811C22.2165 39.5345 22.0145 39.5611 21.8146 39.5596ZM48.0172 39.6675C48.0083 39.6674 47.9992 39.6672 47.9901 39.6668C47.4753 39.6451 47.1338 39.2826 47.1498 38.7748C47.1669 38.2342 47.5088 37.8406 47.9563 37.8441C47.9595 37.8442 47.9624 37.8443 47.9654 37.8443C48.4794 37.8544 48.8304 38.2169 48.8171 38.7236C48.8024 39.2802 48.4689 39.671 48.0172 39.6675ZM26.4451 39.4139C26.3791 39.4134 26.3074 39.408 26.2297 39.3981C25.5976 39.3182 25.4174 39.1428 25.3595 38.4815C25.3115 37.934 25.2709 37.3835 25.2703 36.8342C25.2687 35.1518 25.2738 33.4693 25.2857 31.7868C25.289 31.3157 25.2929 30.8446 25.2972 30.3736C25.3008 29.9873 25.3657 29.6002 25.4205 29.2163C25.4676 28.8858 25.7491 28.6598 26.1292 28.6158C26.1994 28.6077 26.2656 28.6038 26.3278 28.6043C26.6588 28.6068 26.8754 28.7351 26.9775 29.0284C27.0658 29.2823 27.1146 29.5616 27.1236 29.8316C27.1348 30.1727 27.1348 30.5143 27.1324 30.8559C27.1311 31.0457 27.129 31.2355 27.1276 31.4253C27.1271 31.5012 27.1267 31.5771 27.1265 31.653C27.1263 31.7342 27.1258 31.8153 27.1252 31.8965C27.1243 32.0317 27.123 32.167 27.1221 32.3023C27.1487 32.3135 27.1755 32.3248 27.2022 32.3361C27.6601 31.768 28.1178 31.1998 28.5759 30.6319C29.0118 30.0914 29.4406 29.5447 29.8868 29.0133C30.0751 28.7892 30.2438 28.6875 30.4309 28.689C30.5404 28.6898 30.6562 28.726 30.7859 28.7937C31.0862 28.9503 31.2356 29.1494 31.2338 29.4077C31.233 29.5262 31.2003 29.657 31.1358 29.802C31.0559 29.9813 30.956 30.1575 30.8357 30.3106C29.9075 31.4903 28.9721 32.6641 28.0385 33.8394C27.9803 33.9125 27.9184 33.9825 27.8296 34.0879C28.2667 34.6484 28.7061 35.2069 29.1402 35.7697C29.6906 36.4832 30.2435 37.195 30.7789 37.9203C30.885 38.0639 30.9392 38.2603 30.9775 38.4412C30.9886 38.4938 30.994 38.5449 30.9937 38.594C30.9922 38.7939 30.8947 38.9611 30.6976 39.0625C30.5466 39.1401 30.3904 39.2094 30.2344 39.2082C30.1216 39.2073 30.0088 39.1695 29.8981 39.0712C29.724 38.9167 29.5465 38.7596 29.4022 38.5774C28.6343 37.6077 27.8764 36.6296 27.116 35.6557C27.1157 35.6969 27.1155 35.7531 27.115 35.8129L27.115 35.8176C27.1147 35.8551 27.1144 35.8946 27.114 35.934C27.1123 36.0813 27.1111 36.2285 27.11 36.3759C27.1083 36.6273 27.1071 36.8787 27.1053 37.1302C27.1017 37.651 27.0956 38.1718 27.0771 38.692C27.0584 39.214 26.8745 39.4173 26.4451 39.4139ZM10.3415 39.2619C10.318 38.646 10.3513 37.9267 10.3624 37.408C10.4158 34.8839 10.4081 32.5595 10.4666 30.0356C10.4901 29.0204 10.5024 28.0047 10.5046 26.9892C10.5051 26.778 10.5571 26.6699 10.7604 26.5973C11.9235 26.1825 13.1079 26.004 14.3099 26.0134C14.7728 26.017 15.2381 26.0484 15.706 26.1049C16.5178 26.203 17.3071 26.3878 18.0403 26.773C18.6715 27.1046 19.216 27.538 19.4819 28.2417C19.6969 28.8106 19.6554 29.3502 19.2494 29.8386C18.5182 30.7182 17.5912 31.3409 16.6554 31.9525C16.1573 32.278 15.6377 32.57 15.1504 32.9112C14.7849 33.1672 14.7712 33.3016 15.1062 33.5982C15.6789 34.1051 16.2933 34.5621 16.8745 35.0592C17.1353 35.2823 17.3851 35.5303 17.5937 35.8041C18.2701 36.6925 18.0804 37.6451 17.1223 38.1993C16.3506 38.6456 15.5194 38.9623 14.6401 39.0344C13.2244 39.1504 11.8027 39.1887 10.3415 39.2619ZM12.6497 34.0458C12.4849 34.0445 12.4305 34.1129 12.4244 34.2878C12.3989 35.0269 12.3572 35.7653 12.3297 36.5044C12.317 36.8439 12.3232 37.1844 12.3205 37.5693C12.9186 37.5275 13.4539 37.4249 13.9437 37.1307C14.7662 36.6365 14.9395 35.3327 14.2676 34.6396C13.8277 34.1857 13.2661 34.0703 12.6707 34.0462C12.6635 34.0459 12.6565 34.0458 12.6497 34.0458ZM13.2718 27.6521C13.0985 27.6508 12.9234 27.6582 12.7467 27.671C12.5313 29.2517 12.5378 30.8275 12.5582 32.4587C12.9041 32.3273 13.2112 32.2305 13.5019 32.0965C14.2522 31.7507 14.9351 31.3116 15.3672 30.5564C15.9072 29.6126 15.5041 28.275 14.5541 27.8853C14.1401 27.7154 13.7118 27.6556 13.2718 27.6521ZM41.8797 39.4529C41.8629 39.4528 41.8469 39.4525 41.8315 39.452C41.526 39.4415 40.5451 39.2879 39.9332 39.0968C39.4134 38.9343 39.2593 38.3143 39.5513 37.8368C39.6591 37.6604 39.8193 37.6185 39.9881 37.6199C40.0307 37.6202 40.0738 37.6233 40.1168 37.6276C40.5943 37.6763 41.0695 37.7486 41.5471 37.7964C41.644 37.806 41.7418 37.8108 41.8396 37.8115C41.9539 37.8124 42.0683 37.808 42.1818 37.8C42.5722 37.7726 42.9664 37.4524 43.0396 37.0653C43.0674 36.9182 43.0213 36.7139 42.9332 36.5946C42.7338 36.3247 42.5018 36.0751 42.2564 35.8474C41.9691 35.5807 41.6626 35.3329 41.3484 35.0999C40.4383 34.4249 39.7712 33.5311 39.1923 32.565C38.3719 31.1963 39.0637 29.2708 40.5497 28.761C41.1176 28.5662 41.6928 28.4416 42.2751 28.4462C42.6049 28.4487 42.9369 28.4927 43.2711 28.5888C43.4542 28.6415 43.6354 28.7303 43.7939 28.8387C44.1237 29.0642 44.2001 29.2873 44.1093 29.637C44.011 30.0152 43.846 30.1625 43.4328 30.1802C43.3232 30.1849 43.2134 30.1857 43.1036 30.1849C43.0148 30.1842 42.9259 30.1824 42.8371 30.1806C42.7484 30.1787 42.6597 30.177 42.5711 30.1763C42.489 30.1757 42.4069 30.1759 42.3249 30.1781C42.0674 30.1848 41.8052 30.1949 41.5551 30.2506C40.8098 30.4167 40.4551 31.1109 40.7308 31.8405C40.9464 32.4114 41.3193 32.8744 41.7564 33.2723C42.3367 33.8002 42.9587 34.2798 43.5387 34.8079C43.9018 35.1385 44.2687 35.4845 44.5509 35.8852C45.5235 37.2661 44.7619 39.0879 43.127 39.3302C42.7201 39.3905 42.1933 39.4554 41.8797 39.4529ZM34.4753 39.296C34.144 39.2934 33.8128 39.2897 33.4815 39.2858C32.8639 39.2786 32.6432 39.0852 32.6099 38.4418C32.5769 37.808 32.5887 37.1713 32.5956 36.536C32.6148 34.7901 32.621 33.0437 32.6753 31.299C32.6979 30.5727 32.8294 29.8502 32.9116 29.1259C32.9477 28.8077 33.1262 28.6289 33.4321 28.6043C33.8638 28.5695 34.2971 28.5232 34.7291 28.5265C34.7471 28.5267 34.7652 28.527 34.7833 28.5273C35.438 28.5389 36.0926 28.5878 36.746 28.6371C37.1645 28.6686 37.3085 28.8096 37.3222 29.1418C37.3444 29.6797 37.1556 30.0457 36.7756 30.0869C36.5037 30.1163 36.2287 30.1165 35.9537 30.1144C35.9294 30.1142 35.9051 30.1139 35.8808 30.1138L35.8085 30.1132C35.7253 30.1125 35.6421 30.112 35.5591 30.1126C35.4452 30.1133 35.3312 30.1129 35.2172 30.1121C35.0263 30.1106 34.8355 30.1076 34.6446 30.1055C34.4186 30.1038 34.3078 30.2122 34.3072 30.451C34.3052 31.3049 34.2968 32.1588 34.2906 33.0527L35.8135 33.0646C35.8107 33.4611 35.819 33.8195 35.7945 34.1753C35.7907 34.2309 35.6406 34.3102 35.5524 34.3191C35.1314 34.3625 34.7083 34.3853 34.258 34.4172L34.2357 37.5896C34.5501 37.6177 34.8416 37.657 35.1341 37.6671C35.5938 37.6829 36.0539 37.6926 36.5139 37.6962C36.6358 37.6972 36.7578 37.6978 36.8797 37.6978L36.8846 37.6978C37.0642 37.6992 37.1599 37.7708 37.1781 37.9483C37.2204 38.3616 37.2572 38.7754 37.302 39.2517C36.7644 39.2694 36.2868 39.2959 35.809 39.2985C35.3645 39.301 34.9198 39.2995 34.4753 39.296ZM48.1163 36.9493C47.8263 36.947 47.6563 36.7494 47.596 36.4869C47.3927 35.6035 47.1593 34.7224 47.0331 33.8263C46.871 32.6737 46.7882 31.5084 46.6993 30.3464C46.6714 29.983 46.7116 29.609 46.7624 29.2459C46.8096 28.9082 47.0003 28.6477 47.3298 28.5356C47.6514 28.4261 47.9735 28.302 48.3052 28.244C48.3758 28.2317 48.4421 28.2257 48.5039 28.2261C48.8202 28.2286 49.019 28.4014 49.0795 28.7682C49.1865 29.4177 49.166 30.5298 49.1649 31.2474C49.1639 31.9649 48.9478 34.0126 48.782 35.6429C48.7535 35.9233 48.6779 36.2013 48.5995 36.473C48.5298 36.7144 48.4189 36.9489 48.1222 36.9493C48.1202 36.9493 48.1183 36.9493 48.1163 36.9493ZM29.0532 23.4881C28.5127 23.4839 27.973 23.4361 27.4345 23.3363C26.9276 23.2423 26.4828 22.8662 26.4145 22.3488C26.3122 21.5729 26.3938 20.6329 26.3518 20.2225C26.4546 18.8314 26.5182 18.0616 26.5796 17.0484C26.6077 16.5858 26.5922 16.1204 26.5942 15.6562C26.5946 15.5425 26.5828 15.4287 26.5824 15.3149C26.581 14.9326 26.5791 14.5504 26.9056 14.274C27.3253 13.9188 27.7898 13.6645 28.3409 13.6688C28.3573 13.6689 28.3737 13.6693 28.3901 13.6699C28.7684 13.6833 29.0577 13.936 29.0766 14.3596C29.1074 15.0475 29.1108 15.7468 29.0253 16.4279C28.859 17.7529 28.6152 19.0674 28.4187 20.3886C28.2653 21.4202 28.4675 21.6422 29.4736 21.7573C29.9347 21.8102 30.3871 21.9613 30.8362 22.0938C30.9692 22.133 31.0949 22.2432 31.194 22.3503C31.4774 22.6566 31.4179 23.0357 31.0434 23.2103C30.8124 23.3181 30.5559 23.3972 30.3042 23.4241C29.887 23.4687 29.4698 23.4914 29.0532 23.4881ZM50.302 23.6389C49.1866 23.6294 48.2644 23.0244 47.5596 21.9533C46.6027 20.4991 46.4396 18.2193 47.5556 16.717C48.4164 15.5582 49.5147 15.015 50.7447 15.0246C51.0839 15.0272 51.433 15.0719 51.7901 15.1573C52.6576 15.3648 53.238 16.0051 53.6259 16.7778C54.0785 17.6795 54.4371 18.6417 54.4591 19.6725C54.4901 21.1212 53.9014 22.2835 52.7236 23.087C52.2149 23.4339 51.1878 23.6332 50.302 23.6389ZM50.8791 17.0384C50.4716 17.0352 50.0432 17.1878 49.6443 17.5059C48.8879 18.1089 48.625 18.9393 48.6748 19.8927C48.7252 20.8554 49.499 21.7367 50.4229 21.8208C50.4829 21.8262 50.5435 21.8292 50.6044 21.8297C51.6874 21.8382 52.8779 21.0657 52.8129 19.7712C52.8084 19.5548 52.8096 19.3816 52.7688 19.202C52.7278 19.0223 52.6109 18.5144 52.4501 18.18C52.1118 17.4363 51.5216 17.0434 50.8791 17.0384ZM40.4265 23.5497C40.3255 23.5489 40.2241 23.5451 40.122 23.5382C40.0868 23.5358 40.0518 23.5278 39.9647 23.5145C40.0791 20.4787 40.1924 17.468 40.3068 14.4314C41.6431 14.5467 42.9028 14.7831 43.9564 15.6589C44.5453 16.1485 44.7598 16.8422 44.8917 17.5732C45.1113 18.7898 45.0519 19.9874 44.6652 21.1635C44.3705 22.0598 43.7015 22.5784 42.9135 22.9589C42.124 23.3401 41.2961 23.5565 40.4265 23.5497ZM41.8157 16.4532C41.7354 16.4526 41.6549 16.4579 41.575 16.4698L41.5377 21.784C42.0294 21.677 42.5135 21.5596 42.9065 21.2201C43.2518 20.9218 43.5265 20.5695 43.5568 20.0769C43.5824 19.661 43.6619 19.239 43.618 18.8309C43.5664 18.3499 43.4635 17.8569 43.282 17.4125C43.0409 16.8219 42.4336 16.458 41.8157 16.4532ZM13.6358 23.3344C13.5866 23.334 13.5382 23.329 13.4914 23.3189C13.1698 23.2496 12.9948 23.0062 12.9389 22.7098C12.857 22.2758 12.7815 21.8293 12.7908 21.3901C12.8399 19.0853 12.9186 16.7811 12.9822 14.4766C12.9963 13.9659 12.9946 12.9292 12.9946 12.9292C12.9946 12.9292 11.9534 12.86 11.203 12.8542C11.0631 12.8531 10.9331 12.8542 10.8221 12.8583C10.1026 12.8854 9.38298 12.905 8.66337 12.928C8.6505 12.9284 8.63771 12.9286 8.62507 12.9285C8.35249 12.9264 8.14995 12.804 8.07194 12.5212C7.96977 12.1508 7.84892 11.8308 7.80914 11.3984C7.76944 10.9661 7.95504 10.7205 8.32143 10.4718C8.68789 10.223 9.72544 9.92226 10.475 9.91991C10.6615 9.91932 10.848 9.91971 11.0347 9.92117C11.9832 9.92859 12.9328 9.96312 13.8783 10.0329C15.6157 10.1609 17.3515 10.2752 19.0924 10.2888C19.5679 10.2925 20.0442 10.2887 20.5205 10.2756C20.5628 10.2745 20.605 10.2741 20.6475 10.2744C21.161 10.2784 21.6782 10.3863 22.1913 10.4569C22.3219 10.4748 22.4532 10.5513 22.566 10.6288C23.0362 10.9514 23.0761 11.5305 22.6441 11.8996C22.0915 12.3718 21.429 12.571 20.7267 12.6208C19.7788 12.688 18.829 12.7274 17.8802 12.7817C16.9878 12.8328 16.0954 12.8876 15.1681 12.9429C15.109 13.6319 15.0765 14.3035 14.9897 14.9678C14.9156 17.3414 14.862 19.4036 14.7314 21.6185C14.7119 21.948 14.6786 22.2807 14.6087 22.602C14.5199 23.0112 14.0497 23.3376 13.6358 23.3344ZM36.4987 23.4792C36.4896 23.4792 36.4806 23.4789 36.4716 23.4786C35.5336 23.4431 34.5938 23.4048 33.6605 23.3087C33.2016 23.2615 33.0265 23.0097 33.0151 22.5289C32.9983 21.8282 33.0089 21.1266 33.0206 20.4256C33.044 19.0506 33.0549 17.6747 33.1174 16.3014C33.1368 15.8776 33.1723 15.5487 33.297 15.1363C33.371 14.8911 33.7 14.6684 33.9491 14.6574C34.0854 14.6514 34.222 14.6487 34.3586 14.6498C34.5078 14.6509 34.6569 14.6566 34.8052 14.6677C35.4771 14.7176 36.1494 14.7684 36.8184 14.8465C37.2721 14.8993 37.3554 15.0276 37.3477 15.5046C37.3469 15.552 37.3477 15.5996 37.344 15.6468C37.3008 16.1876 37.1786 16.3332 36.6859 16.3294C36.6654 16.3292 36.6443 16.3288 36.6225 16.3281C36.1892 16.315 35.7571 16.2656 35.3238 16.2425C35.2306 16.2375 35.1373 16.2355 35.0427 16.2348C34.8873 16.2335 34.7288 16.2359 34.5622 16.2346L34.5464 18.493C34.8638 18.4955 35.3403 18.3923 35.6547 18.3948C35.8119 18.396 35.9284 18.4236 35.9644 18.5041C36.0722 18.7455 36.1181 19.5276 35.9563 19.6578C35.8523 19.7412 35.6058 19.7471 35.3534 19.7451C35.3252 19.7449 35.297 19.7445 35.2689 19.7442C35.2408 19.7439 35.2128 19.7436 35.1853 19.7434C35.1022 19.7427 35.022 19.743 34.9495 19.7466C34.7449 19.7573 34.6588 19.827 34.6626 20.0521C34.6724 20.6192 34.6592 21.1866 34.6551 21.7729C35.0954 21.8001 35.5175 21.8094 35.9353 21.8572C36.236 21.8917 36.542 21.9464 36.8253 22.0506C37.0336 22.1272 37.4763 22.1901 37.3914 22.4345C37.3983 22.7957 37.5789 23.1932 37.1453 23.3382C36.9367 23.4079 36.7135 23.4809 36.4987 23.4792ZM20.7363 23.2549C19.8208 23.2477 19.1077 22.7434 18.4765 22.0469C17.1618 20.5959 17.0498 18.2578 17.9355 16.5082C18.2323 15.9221 18.597 15.3904 19.1041 14.9736C19.6201 14.5494 20.1736 14.4052 20.7527 14.4097C21.0987 14.4124 21.4539 14.4682 21.8156 14.5491C23.2476 14.8693 24.0801 15.7988 24.4243 17.2096C24.5441 17.7004 24.5319 18.2252 24.5598 18.521C24.5411 19.6726 24.3365 20.5599 23.8969 21.3822C23.3084 22.483 22.3599 23.0326 21.1832 23.2202C21.029 23.2448 20.8801 23.256 20.7363 23.2549ZM21.2379 16.19C20.8902 16.1873 20.5432 16.284 20.2136 16.4817C19.3256 17.0142 19.0512 17.9234 19.0001 18.8475C19.0098 19.0574 18.9989 19.1935 19.0248 19.3218C19.2601 20.4904 19.6117 21.208 20.7336 21.3305C20.7992 21.3377 20.865 21.3414 20.9307 21.342C21.8874 21.3494 22.828 20.6671 22.9808 19.7239C23.1208 18.8593 23.0617 17.9995 22.7696 17.1758C22.6804 16.9245 22.5062 16.6443 22.2921 16.5114C21.9524 16.3005 21.5948 16.1928 21.2379 16.19Z" fill="white"/>
</g>
<defs>
<clipPath id="clip0_202_221">
<rect width="60" height="53" fill="white"/>
</clipPath>
</defs>
</svg>
